# Blender 4.2.3 LTS
# www.blender.org
o Cube.005
v 0.727863 0.778242 0.868300
v 0.727863 0.778242 0.404508
v 0.727863 0.077847 0.868300
v 0.727863 0.077847 0.404508
v 0.264071 0.778242 0.868300
v 0.264071 0.778242 0.404508
v 0.264071 0.077847 0.868300
v 0.264071 0.077847 0.404508
vn -0.0000 -0.0000 1.0000
vn -0.0000 -1.0000 -0.0000
vn -1.0000 -0.0000 -0.0000
vn -0.0000 -0.0000 -1.0000
vn 1.0000 -0.0000 -0.0000
vn -0.0000 1.0000 -0.0000
vt 0.601311 0.440688
vt 0.745628 0.004809
vt 0.745628 0.440688
vt 0.158743 0.450306
vt 0.303060 0.738940
vt 0.158743 0.738940
vt 0.004809 0.440689
vt 0.293443 0.004809
vt 0.293443 0.440689
vt 0.004809 0.886186
vt 0.149126 0.450306
vt 0.149126 0.886186
vt 0.303060 0.440688
vt 0.591694 0.004809
vt 0.591694 0.440689
vt 0.312677 0.450306
vt 0.456994 0.738940
vt 0.312677 0.738940
vt 0.601311 0.004809
vt 0.303060 0.450306
vt 0.004809 0.004809
vt 0.004809 0.450306
vt 0.303060 0.004809
vt 0.456994 0.450306
s 0
f 5/1/1 3/2/1 1/3/1
f 3/4/2 8/5/2 4/6/2
f 7/7/3 6/8/3 8/9/3
f 2/10/4 8/11/4 6/12/4
f 1/13/5 4/14/5 2/15/5
f 5/16/6 2/17/6 6/18/6
f 5/1/1 7/19/1 3/2/1
f 3/4/2 7/20/2 8/5/2
f 7/7/3 5/21/3 6/8/3
f 2/10/4 4/22/4 8/11/4
f 1/13/5 3/23/5 4/14/5
f 5/16/6 1/24/6 2/17/6
