# Blender 4.2.3 LTS
# www.blender.org
o Cube.005
v 0.277457 0.632274 -0.004897
v 0.277457 0.632274 0.391408
v 0.277457 0.763610 -0.004897
v 0.277457 0.763610 0.391408
v 0.408794 0.632274 -0.004897
v 0.408794 0.632274 0.391408
v 0.408794 0.763610 -0.004897
v 0.408794 0.763610 0.391408
vn -1.0000 -0.0000 -0.0000
vn -0.0000 1.0000 -0.0000
vn 1.0000 -0.0000 -0.0000
vn -0.0000 -1.0000 -0.0000
vn -0.0000 -0.0000 -1.0000
vn -0.0000 -0.0000 1.0000
vt 0.846597 0.004809
vt 0.928333 0.251443
vt 0.846597 0.251443
vt 0.923373 0.450306
vt 0.964241 0.696940
vt 0.923373 0.696940
vt 0.466611 0.706557
vt 0.548346 0.953192
vt 0.466611 0.953192
vt 0.932837 0.706557
vt 0.973705 0.953192
vt 0.932837 0.953192
vt 0.759903 0.925244
vt 0.800770 0.843509
vt 0.800770 0.925244
vt 0.901814 0.342795
vt 0.942682 0.261060
vt 0.942682 0.342795
vt 0.928333 0.004809
vt 0.964241 0.450306
vt 0.548346 0.706557
vt 0.973705 0.706557
vt 0.759903 0.843509
vt 0.901814 0.261060
s 0
f 2/1/1 3/2/1 1/3/1
f 4/4/2 7/5/2 3/6/2
f 8/7/3 5/8/3 7/9/3
f 6/10/4 1/11/4 5/12/4
f 7/13/5 1/14/5 3/15/5
f 4/16/6 6/17/6 8/18/6
f 2/1/1 4/19/1 3/2/1
f 4/4/2 8/20/2 7/5/2
f 8/7/3 6/21/3 5/8/3
f 6/10/4 2/22/4 1/11/4
f 7/13/5 5/23/5 1/14/5
f 4/16/6 2/24/6 6/17/6
