# Blender 4.2.3 LTS
# www.blender.org
o Cube
v 0.348523 0.825737 0.445435
v 0.348523 0.825737 0.022422
v 0.348523 0.718192 0.445435
v 0.348523 0.718192 0.022422
v 0.240978 0.825737 0.445435
v 0.240978 0.825737 0.022422
v 0.240978 0.718192 0.445435
v 0.240978 0.718192 0.022422
vn 1.0000 -0.0000 -0.0000
vn -0.0000 -1.0000 -0.0000
vn -1.0000 -0.0000 -0.0000
vn -0.0000 1.0000 -0.0000
vn -0.0000 -0.0000 1.0000
vn -0.0000 -0.0000 -1.0000
vt 0.841171 0.583096
vt 0.875991 0.893181
vt 0.875991 0.583096
vt 0.662258 0.264050
vt 0.712935 0.574135
vt 0.712935 0.264050
vt 0.884952 0.583096
vt 0.919772 0.893181
vt 0.919772 0.583096
vt 0.721896 0.264050
vt 0.772572 0.574135
vt 0.772572 0.264050
vt 0.451215 0.784989
vt 0.416394 0.734312
vt 0.416394 0.784989
vt 0.407434 0.784989
vt 0.372613 0.734312
vt 0.372613 0.784989
vt 0.841171 0.893181
vt 0.662258 0.574135
vt 0.884952 0.893181
vt 0.721896 0.574135
vt 0.451215 0.734312
vt 0.407434 0.734312
s 0
f 3/1/1 2/2/1 1/3/1
f 7/4/2 4/5/2 3/6/2
f 5/7/3 8/8/3 7/9/3
f 1/10/4 6/11/4 5/12/4
f 1/13/5 7/14/5 3/15/5
f 6/16/6 4/17/6 8/18/6
f 3/1/1 4/19/1 2/2/1
f 7/4/2 8/20/2 4/5/2
f 5/7/3 6/21/3 8/8/3
f 1/10/4 2/22/4 6/11/4
f 1/13/5 5/23/5 7/14/5
f 6/16/6 2/24/6 4/17/6
