# Blender 4.2.3 LTS
# www.blender.org
o Cube.005
v 0.800787 0.350622 0.534014
v 0.800787 0.350622 0.865266
v 0.800787 0.574615 0.534014
v 0.800787 0.574615 0.865266
v 0.987928 0.350622 0.534014
v 0.987928 0.350622 0.865266
v 0.987928 0.574615 0.534014
v 0.987928 0.574615 0.865266
vn -1.0000 -0.0000 -0.0000
vn -0.0000 1.0000 -0.0000
vn 1.0000 -0.0000 -0.0000
vn -0.0000 -1.0000 -0.0000
vn -0.0000 -0.0000 -1.0000
vn -0.0000 -0.0000 1.0000
vt 0.750000 0.687500
vt 0.812500 0.500000
vt 0.750000 0.500000
vt 0.687500 0.687500
vt 0.687500 0.500000
vt 0.625000 0.500000
vt 0.875000 0.687500
vt 0.875000 0.500000
vt 0.812500 0.750000
vt 0.750000 0.750000
vt 0.687500 0.750000
vt 0.812500 0.687500
vt 0.625000 0.687500
s 0
f 2/1/1 3/2/1 1/3/1
f 4/4/2 7/3/2 3/5/2
f 8/4/3 5/6/3 7/5/3
f 6/7/4 1/2/4 5/8/4
f 7/9/5 1/1/5 3/10/5
f 4/11/6 6/1/6 8/10/6
f 2/1/1 4/12/1 3/2/1
f 4/4/2 8/1/2 7/3/2
f 8/4/3 6/13/3 5/6/3
f 6/7/4 2/12/4 1/2/4
f 7/9/5 5/12/5 1/1/5
f 4/11/6 2/4/6 6/1/6
