# Blender 4.2.3 LTS
# www.blender.org
o Cube
v 0.975847 0.507244 0.487763
v 0.975847 0.410672 0.487763
v 0.891636 0.507244 0.487763
v 0.891636 0.410672 0.487763
v 0.891636 0.410672 0.487763
v 0.975847 0.410672 0.487763
v 0.975847 0.507244 0.487763
v 0.891636 0.507244 0.487763
v 0.503596 0.410672 0.866312
v 0.503596 0.410672 0.866312
v 0.562185 0.507244 0.835446
v 0.562185 0.410672 0.835446
v 0.562185 0.507244 0.796208
v 0.562185 0.410672 0.796208
v 0.562185 0.507244 0.796208
v 0.562185 0.507244 0.835446
v 0.562185 0.410672 0.796208
v 0.562185 0.410672 0.835446
v 0.031346 0.507244 0.487763
v 0.031346 0.410672 0.487763
v 0.115557 0.507244 0.487763
v 0.115557 0.410672 0.487763
v 0.115557 0.410672 0.487763
v 0.031346 0.410672 0.487763
v 0.031346 0.507244 0.487763
v 0.115557 0.507244 0.487763
v 0.503596 0.410672 0.866312
v 0.503596 0.410672 0.866312
v 0.445008 0.507244 0.835446
v 0.445008 0.410672 0.835446
v 0.445008 0.507244 0.796208
v 0.445008 0.410672 0.796208
v 0.445008 0.507244 0.796208
v 0.445008 0.507244 0.835446
v 0.445008 0.410672 0.796208
v 0.445008 0.410672 0.835446
v 0.123491 0.458107 0.796208
v 0.123491 0.458107 0.835446
v 0.123491 0.410672 0.796208
v 0.123491 0.410672 0.835446
v 0.173383 0.410672 0.796208
v 0.173383 0.410672 0.835446
v 0.173383 0.465732 0.835446
v 0.173383 0.465732 0.796208
v 0.123491 0.458107 0.640724
v 0.123491 0.410672 0.640724
v 0.173383 0.410672 0.640724
v 0.173383 0.465732 0.640724
vn -0.0000 -1.0000 -0.0000
vn -1.0000 -0.0000 -0.0000
vn -0.0000 -0.0000 1.0000
vn -0.1511 0.9885 -0.0000
vn -0.0000 -0.0000 -1.0000
vn 1.0000 -0.0000 -0.0000
vt 0.011826 0.477785
vt 0.029020 0.499648
vt 0.011826 0.499648
vt 0.946765 0.365099
vt 0.967550 0.382293
vt 0.946765 0.382293
vt 0.773091 0.854040
vt 0.752305 0.832177
vt 0.776432 0.832177
vt 0.355961 0.618676
vt 0.338767 0.596813
vt 0.355961 0.596813
vt 0.097154 0.477785
vt 0.029020 0.477785
vt 0.362833 0.960275
vt 0.384696 0.981061
vt 0.362833 0.984402
vt 0.424095 0.596813
vt 0.967550 0.450427
vt 0.904921 0.453234
vt 0.880795 0.385100
vt 0.904921 0.385100
vt 0.967550 0.365099
vt 0.752305 0.854040
vt 0.338767 0.618676
vt 0.097154 0.499648
vt 0.384696 0.960275
vt 0.424095 0.618676
vt 0.946765 0.450427
vt 0.880795 0.453234
s 0
f 40/1/1 41/2/1 42/3/1
f 40/4/2 37/5/2 39/6/2
f 38/7/3 42/8/3 43/9/3
f 37/10/4 43/11/4 44/12/4
f 46/13/1 41/2/1 39/14/1
f 47/15/5 45/16/5 48/17/5
f 48/18/4 37/10/4 44/12/4
f 45/19/2 39/6/2 37/5/2
f 47/20/6 44/21/6 41/22/6
f 40/1/1 39/14/1 41/2/1
f 40/4/2 38/23/2 37/5/2
f 38/7/3 40/24/3 42/8/3
f 37/10/4 38/25/4 43/11/4
f 46/13/1 47/26/1 41/2/1
f 47/15/5 46/27/5 45/16/5
f 48/18/4 45/28/4 37/10/4
f 45/19/2 46/29/2 39/6/2
f 47/20/6 48/30/6 44/21/6
l 2 6
l 7 1
l 8 3
l 4 5
l 10 9
l 11 16
l 15 13
l 12 18
l 14 17
l 20 24
l 25 19
l 26 21
l 22 23
l 28 27
l 29 34
l 33 31
l 30 36
l 32 35
