# Blender 4.2.3 LTS
# www.blender.org
o Cube.003
v 0.735807 0.461035 0.505538
v 0.735807 0.461035 0.774994
v 0.735807 0.525209 0.505538
v 0.735807 0.525209 0.774994
v 0.799980 0.461035 0.505538
v 0.799980 0.461035 0.774994
v 0.799980 0.525209 0.505538
v 0.799980 0.525209 0.774994
vn -1.0000 -0.0000 -0.0000
vn -0.0000 1.0000 -0.0000
vn 1.0000 -0.0000 -0.0000
vn -0.0000 -1.0000 -0.0000
vn -0.0000 -0.0000 -1.0000
vn -0.0000 -0.0000 1.0000
vt 0.345658 0.887269
vt 0.408103 0.973861
vt 0.345658 0.973861
vt 0.921500 0.100449
vt 0.983945 0.187041
vt 0.921500 0.187041
vt 0.004619 0.887694
vt 0.067064 0.974286
vt 0.004619 0.974286
vt 0.921500 0.196279
vt 0.983945 0.282871
vt 0.921500 0.282871
vt 0.807162 0.978002
vt 0.869608 0.915556
vt 0.869608 0.978002
vt 0.878846 0.978002
vt 0.941291 0.915556
vt 0.941291 0.978002
vt 0.408103 0.887269
vt 0.983945 0.100449
vt 0.067064 0.887694
vt 0.983945 0.196279
vt 0.807162 0.915556
vt 0.878846 0.915556
s 0
f 2/1/1 3/2/1 1/3/1
f 4/4/2 7/5/2 3/6/2
f 8/7/3 5/8/3 7/9/3
f 6/10/4 1/11/4 5/12/4
f 7/13/5 1/14/5 3/15/5
f 4/16/6 6/17/6 8/18/6
f 2/1/1 4/19/1 3/2/1
f 4/4/2 8/20/2 7/5/2
f 8/7/3 6/21/3 5/8/3
f 6/10/4 2/22/4 1/11/4
f 7/13/5 5/23/5 1/14/5
f 4/16/6 2/24/6 6/17/6
