# Blender 4.2.3 LTS
# www.blender.org
o Cube.003
v 0.587595 0.437292 -0.006476
v 0.587595 0.437292 0.329946
v 0.587595 0.548396 -0.006476
v 0.587595 0.548396 0.329946
v 0.698699 0.437292 -0.006476
v 0.698699 0.437292 0.329946
v 0.698699 0.548396 -0.006476
v 0.698699 0.548396 0.329946
vn -1.0000 -0.0000 -0.0000
vn -0.0000 1.0000 -0.0000
vn 1.0000 -0.0000 -0.0000
vn -0.0000 -1.0000 -0.0000
vn -0.0000 -0.0000 -1.0000
vn -0.0000 -0.0000 1.0000
vt 0.156625 0.878031
vt 0.264737 0.769919
vt 0.264737 0.878031
vt 0.807163 0.798206
vt 0.915275 0.906319
vt 0.807163 0.906319
vt 0.273975 0.878031
vt 0.382087 0.769919
vt 0.382087 0.878031
vt 0.460638 0.848625
vt 0.568750 0.956737
vt 0.460638 0.956737
vt 0.577988 0.956737
vt 0.686100 0.848625
vt 0.686100 0.956737
vt 0.156625 0.995381
vt 0.264737 0.887269
vt 0.264737 0.995381
vt 0.156625 0.769919
vt 0.915275 0.798206
vt 0.273975 0.769919
vt 0.568750 0.848625
vt 0.577988 0.848625
vt 0.156625 0.887269
s 0
f 2/1/1 3/2/1 1/3/1
f 4/4/2 7/5/2 3/6/2
f 8/7/3 5/8/3 7/9/3
f 6/10/4 1/11/4 5/12/4
f 7/13/5 1/14/5 3/15/5
f 4/16/6 6/17/6 8/18/6
f 2/1/1 4/19/1 3/2/1
f 4/4/2 8/20/2 7/5/2
f 8/7/3 6/21/3 5/8/3
f 6/10/4 2/22/4 1/11/4
f 7/13/5 5/23/5 1/14/5
f 4/16/6 2/24/6 6/17/6
