# Blender 4.2.3 LTS
# www.blender.org
o Cube
v 0.356122 0.714715 0.688889
v 0.356122 0.714715 0.964088
v 0.356122 0.989914 0.688889
v 0.356122 0.989914 0.964088
v 0.631320 0.714715 0.688889
v 0.631320 0.714715 0.964088
v 0.631320 0.989914 0.688889
v 0.631320 0.989914 0.964088
vn -1.0000 -0.0000 -0.0000
vn -0.0000 1.0000 -0.0000
vn 1.0000 -0.0000 -0.0000
vn -0.0000 -1.0000 -0.0000
vn -0.0000 -0.0000 -1.0000
vn -0.0000 -0.0000 1.0000
vt 0.264050 0.523620
vt 0.353152 0.725351
vt 0.264050 0.725351
vt 0.523620 0.264050
vt 0.653297 0.465781
vt 0.523620 0.465781
vt 0.362113 0.523620
vt 0.451215 0.725351
vt 0.362113 0.725351
vt 0.523620 0.474742
vt 0.653297 0.676474
vt 0.523620 0.676474
vt 0.353152 0.863989
vt 0.264050 0.734312
vt 0.353152 0.734312
vt 0.872291 0.134158
vt 0.783189 0.004480
vt 0.872291 0.004480
vt 0.353152 0.523620
vt 0.653297 0.264050
vt 0.451215 0.523620
vt 0.653297 0.474742
vt 0.264050 0.863989
vt 0.783189 0.134158
s 0
f 2/1/1 3/2/1 1/3/1
f 4/4/2 7/5/2 3/6/2
f 8/7/3 5/8/3 7/9/3
f 6/10/4 1/11/4 5/12/4
f 7/13/5 1/14/5 3/15/5
f 4/16/6 6/17/6 8/18/6
f 2/1/1 4/19/1 3/2/1
f 4/4/2 8/20/2 7/5/2
f 8/7/3 6/21/3 5/8/3
f 6/10/4 2/22/4 1/11/4
f 7/13/5 5/23/5 1/14/5
f 4/16/6 2/24/6 6/17/6
