# Blender 4.2.3 LTS
# www.blender.org
o Cube.003
v 0.407717 0.398563 0.795248
v 0.407717 0.398563 0.992558
v 0.407717 0.595873 0.795248
v 0.407717 0.595873 0.992558
v 0.605027 0.398563 0.795248
v 0.605027 0.398563 0.992558
v 0.605027 0.595873 0.795248
v 0.605027 0.595873 0.992558
vn -1.0000 -0.0000 -0.0000
vn -0.0000 1.0000 -0.0000
vn 1.0000 -0.0000 -0.0000
vn -0.0000 -1.0000 -0.0000
vn -0.0000 -0.0000 -1.0000
vn -0.0000 -0.0000 1.0000
vt 0.661872 0.839387
vt 0.725279 0.647391
vt 0.725279 0.839387
vt 0.661872 0.638153
vt 0.725279 0.446157
vt 0.725279 0.638153
vt 0.734517 0.839387
vt 0.797925 0.647391
vt 0.797925 0.839387
vt 0.734517 0.638153
vt 0.797925 0.446157
vt 0.797925 0.638153
vt 0.652634 0.638153
vt 0.460638 0.446157
vt 0.652634 0.446157
vt 0.652634 0.839387
vt 0.460638 0.647391
vt 0.652634 0.647391
vt 0.661872 0.647391
vt 0.661872 0.446157
vt 0.734517 0.647391
vt 0.734517 0.446157
vt 0.460638 0.638153
vt 0.460638 0.839387
s 0
f 2/1/1 3/2/1 1/3/1
f 4/4/2 7/5/2 3/6/2
f 8/7/3 5/8/3 7/9/3
f 6/10/4 1/11/4 5/12/4
f 7/13/5 1/14/5 3/15/5
f 4/16/6 6/17/6 8/18/6
f 2/1/1 4/19/1 3/2/1
f 4/4/2 8/20/2 7/5/2
f 8/7/3 6/21/3 5/8/3
f 6/10/4 2/22/4 1/11/4
f 7/13/5 5/23/5 1/14/5
f 4/16/6 2/24/6 6/17/6
