# Blender 4.2.3 LTS
# www.blender.org
o Cube
v 0.975847 0.507244 0.487763
v 0.975847 0.410672 0.487763
v 0.503596 0.507244 0.580399
v 0.503596 0.507244 0.487763
v 0.503596 0.410672 0.580399
v 0.503596 0.410672 0.487763
v 0.891636 0.507244 0.487763
v 0.891636 0.410672 0.580399
v 0.891636 0.410672 0.487763
v 0.891636 0.507244 0.580399
v 0.562185 0.507244 0.487763
v 0.562185 0.410672 0.580399
v 0.562185 0.410672 0.487763
v 0.562185 0.507244 0.580399
v 0.891636 0.410672 0.487763
v 0.975847 0.410672 0.487763
v 0.975847 0.507244 0.487763
v 0.891636 0.507244 0.487763
v 0.562185 0.580262 0.487763
v 0.503596 0.580262 0.487763
v 0.503596 0.580262 0.580399
v 0.891636 0.580262 0.580399
v 0.891636 0.580262 0.487763
v 0.562185 0.580262 0.580399
v 0.562185 0.410672 0.866312
v 0.503596 0.410672 0.866312
v 0.503596 0.507244 0.866312
v 0.562185 0.507244 0.866312
v 0.503596 0.410672 0.866312
v 0.503596 0.604098 0.866312
v 0.736976 0.410672 0.993023
v 0.503596 0.410672 0.993023
v 0.503596 0.604098 0.993023
v 0.736976 0.604098 0.993023
v 0.562185 0.507244 0.835446
v 0.562185 0.410672 0.835446
v 0.503596 0.410672 0.835446
v 0.503596 0.507244 0.835446
v 0.503596 0.410672 0.796208
v 0.562185 0.507244 0.796208
v 0.562185 0.410672 0.796208
v 0.503596 0.507244 0.796208
v 0.503596 0.410672 0.765145
v 0.562185 0.507244 0.765145
v 0.562185 0.410672 0.765145
v 0.503596 0.507244 0.765145
v 0.503596 0.410672 0.722257
v 0.562185 0.507244 0.722257
v 0.562185 0.410672 0.722257
v 0.503596 0.507244 0.722257
v 0.503596 0.410672 0.683415
v 0.562185 0.507244 0.683415
v 0.562185 0.410672 0.683415
v 0.503596 0.507244 0.683415
v 0.503596 0.410672 0.631907
v 0.562185 0.507244 0.631907
v 0.562185 0.410672 0.631907
v 0.503596 0.507244 0.631907
v 0.562185 0.507244 0.796208
v 0.562185 0.507244 0.835446
v 0.562185 0.410672 0.796208
v 0.562185 0.410672 0.835446
v 0.833810 0.410672 0.796208
v 0.833810 0.410672 0.835446
v 0.833810 0.465732 0.835446
v 0.833810 0.465732 0.796208
v 0.716701 0.507244 0.722257
v 0.716701 0.507244 0.765145
v 0.716701 0.410672 0.722257
v 0.716701 0.410672 0.765145
v 0.684067 0.507244 0.631907
v 0.684067 0.507244 0.683415
v 0.684067 0.410672 0.631907
v 0.684067 0.410672 0.683415
v 0.680086 0.410672 0.765145
v 0.680086 0.507244 0.765145
v 0.680086 0.507244 0.722257
v 0.680086 0.410672 0.722257
v 0.649521 0.410672 0.631907
v 0.649521 0.410672 0.683415
v 0.649521 0.507244 0.683415
v 0.649521 0.507244 0.631907
v 0.716701 0.690591 0.722257
v 0.716701 0.690591 0.765145
v 0.680086 0.690591 0.765145
v 0.680086 0.690591 0.722257
v 0.684067 0.636664 0.631907
v 0.684067 0.636664 0.683415
v 0.649521 0.636664 0.683415
v 0.649521 0.636664 0.631907
v 0.716701 0.649504 0.765145
v 0.680086 0.649504 0.765145
v 0.716701 0.649504 0.722257
v 0.680086 0.649504 0.722257
v 0.684067 0.604132 0.683415
v 0.649521 0.604132 0.683415
v 0.649521 0.604132 0.631907
v 0.684067 0.604132 0.631907
v 0.536592 0.690591 0.765145
v 0.536592 0.690591 0.722257
v 0.536592 0.649504 0.765145
v 0.536592 0.649504 0.722257
v 0.564436 0.636664 0.683415
v 0.564436 0.636664 0.631907
v 0.564436 0.604132 0.683415
v 0.564436 0.604132 0.631907
v 0.031346 0.507244 0.487763
v 0.031346 0.410672 0.487763
v 0.503596 0.507244 0.580399
v 0.503596 0.507244 0.487763
v 0.503596 0.410672 0.580399
v 0.503596 0.410672 0.487763
v 0.115557 0.507244 0.487763
v 0.115557 0.410672 0.580399
v 0.115557 0.410672 0.487763
v 0.115557 0.507244 0.580399
v 0.445008 0.507244 0.487763
v 0.445008 0.410672 0.580399
v 0.445008 0.410672 0.487763
v 0.445008 0.507244 0.580399
v 0.115557 0.410672 0.487763
v 0.031346 0.410672 0.487763
v 0.031346 0.507244 0.487763
v 0.115557 0.507244 0.487763
v 0.445008 0.580262 0.487763
v 0.503596 0.580262 0.487763
v 0.503596 0.580262 0.580399
v 0.115557 0.580262 0.580399
v 0.115557 0.580262 0.487763
v 0.445008 0.580262 0.580399
v 0.445008 0.410672 0.866312
v 0.503596 0.410672 0.866312
v 0.503596 0.507244 0.866312
v 0.445008 0.507244 0.866312
v 0.503596 0.410672 0.866312
v 0.503596 0.604098 0.866312
v 0.270217 0.410672 0.993023
v 0.503596 0.410672 0.993023
v 0.503596 0.604098 0.993023
v 0.270217 0.604098 0.993023
v 0.445008 0.507244 0.835446
v 0.445008 0.410672 0.835446
v 0.503596 0.410672 0.835446
v 0.503596 0.507244 0.835446
v 0.503596 0.410672 0.796208
v 0.445008 0.507244 0.796208
v 0.445008 0.410672 0.796208
v 0.503596 0.507244 0.796208
v 0.503596 0.410672 0.765145
v 0.445008 0.507244 0.765145
v 0.445008 0.410672 0.765145
v 0.503596 0.507244 0.765145
v 0.503596 0.410672 0.722257
v 0.445008 0.507244 0.722257
v 0.445008 0.410672 0.722257
v 0.503596 0.507244 0.722257
v 0.503596 0.410672 0.683415
v 0.445008 0.507244 0.683415
v 0.445008 0.410672 0.683415
v 0.503596 0.507244 0.683415
v 0.503596 0.410672 0.631907
v 0.445008 0.507244 0.631907
v 0.445008 0.410672 0.631907
v 0.503596 0.507244 0.631907
v 0.445008 0.507244 0.796208
v 0.445008 0.507244 0.835446
v 0.445008 0.410672 0.796208
v 0.445008 0.410672 0.835446
v 0.173383 0.410672 0.796208
v 0.173383 0.410672 0.835446
v 0.173383 0.465732 0.835446
v 0.173383 0.465732 0.796208
v 0.290492 0.507244 0.722257
v 0.290492 0.507244 0.765145
v 0.290492 0.410672 0.722257
v 0.290492 0.410672 0.765145
v 0.323126 0.507244 0.631907
v 0.323126 0.507244 0.683415
v 0.323126 0.410672 0.631907
v 0.323126 0.410672 0.683415
v 0.327107 0.410672 0.765145
v 0.327107 0.507244 0.765145
v 0.327107 0.507244 0.722257
v 0.327107 0.410672 0.722257
v 0.357672 0.410672 0.631907
v 0.357672 0.410672 0.683415
v 0.357672 0.507244 0.683415
v 0.357672 0.507244 0.631907
v 0.290492 0.690591 0.722257
v 0.290492 0.690591 0.765145
v 0.327107 0.690591 0.765145
v 0.327107 0.690591 0.722257
v 0.323126 0.636664 0.631907
v 0.323126 0.636664 0.683415
v 0.357672 0.636664 0.683415
v 0.357672 0.636664 0.631907
v 0.290492 0.649504 0.765145
v 0.327107 0.649504 0.765145
v 0.290492 0.649504 0.722257
v 0.327107 0.649504 0.722257
v 0.323126 0.604132 0.683415
v 0.357672 0.604132 0.683415
v 0.357672 0.604132 0.631907
v 0.323126 0.604132 0.631907
v 0.470601 0.690591 0.765145
v 0.470601 0.690591 0.722257
v 0.470601 0.649504 0.765145
v 0.470601 0.649504 0.722257
v 0.442757 0.636664 0.683415
v 0.442757 0.636664 0.631907
v 0.442757 0.604132 0.683415
v 0.442757 0.604132 0.631907
vn -0.0000 -1.0000 -0.0000
vn -0.0000 -0.0000 -1.0000
vn -0.0000 -0.0000 1.0000
vn -0.0000 1.0000 -0.0000
vn 1.0000 -0.0000 -0.0000
vn 0.1511 0.9885 -0.0000
vn -1.0000 -0.0000 -0.0000
vn -0.1511 0.9885 -0.0000
vt 0.214885 0.037500
vt 0.201360 0.011826
vt 0.214885 0.011826
vt 0.326649 0.037500
vt 0.367242 0.011826
vt 0.367242 0.037500
vt 0.630686 0.268095
vt 0.662683 0.412462
vt 0.630686 0.412462
vt 0.588368 0.268095
vt 0.588368 0.242421
vt 0.630686 0.242421
vt 0.629146 0.048728
vt 0.661143 0.193095
vt 0.629146 0.193095
vt 0.326649 0.181867
vt 0.367242 0.181867
vt 0.586827 0.048728
vt 0.416240 0.768247
vt 0.750580 0.423690
vt 0.791173 0.279323
vt 0.791173 0.423690
vt 0.750580 0.449364
vt 0.791173 0.449364
vt 0.661143 0.218769
vt 0.629146 0.218769
vt 0.662683 0.268095
vt 0.423289 0.936484
vt 0.409764 0.894168
vt 0.423289 0.894168
vt 0.447747 0.491311
vt 0.473421 0.477785
vt 0.473421 0.491311
vt 0.447747 0.508505
vt 0.473421 0.508505
vt 0.726789 0.770413
vt 0.232080 0.037500
vt 0.232080 0.011826
vt 0.245692 0.037500
vt 0.245692 0.011826
vt 0.762652 0.200456
vt 0.749039 0.158140
vt 0.762652 0.158140
vt 0.447747 0.522117
vt 0.473421 0.522117
vt 0.447747 0.540911
vt 0.473421 0.540911
vt 0.712608 0.477785
vt 0.728653 0.520103
vt 0.712608 0.520103
vt 0.264485 0.037500
vt 0.264485 0.011826
vt 0.281506 0.037500
vt 0.281506 0.011826
vt 0.972910 0.755466
vt 0.955889 0.713150
vt 0.972910 0.713150
vt 0.447747 0.557932
vt 0.473421 0.557932
vt 0.447747 0.580503
vt 0.473421 0.580503
vt 0.304077 0.075771
vt 0.281506 0.090909
vt 0.281506 0.075771
vt 0.304077 0.037500
vt 0.304077 0.011826
vt 0.326649 0.011826
vt 0.516541 0.938038
vt 0.493970 0.895722
vt 0.516541 0.895722
vt 0.447747 0.603074
vt 0.473421 0.603074
vt 0.873412 0.477785
vt 0.897539 0.596813
vt 0.873412 0.596813
vt 0.229786 0.618676
vt 0.246981 0.499648
vt 0.246981 0.618676
vt 0.814825 0.383311
vt 0.838952 0.264284
vt 0.857143 0.383311
vt 0.138000 0.477785
vt 0.120806 0.596813
vt 0.120806 0.477785
vt 0.188974 0.810564
vt 0.170180 0.768248
vt 0.188974 0.768248
vt 0.728653 0.582443
vt 0.712608 0.600447
vt 0.712608 0.582443
vt 0.665773 0.666417
vt 0.649728 0.624099
vt 0.665773 0.624099
vt 0.264485 0.089165
vt 0.245692 0.105210
vt 0.245692 0.089165
vt 0.961953 0.520101
vt 0.939381 0.477785
vt 0.961953 0.477785
vt 0.687999 0.770413
vt 0.703137 0.812731
vt 0.687999 0.812731
vt 0.703137 0.855188
vt 0.687999 0.869444
vt 0.687999 0.855188
vt 0.833413 0.755468
vt 0.818274 0.713150
vt 0.833413 0.713150
vt 0.717438 0.666417
vt 0.717438 0.624099
vt 0.525086 0.540911
vt 0.660943 0.477785
vt 0.660943 0.520103
vt 0.871684 0.755468
vt 0.871684 0.713150
vt 0.511692 0.580503
vt 0.649728 0.770413
vt 0.649728 0.812731
vt 0.692173 0.909140
vt 0.710967 0.893095
vt 0.710967 0.909140
vt 0.188974 0.872900
vt 0.170180 0.890904
vt 0.170180 0.872900
vt 0.692173 0.972021
vt 0.665773 0.728757
vt 0.649728 0.746761
vt 0.649728 0.728757
vt 0.271096 0.909306
vt 0.293667 0.894168
vt 0.293667 0.909306
vt 0.650714 0.855188
vt 0.833413 0.797925
vt 0.818274 0.812181
vt 0.818274 0.797925
vt 0.961953 0.562557
vt 0.939381 0.576812
vt 0.939381 0.562557
vt 0.649728 0.666417
vt 0.096716 0.956504
vt 0.115510 0.894168
vt 0.115510 0.956504
vt 0.170180 0.810564
vt 0.939381 0.520101
vt 0.818274 0.755468
vt 0.317318 0.936623
vt 0.339889 0.894168
vt 0.339889 0.936623
vt 0.493970 0.961690
vt 0.511973 0.980484
vt 0.493970 0.980484
vt 0.054271 0.957048
vt 0.073064 0.894168
vt 0.073064 0.957048
vt 0.728653 0.746761
vt 0.665773 0.746761
vt 0.649728 0.582443
vt 0.409764 0.960136
vt 0.424019 0.982707
vt 0.409764 0.982707
vt 0.954700 0.197446
vt 0.977272 0.160161
vt 0.977272 0.197446
vt 0.870698 0.812181
vt 0.833413 0.812181
vt 0.271096 0.946591
vt 0.011826 0.218769
vt 0.025351 0.193095
vt 0.025351 0.218769
vt 0.177708 0.218769
vt 0.137115 0.193095
vt 0.177708 0.193095
vt 0.465209 0.048728
vt 0.433212 0.193095
vt 0.433212 0.048728
vt 0.390894 0.193095
vt 0.390894 0.218769
vt 0.433212 0.218769
vt 0.563176 0.037500
vt 0.531179 0.181867
vt 0.531179 0.037500
vt 0.137115 0.048728
vt 0.177708 0.048728
vt 0.488861 0.181867
vt 0.524808 0.773039
vt 0.726928 0.412462
vt 0.686335 0.268095
vt 0.726928 0.268095
vt 0.686335 0.242421
vt 0.726928 0.242421
vt 0.563176 0.011826
vt 0.531179 0.011826
vt 0.465209 0.193095
vt 0.967430 0.054142
vt 0.980956 0.011826
vt 0.980956 0.054142
vt 0.600402 0.477785
vt 0.626076 0.491311
vt 0.600402 0.491311
vt 0.626076 0.508505
vt 0.600402 0.508505
vt 0.416240 0.791899
vt 0.042546 0.193095
vt 0.042546 0.218769
vt 0.056158 0.193095
vt 0.056158 0.218769
vt 0.610877 0.794962
vt 0.624489 0.752646
vt 0.624489 0.794962
vt 0.626076 0.522117
vt 0.600402 0.522117
vt 0.626076 0.540911
vt 0.600402 0.540911
vt 0.447747 0.669044
vt 0.463792 0.626726
vt 0.463792 0.669044
vt 0.074951 0.193095
vt 0.074951 0.218769
vt 0.091972 0.193095
vt 0.091972 0.218769
vt 0.955889 0.821433
vt 0.972910 0.779117
vt 0.972910 0.821433
vt 0.626076 0.557932
vt 0.600402 0.557932
vt 0.626076 0.580503
vt 0.600402 0.580503
vt 0.091972 0.139686
vt 0.114543 0.154824
vt 0.091972 0.154824
vt 0.114543 0.193095
vt 0.114543 0.218769
vt 0.137115 0.218769
vt 0.447747 0.938038
vt 0.470318 0.895722
vt 0.470318 0.938038
vt 0.626076 0.603074
vt 0.600402 0.603074
vt 0.880795 0.361448
vt 0.904922 0.242421
vt 0.923113 0.361448
vt 0.355961 0.596813
vt 0.338767 0.477785
vt 0.355961 0.477785
vt 0.776432 0.832177
vt 0.752305 0.713150
vt 0.794623 0.713150
vt 0.011826 0.499648
vt 0.029020 0.618676
vt 0.011826 0.618676
vt 0.924985 0.134482
vt 0.943779 0.092166
vt 0.943779 0.134482
vt 0.463792 0.749388
vt 0.447747 0.731383
vt 0.463792 0.731383
vt 0.763719 0.011826
vt 0.747674 0.054144
vt 0.747674 0.011826
vt 0.056158 0.125385
vt 0.074951 0.141430
vt 0.056158 0.141430
vt 0.946765 0.341447
vt 0.969336 0.299131
vt 0.969336 0.341447
vt 0.447747 0.815357
vt 0.462885 0.773039
vt 0.462885 0.815357
vt 0.462885 0.872070
vt 0.447747 0.857815
vt 0.462885 0.857815
vt 0.901334 0.011826
vt 0.886195 0.054144
vt 0.886195 0.011826
vt 0.696010 0.054144
vt 0.696010 0.011826
vt 0.548737 0.540911
vt 0.515457 0.626726
vt 0.515457 0.669044
vt 0.847924 0.054144
vt 0.847924 0.011826
vt 0.562131 0.580503
vt 0.501156 0.773039
vt 0.501156 0.815357
vt 0.668522 0.972020
vt 0.649728 0.955976
vt 0.668522 0.955976
vt 0.924985 0.011826
vt 0.943779 0.029829
vt 0.924985 0.029829
vt 0.649728 0.893095
vt 0.763719 0.134488
vt 0.747674 0.116484
vt 0.763719 0.116484
vt 0.931049 0.212584
vt 0.908478 0.197446
vt 0.931049 0.197446
vt 0.500170 0.857815
vt 0.901334 0.110857
vt 0.886195 0.096601
vt 0.901334 0.096601
vt 0.946765 0.242421
vt 0.969336 0.256676
vt 0.946765 0.256676
vt 0.763719 0.054144
vt 0.247444 0.956504
vt 0.228650 0.894168
vt 0.247444 0.894168
vt 0.924985 0.092166
vt 0.946765 0.299131
vt 0.901334 0.054144
vt 0.386112 0.936623
vt 0.363541 0.894168
vt 0.386112 0.894168
vt 0.895335 0.984397
vt 0.913339 0.965603
vt 0.913339 0.984397
vt 0.030619 0.957048
vt 0.011826 0.894168
vt 0.030619 0.894168
vt 0.684794 0.134488
vt 0.747674 0.134488
vt 0.526672 0.731383
vt 0.936990 0.988174
vt 0.951246 0.965603
vt 0.951246 0.988174
vt 0.192752 0.951840
vt 0.170180 0.914555
vt 0.192752 0.914555
vt 0.848910 0.110857
vt 0.886195 0.110857
vt 0.908478 0.160161
vt 0.201360 0.037500
vt 0.588368 0.412462
vt 0.661143 0.048728
vt 0.586827 0.193095
vt 0.750580 0.279323
vt 0.662683 0.242421
vt 0.409764 0.936484
vt 0.447747 0.477785
vt 0.749039 0.200456
vt 0.728653 0.477785
vt 0.955889 0.755466
vt 0.304077 0.090909
vt 0.493970 0.938038
vt 0.915730 0.477785
vt 0.229786 0.499648
vt 0.814825 0.264284
vt 0.138000 0.596813
vt 0.728653 0.600447
vt 0.264485 0.105210
vt 0.703137 0.770413
vt 0.703137 0.869444
vt 0.525086 0.522117
vt 0.511692 0.557932
vt 0.692173 0.893095
vt 0.188974 0.890904
vt 0.710967 0.972021
vt 0.271096 0.894168
vt 0.650714 0.869444
vt 0.961953 0.576812
vt 0.096716 0.894168
vt 0.317318 0.894168
vt 0.511973 0.961690
vt 0.054271 0.894168
vt 0.728653 0.728757
vt 0.649728 0.600447
vt 0.424019 0.960136
vt 0.954700 0.160161
vt 0.870698 0.797925
vt 0.293667 0.946591
vt 0.011826 0.193095
vt 0.390894 0.048728
vt 0.563176 0.181867
vt 0.488861 0.037500
vt 0.686335 0.412462
vt 0.465209 0.218769
vt 0.967430 0.011826
vt 0.626076 0.477785
vt 0.610877 0.752646
vt 0.447747 0.626726
vt 0.955889 0.779117
vt 0.114543 0.139686
vt 0.447747 0.895722
vt 0.880795 0.242421
vt 0.338767 0.596813
vt 0.752305 0.832177
vt 0.029020 0.499648
vt 0.447747 0.749388
vt 0.074951 0.125385
vt 0.447747 0.773039
vt 0.447747 0.872070
vt 0.548737 0.522117
vt 0.562131 0.557932
vt 0.649728 0.972020
vt 0.943779 0.011826
vt 0.668522 0.893095
vt 0.908478 0.212584
vt 0.500170 0.872070
vt 0.969336 0.242421
vt 0.228650 0.956504
vt 0.363541 0.936623
vt 0.895335 0.965603
vt 0.011826 0.957048
vt 0.684794 0.116484
vt 0.526672 0.749388
vt 0.936990 0.965603
vt 0.170180 0.951840
vt 0.848910 0.096601
vt 0.931049 0.160161
s 0
f 36/1/1 26/2/1 37/3/1
f 12/4/1 6/5/1 13/6/1
f 11/7/2 23/8/2 7/9/2
f 7/9/2 13/10/2 11/7/2
f 11/7/2 6/11/2 4/12/2
f 10/13/3 24/14/3 14/15/3
f 8/16/1 13/6/1 9/17/1
f 14/15/3 8/18/3 10/13/3
f 9/19/3 18/19/3 15/19/3
f 24/20/4 23/21/4 19/22/4
f 21/23/4 19/22/4 20/24/4
f 14/15/3 21/25/3 3/26/3
f 4/12/2 19/27/2 11/7/2
f 35/28/5 25/29/5 36/30/5
f 38/31/4 28/32/4 35/33/4
f 42/34/4 35/33/4 40/35/4
f 40/36/3 60/36/3 59/36/3
f 41/37/1 37/3/1 39/38/1
f 45/39/1 39/38/1 43/40/1
f 44/41/5 41/42/5 45/43/5
f 46/44/4 40/35/4 44/45/4
f 50/46/4 44/45/4 48/47/4
f 75/48/3 68/49/3 76/50/3
f 49/51/1 43/40/1 47/52/1
f 53/53/1 47/52/1 51/54/1
f 52/55/5 49/56/5 53/57/5
f 54/58/4 48/47/4 52/59/4
f 58/60/4 52/59/4 56/61/4
f 79/62/1 74/63/1 80/64/1
f 57/65/1 51/54/1 55/66/1
f 12/4/1 55/66/1 5/67/1
f 14/68/5 57/69/5 12/70/5
f 3/71/4 56/61/4 14/72/4
f 35/36/3 62/36/3 60/36/3
f 36/36/3 61/36/3 62/36/3
f 41/36/3 59/36/3 61/36/3
f 61/73/2 66/74/2 63/75/2
f 60/76/6 66/77/6 59/78/6
f 62/79/3 65/80/3 60/81/3
f 61/82/1 64/83/1 62/84/1
f 67/85/5 70/86/5 69/87/5
f 91/88/3 85/89/3 92/90/3
f 77/91/2 69/92/2 78/93/2
f 78/94/1 70/95/1 75/96/1
f 71/97/5 74/98/5 73/99/5
f 80/100/3 72/101/3 81/102/3
f 95/103/3 89/104/3 96/105/3
f 82/106/2 73/107/2 79/108/2
f 49/51/1 75/96/1 45/39/1
f 48/109/2 78/93/2 49/110/2
f 44/45/4 77/111/4 48/47/4
f 45/112/3 76/50/3 44/113/3
f 56/114/2 79/108/2 57/115/2
f 52/59/4 82/116/4 56/61/4
f 53/117/3 81/102/3 52/118/3
f 57/65/1 80/64/1 53/53/1
f 85/119/4 83/120/4 86/121/4
f 93/122/5 84/123/5 91/124/5
f 86/121/4 99/125/4 85/119/4
f 94/126/2 83/127/2 93/128/2
f 89/129/4 87/130/4 90/131/4
f 89/104/3 105/132/3 96/105/3
f 97/133/2 87/134/2 98/135/2
f 98/136/5 88/137/5 95/138/5
f 77/91/2 93/128/2 67/139/2
f 76/140/7 94/141/7 77/142/7
f 67/85/5 91/124/5 68/143/5
f 68/49/3 92/90/3 76/50/3
f 71/97/5 95/138/5 72/144/5
f 82/106/2 98/135/2 71/145/2
f 81/146/7 97/147/7 82/148/7
f 72/101/3 96/105/3 81/102/3
f 101/149/7 100/150/7 102/151/7
f 92/152/1 102/153/1 94/154/1
f 94/126/2 100/155/2 86/156/2
f 85/89/3 101/157/3 92/90/3
f 105/158/7 104/159/7 106/160/7
f 96/161/1 106/162/1 97/163/1
f 97/133/2 104/164/2 90/165/2
f 90/131/4 103/166/4 89/129/4
f 132/167/1 142/168/1 143/169/1
f 112/170/1 118/171/1 119/172/1
f 129/173/2 117/174/2 113/175/2
f 119/176/2 113/175/2 117/174/2
f 112/177/2 117/174/2 110/178/2
f 130/179/3 116/180/3 120/181/3
f 119/172/1 114/182/1 115/183/1
f 114/184/3 120/181/3 116/180/3
f 115/185/3 124/185/3 113/185/3
f 129/186/4 130/187/4 125/188/4
f 125/188/4 127/189/4 126/190/4
f 127/191/3 120/181/3 109/192/3
f 125/193/2 110/178/2 117/174/2
f 131/194/7 141/195/7 142/196/7
f 134/197/4 144/198/4 141/199/4
f 141/199/4 148/200/4 146/201/4
f 146/202/3 166/202/3 141/202/3
f 143/169/1 147/203/1 145/204/1
f 145/204/1 151/205/1 149/206/1
f 147/207/7 150/208/7 151/209/7
f 146/201/4 152/210/4 150/211/4
f 150/211/4 156/212/4 154/213/4
f 174/214/3 181/215/3 182/216/3
f 149/206/1 155/217/1 153/218/1
f 153/218/1 159/219/1 157/220/1
f 155/221/7 158/222/7 159/223/7
f 154/213/4 160/224/4 158/225/4
f 158/225/4 164/226/4 162/227/4
f 180/228/1 185/229/1 186/230/1
f 157/220/1 163/231/1 161/232/1
f 161/232/1 118/171/1 111/233/1
f 163/234/7 120/235/7 118/236/7
f 162/227/4 109/237/4 120/238/4
f 141/202/3 168/202/3 142/202/3
f 142/202/3 167/202/3 147/202/3
f 147/202/3 165/202/3 146/202/3
f 167/239/2 172/240/2 165/241/2
f 172/242/8 166/243/8 165/244/8
f 171/245/3 168/246/3 166/247/3
f 170/248/1 167/249/1 168/250/1
f 176/251/7 173/252/7 175/253/7
f 191/254/3 197/255/3 198/256/3
f 175/257/2 183/258/2 184/259/2
f 176/260/1 184/261/1 181/262/1
f 180/263/7 177/264/7 179/265/7
f 178/266/3 186/267/3 187/268/3
f 195/269/3 201/270/3 202/271/3
f 179/272/2 188/273/2 185/274/2
f 181/262/1 155/217/1 151/205/1
f 184/259/2 154/275/2 155/276/2
f 183/277/4 150/211/4 154/213/4
f 182/216/3 151/278/3 150/279/3
f 185/274/2 162/280/2 163/281/2
f 188/282/4 158/225/4 162/227/4
f 187/268/3 159/283/3 158/284/3
f 186/230/1 163/231/1 159/219/1
f 189/285/4 191/286/4 192/287/4
f 190/288/7 199/289/7 197/290/7
f 205/291/4 192/287/4 191/286/4
f 189/292/2 200/293/2 199/294/2
f 193/295/4 195/296/4 196/297/4
f 211/298/3 195/269/3 202/271/3
f 193/299/2 203/300/2 204/301/2
f 194/302/7 204/303/7 201/304/7
f 199/294/2 183/258/2 173/305/2
f 200/306/5 182/307/5 183/308/5
f 197/290/7 173/252/7 174/309/7
f 198/256/3 174/214/3 182/216/3
f 201/304/7 177/264/7 178/310/7
f 204/301/2 188/273/2 177/311/2
f 203/312/5 187/313/5 188/314/5
f 202/271/3 178/266/3 187/268/3
f 206/315/5 207/316/5 208/317/5
f 208/318/1 198/319/1 200/320/1
f 206/321/2 200/293/2 192/322/2
f 207/323/3 191/254/3 198/256/3
f 210/324/5 211/325/5 212/326/5
f 212/327/1 202/328/1 203/329/1
f 210/330/2 203/300/2 196/331/2
f 209/332/4 196/297/4 195/296/4
f 36/1/1 25/333/1 26/2/1
f 12/4/1 5/67/1 6/5/1
f 11/7/2 19/27/2 23/8/2
f 7/9/2 9/334/2 13/10/2
f 11/7/2 13/10/2 6/11/2
f 10/13/3 22/335/3 24/14/3
f 8/16/1 12/4/1 13/6/1
f 14/15/3 12/336/3 8/18/3
f 9/19/3 7/19/3 18/19/3
f 24/20/4 22/337/4 23/21/4
f 21/23/4 24/20/4 19/22/4
f 14/15/3 24/14/3 21/25/3
f 4/12/2 20/338/2 19/27/2
f 35/28/5 28/339/5 25/29/5
f 38/31/4 27/340/4 28/32/4
f 42/34/4 38/31/4 35/33/4
f 40/36/3 35/36/3 60/36/3
f 41/37/1 36/1/1 37/3/1
f 45/39/1 41/37/1 39/38/1
f 44/41/5 40/341/5 41/42/5
f 46/44/4 42/34/4 40/35/4
f 50/46/4 46/44/4 44/45/4
f 75/48/3 70/342/3 68/49/3
f 49/51/1 45/39/1 43/40/1
f 53/53/1 49/51/1 47/52/1
f 52/55/5 48/343/5 49/56/5
f 54/58/4 50/46/4 48/47/4
f 58/60/4 54/58/4 52/59/4
f 79/62/1 73/344/1 74/63/1
f 57/65/1 53/53/1 51/54/1
f 12/4/1 57/65/1 55/66/1
f 14/68/5 56/345/5 57/69/5
f 3/71/4 58/60/4 56/61/4
f 35/36/3 36/36/3 62/36/3
f 36/36/3 41/36/3 61/36/3
f 41/36/3 40/36/3 59/36/3
f 61/73/2 59/346/2 66/74/2
f 60/76/6 65/347/6 66/77/6
f 62/79/3 64/348/3 65/80/3
f 61/82/1 63/349/1 64/83/1
f 67/85/5 68/143/5 70/86/5
f 91/88/3 84/350/3 85/89/3
f 77/91/2 67/139/2 69/92/2
f 78/94/1 69/351/1 70/95/1
f 71/97/5 72/144/5 74/98/5
f 80/100/3 74/352/3 72/101/3
f 95/103/3 88/353/3 89/104/3
f 82/106/2 71/145/2 73/107/2
f 49/51/1 78/94/1 75/96/1
f 48/109/2 77/91/2 78/93/2
f 44/45/4 76/354/4 77/111/4
f 45/112/3 75/48/3 76/50/3
f 56/114/2 82/106/2 79/108/2
f 52/59/4 81/355/4 82/116/4
f 53/117/3 80/100/3 81/102/3
f 57/65/1 79/62/1 80/64/1
f 85/119/4 84/356/4 83/120/4
f 93/122/5 83/357/5 84/123/5
f 86/121/4 100/358/4 99/125/4
f 94/126/2 86/156/2 83/127/2
f 89/129/4 88/359/4 87/130/4
f 89/104/3 103/360/3 105/132/3
f 97/133/2 90/165/2 87/134/2
f 98/136/5 87/361/5 88/137/5
f 77/91/2 94/126/2 93/128/2
f 76/140/7 92/362/7 94/141/7
f 67/85/5 93/122/5 91/124/5
f 68/49/3 91/88/3 92/90/3
f 71/97/5 98/136/5 95/138/5
f 82/106/2 97/133/2 98/135/2
f 81/146/7 96/363/7 97/147/7
f 72/101/3 95/103/3 96/105/3
f 101/149/7 99/364/7 100/150/7
f 92/152/1 101/365/1 102/153/1
f 94/126/2 102/366/2 100/155/2
f 85/89/3 99/367/3 101/157/3
f 105/158/7 103/368/7 104/159/7
f 96/161/1 105/369/1 106/162/1
f 97/133/2 106/370/2 104/164/2
f 90/131/4 104/371/4 103/166/4
f 132/167/1 131/372/1 142/168/1
f 112/170/1 111/233/1 118/171/1
f 129/173/2 125/193/2 117/174/2
f 119/176/2 115/373/2 113/175/2
f 112/177/2 119/176/2 117/174/2
f 130/179/3 128/374/3 116/180/3
f 119/172/1 118/171/1 114/182/1
f 114/184/3 118/375/3 120/181/3
f 115/185/3 121/185/3 124/185/3
f 129/186/4 128/376/4 130/187/4
f 125/188/4 130/187/4 127/189/4
f 127/191/3 130/179/3 120/181/3
f 125/193/2 126/377/2 110/178/2
f 131/194/7 134/378/7 141/195/7
f 134/197/4 133/379/4 144/198/4
f 141/199/4 144/198/4 148/200/4
f 146/202/3 165/202/3 166/202/3
f 143/169/1 142/168/1 147/203/1
f 145/204/1 147/203/1 151/205/1
f 147/207/7 146/380/7 150/208/7
f 146/201/4 148/200/4 152/210/4
f 150/211/4 152/210/4 156/212/4
f 174/214/3 176/381/3 181/215/3
f 149/206/1 151/205/1 155/217/1
f 153/218/1 155/217/1 159/219/1
f 155/221/7 154/382/7 158/222/7
f 154/213/4 156/212/4 160/224/4
f 158/225/4 160/224/4 164/226/4
f 180/228/1 179/383/1 185/229/1
f 157/220/1 159/219/1 163/231/1
f 161/232/1 163/231/1 118/171/1
f 163/234/7 162/384/7 120/235/7
f 162/227/4 164/226/4 109/237/4
f 141/202/3 166/202/3 168/202/3
f 142/202/3 168/202/3 167/202/3
f 147/202/3 167/202/3 165/202/3
f 167/239/2 169/385/2 172/240/2
f 172/242/8 171/386/8 166/243/8
f 171/245/3 170/387/3 168/246/3
f 170/248/1 169/388/1 167/249/1
f 176/251/7 174/309/7 173/252/7
f 191/254/3 190/389/3 197/255/3
f 175/257/2 173/305/2 183/258/2
f 176/260/1 175/390/1 184/261/1
f 180/263/7 178/310/7 177/264/7
f 178/266/3 180/391/3 186/267/3
f 195/269/3 194/392/3 201/270/3
f 179/272/2 177/311/2 188/273/2
f 181/262/1 184/261/1 155/217/1
f 184/259/2 183/258/2 154/275/2
f 183/277/4 182/393/4 150/211/4
f 182/216/3 181/215/3 151/278/3
f 185/274/2 188/273/2 162/280/2
f 188/282/4 187/394/4 158/225/4
f 187/268/3 186/267/3 159/283/3
f 186/230/1 185/229/1 163/231/1
f 189/285/4 190/395/4 191/286/4
f 190/288/7 189/396/7 199/289/7
f 205/291/4 206/397/4 192/287/4
f 189/292/2 192/322/2 200/293/2
f 193/295/4 194/398/4 195/296/4
f 211/298/3 209/399/3 195/269/3
f 193/299/2 196/331/2 203/300/2
f 194/302/7 193/400/7 204/303/7
f 199/294/2 200/293/2 183/258/2
f 200/306/5 198/401/5 182/307/5
f 197/290/7 199/289/7 173/252/7
f 198/256/3 197/255/3 174/214/3
f 201/304/7 204/303/7 177/264/7
f 204/301/2 203/300/2 188/273/2
f 203/312/5 202/402/5 187/313/5
f 202/271/3 201/270/3 178/266/3
f 206/315/5 205/403/5 207/316/5
f 208/318/1 207/404/1 198/319/1
f 206/321/2 208/405/2 200/293/2
f 207/323/3 205/406/3 191/254/3
f 210/324/5 209/407/5 211/325/5
f 212/327/1 211/408/1 202/328/1
f 210/330/2 212/409/2 203/300/2
f 209/332/4 210/410/4 196/297/4
l 2 16
l 17 1
l 29 26
l 108 122
l 123 107
l 135 132
