# Blender 4.2.3 LTS
# www.blender.org
o Cube.001
v 0.442025 0.438102 0.855427
v 0.442025 0.438102 1.008351
v 0.442025 0.591026 0.855427
v 0.442025 0.591026 1.008351
v 0.594949 0.438102 0.855427
v 0.594949 0.438102 1.008351
v 0.594949 0.591026 0.855427
v 0.594949 0.591026 1.008351
v 0.662323 0.583703 0.847394
v 0.662323 0.583703 0.344529
v 0.662323 0.462113 0.847394
v 0.662323 0.462113 0.344529
v 0.364703 0.583703 0.847394
v 0.364703 0.583703 0.344529
v 0.364703 0.462113 0.847394
v 0.364703 0.462113 0.344529
v 0.363222 0.461795 0.010968
v 0.363222 0.461795 0.328702
v 0.363222 0.586459 0.010968
v 0.363222 0.586459 0.328702
v 0.487886 0.461795 0.010968
v 0.487886 0.461795 0.328702
v 0.487886 0.586459 0.010968
v 0.487886 0.586459 0.328702
v 0.530515 0.460869 0.007453
v 0.530515 0.460869 0.325186
v 0.530515 0.585533 0.007453
v 0.530515 0.585533 0.325186
v 0.655180 0.460869 0.007453
v 0.655180 0.460869 0.325186
v 0.655180 0.585533 0.007453
v 0.655180 0.585533 0.325186
v 0.291616 0.489769 0.536803
v 0.291616 0.489769 0.833568
v 0.291616 0.550575 0.536803
v 0.291616 0.550575 0.833568
v 0.352422 0.489769 0.536803
v 0.352422 0.489769 0.833568
v 0.352422 0.550575 0.536803
v 0.352422 0.550575 0.833568
v 0.675292 0.489769 0.536803
v 0.675292 0.489769 0.833568
v 0.675292 0.550575 0.536803
v 0.675292 0.550575 0.833568
v 0.736098 0.489769 0.536803
v 0.736098 0.489769 0.833568
v 0.736098 0.550575 0.536803
v 0.736098 0.550575 0.833568
vn -1.0000 -0.0000 -0.0000
vn -0.0000 1.0000 -0.0000
vn 1.0000 -0.0000 -0.0000
vn -0.0000 -1.0000 -0.0000
vn -0.0000 -0.0000 -1.0000
vn -0.0000 -0.0000 1.0000
vt 0.004814 0.808472
vt 0.128031 0.685256
vt 0.128031 0.808472
vt 0.137659 0.808472
vt 0.260876 0.685256
vt 0.260876 0.808472
vt 0.270504 0.808472
vt 0.393720 0.685256
vt 0.393720 0.808472
vt 0.403349 0.808472
vt 0.526565 0.685256
vt 0.526565 0.808472
vt 0.659410 0.808472
vt 0.536194 0.685256
vt 0.659410 0.685256
vt 0.842089 0.393668
vt 0.718872 0.270452
vt 0.842089 0.270452
vt 0.873309 0.659421
vt 0.775340 0.419618
vt 0.873309 0.419618
vt 0.004814 0.004814
vt 0.244617 0.409990
vt 0.004814 0.409990
vt 0.503678 0.004814
vt 0.601647 0.409990
vt 0.503678 0.409990
vt 0.873309 0.908853
vt 0.775340 0.669050
vt 0.873309 0.669050
vt 0.611275 0.004814
vt 0.709244 0.409990
vt 0.611275 0.409990
vt 0.254246 0.004814
vt 0.494049 0.409990
vt 0.254246 0.409990
vt 0.004814 0.419618
vt 0.105261 0.675628
vt 0.004814 0.675628
vt 0.224964 0.419618
vt 0.325411 0.675628
vt 0.224964 0.675628
vt 0.114889 0.419618
vt 0.215336 0.675628
vt 0.114889 0.675628
vt 0.335039 0.419618
vt 0.435486 0.675628
vt 0.335039 0.675628
vt 0.004814 0.918548
vt 0.105261 0.818101
vt 0.105261 0.918548
vt 0.114889 0.918548
vt 0.215336 0.818101
vt 0.215336 0.918548
vt 0.445115 0.419618
vt 0.545561 0.675627
vt 0.445115 0.675627
vt 0.555190 0.419618
vt 0.655636 0.675627
vt 0.555190 0.675627
vt 0.665265 0.419618
vt 0.765711 0.675627
vt 0.665265 0.675627
vt 0.718872 0.004814
vt 0.819319 0.260824
vt 0.718872 0.260824
vt 0.224964 0.918548
vt 0.325411 0.818101
vt 0.325411 0.918548
vt 0.335039 0.918548
vt 0.435486 0.818101
vt 0.435486 0.918548
vt 0.828948 0.004814
vt 0.877941 0.243928
vt 0.828948 0.243928
vt 0.887570 0.004814
vt 0.936564 0.243928
vt 0.887570 0.243928
vt 0.669039 0.685256
vt 0.718032 0.924370
vt 0.669039 0.924370
vt 0.941559 0.419618
vt 0.990553 0.658732
vt 0.941559 0.658732
vt 0.445115 0.867095
vt 0.494108 0.818101
vt 0.494108 0.867095
vt 0.503737 0.867095
vt 0.552731 0.818101
vt 0.552731 0.867095
vt 0.882937 0.419618
vt 0.931931 0.658732
vt 0.882937 0.658732
vt 0.941559 0.668361
vt 0.990553 0.907475
vt 0.941559 0.907475
vt 0.882937 0.669050
vt 0.931931 0.908164
vt 0.882937 0.908164
vt 0.946192 0.004814
vt 0.995186 0.243928
vt 0.946192 0.243928
vt 0.562359 0.867095
vt 0.611353 0.818101
vt 0.611353 0.867095
vt 0.851717 0.319446
vt 0.900711 0.270452
vt 0.900711 0.319446
vt 0.004814 0.685256
vt 0.137659 0.685256
vt 0.270504 0.685256
vt 0.403349 0.685256
vt 0.536194 0.808472
vt 0.718872 0.393668
vt 0.775340 0.659421
vt 0.244617 0.004814
vt 0.601647 0.004814
vt 0.775340 0.908853
vt 0.709244 0.004814
vt 0.494049 0.004814
vt 0.105261 0.419618
vt 0.325411 0.419618
vt 0.215336 0.419618
vt 0.435486 0.419618
vt 0.004814 0.818101
vt 0.114889 0.818101
vt 0.545561 0.419618
vt 0.655636 0.419618
vt 0.765711 0.419618
vt 0.819319 0.004814
vt 0.224964 0.818101
vt 0.335039 0.818101
vt 0.877941 0.004814
vt 0.936564 0.004814
vt 0.718032 0.685256
vt 0.990553 0.419618
vt 0.445115 0.818101
vt 0.503737 0.818101
vt 0.931931 0.419618
vt 0.990553 0.668361
vt 0.931931 0.669050
vt 0.995186 0.004814
vt 0.562359 0.818101
vt 0.851717 0.270452
s 0
f 2/1/1 3/2/1 1/3/1
f 4/4/2 7/5/2 3/6/2
f 8/7/3 5/8/3 7/9/3
f 6/10/4 1/11/4 5/12/4
f 7/13/5 1/14/5 3/15/5
f 4/16/6 6/17/6 8/18/6
f 13/19/6 11/20/6 9/21/6
f 11/22/4 16/23/4 12/24/4
f 15/25/1 14/26/1 16/27/1
f 10/28/5 16/29/5 14/30/5
f 9/31/3 12/32/3 10/33/3
f 13/34/2 10/35/2 14/36/2
f 18/37/1 19/38/1 17/39/1
f 20/40/2 23/41/2 19/42/2
f 24/43/3 21/44/3 23/45/3
f 22/46/4 17/47/4 21/48/4
f 23/49/5 17/50/5 19/51/5
f 20/52/6 22/53/6 24/54/6
f 26/55/1 27/56/1 25/57/1
f 28/58/2 31/59/2 27/60/2
f 32/61/3 29/62/3 31/63/3
f 30/64/4 25/65/4 29/66/4
f 31/67/5 25/68/5 27/69/5
f 28/70/6 30/71/6 32/72/6
f 34/73/1 35/74/1 33/75/1
f 36/76/2 39/77/2 35/78/2
f 40/79/3 37/80/3 39/81/3
f 38/82/4 33/83/4 37/84/4
f 39/85/5 33/86/5 35/87/5
f 36/88/6 38/89/6 40/90/6
f 42/91/1 43/92/1 41/93/1
f 44/94/2 47/95/2 43/96/2
f 48/97/3 45/98/3 47/99/3
f 46/100/4 41/101/4 45/102/4
f 47/103/5 41/104/5 43/105/5
f 44/106/6 46/107/6 48/108/6
f 2/1/1 4/109/1 3/2/1
f 4/4/2 8/110/2 7/5/2
f 8/7/3 6/111/3 5/8/3
f 6/10/4 2/112/4 1/11/4
f 7/13/5 5/113/5 1/14/5
f 4/16/6 2/114/6 6/17/6
f 13/19/6 15/115/6 11/20/6
f 11/22/4 15/116/4 16/23/4
f 15/25/1 13/117/1 14/26/1
f 10/28/5 12/118/5 16/29/5
f 9/31/3 11/119/3 12/32/3
f 13/34/2 9/120/2 10/35/2
f 18/37/1 20/121/1 19/38/1
f 20/40/2 24/122/2 23/41/2
f 24/43/3 22/123/3 21/44/3
f 22/46/4 18/124/4 17/47/4
f 23/49/5 21/125/5 17/50/5
f 20/52/6 18/126/6 22/53/6
f 26/55/1 28/127/1 27/56/1
f 28/58/2 32/128/2 31/59/2
f 32/61/3 30/129/3 29/62/3
f 30/64/4 26/130/4 25/65/4
f 31/67/5 29/131/5 25/68/5
f 28/70/6 26/132/6 30/71/6
f 34/73/1 36/133/1 35/74/1
f 36/76/2 40/134/2 39/77/2
f 40/79/3 38/135/3 37/80/3
f 38/82/4 34/136/4 33/83/4
f 39/85/5 37/137/5 33/86/5
f 36/88/6 34/138/6 38/89/6
f 42/91/1 44/139/1 43/92/1
f 44/94/2 48/140/2 47/95/2
f 48/97/3 46/141/3 45/98/3
f 46/100/4 42/142/4 41/101/4
f 47/103/5 45/143/5 41/104/5
f 44/106/6 42/144/6 46/107/6
