# Blender 4.2.3 LTS
# www.blender.org
o Cube.005
v 0.006795 0.350749 0.532008
v 0.006795 0.350749 0.862885
v 0.006795 0.574489 0.532008
v 0.006795 0.574489 0.862885
v 0.193724 0.350749 0.532008
v 0.193724 0.350749 0.862885
v 0.193724 0.574489 0.532008
v 0.193724 0.574489 0.862885
vn -1.0000 -0.0000 -0.0000
vn -0.0000 1.0000 -0.0000
vn 1.0000 -0.0000 -0.0000
vn -0.0000 -1.0000 -0.0000
vn -0.0000 -0.0000 -1.0000
vn -0.0000 -0.0000 1.0000
vt 0.500000 0.187500
vt 0.562500 -0.000000
vt 0.500000 0.000000
vt 0.562500 0.187500
vt 0.625000 0.000000
vt 0.687500 0.187500
vt 0.687500 0.000000
vt 0.750000 0.187500
vt 0.750000 -0.000000
vt 0.687500 0.250000
vt 0.625000 0.187500
vt 0.625000 0.250000
vt 0.562500 0.250000
s 0
f 2/1/1 3/2/1 1/3/1
f 4/4/2 7/5/2 3/2/2
f 8/6/3 5/5/3 7/7/3
f 6/8/4 1/7/4 5/9/4
f 7/10/5 1/11/5 3/12/5
f 4/13/6 6/11/6 8/12/6
f 2/1/1 4/4/1 3/2/1
f 4/4/2 8/11/2 7/5/2
f 8/6/3 6/11/3 5/5/3
f 6/8/4 2/6/4 1/7/4
f 7/10/5 5/6/5 1/11/5
f 4/13/6 2/4/6 6/11/6
