# Blender 4.2.3 LTS
# www.blender.org
o Head
v 0.088036 -0.014736 0.689308
v 0.088036 -0.014736 0.946235
v 0.088036 0.242191 0.689308
v 0.088036 0.242191 0.946235
v 0.416476 -0.014736 0.689308
v 0.416476 -0.014736 0.946235
v 0.416476 0.242191 0.689308
v 0.416476 0.242191 0.946235
v 0.450895 0.199999 0.945163
v 0.450895 0.199999 0.880029
v 0.450895 0.134865 0.880029
v 0.450895 0.134865 0.945163
v 0.503195 0.184208 0.945163
v 0.537656 0.177750 0.937052
v 0.537656 0.139623 0.937052
v 0.503195 0.146081 0.945163
v 0.522318 0.151312 0.985003
v 0.538310 0.148315 0.981239
v 0.538310 0.130621 0.981239
v 0.522318 0.133618 0.985003
v 0.450366 0.465003 0.749204
v 0.450366 0.465003 0.352985
v 0.450366 0.068783 0.749204
v 0.450366 0.068783 0.352985
v 0.054146 0.465003 0.749204
v 0.054146 0.465003 0.352985
v 0.054146 0.068783 0.749204
v 0.054146 0.068783 0.352985
v 0.450366 0.812001 0.352985
v 0.054146 0.812001 0.352985
v 0.450366 0.812001 0.749204
v 0.054146 0.812001 0.749204
v 0.327690 0.092297 -0.008786
v 0.327690 0.092297 0.357795
v 0.327690 0.207346 -0.008786
v 0.327690 0.207346 0.357795
v 0.442738 0.092297 -0.008786
v 0.442738 0.092297 0.357795
v 0.442738 0.207346 -0.008786
v 0.442738 0.207346 0.357795
v 0.065587 0.092297 -0.008786
v 0.065587 0.092297 0.357795
v 0.065587 0.207346 -0.008786
v 0.065587 0.207346 0.357795
v 0.180635 0.092297 -0.008786
v 0.180635 0.092297 0.357795
v 0.180635 0.207346 -0.008786
v 0.180635 0.207346 0.357795
v 0.069181 0.699170 -0.009162
v 0.069181 0.699170 0.357419
v 0.069181 0.814218 -0.009162
v 0.069181 0.814218 0.357419
v 0.184230 0.699170 -0.009162
v 0.184230 0.699170 0.357419
v 0.184230 0.814218 -0.009162
v 0.184230 0.814218 0.357419
v 0.323398 0.694915 -0.011329
v 0.323398 0.694915 0.355252
v 0.323398 0.809963 -0.011329
v 0.323398 0.809963 0.355252
v 0.438447 0.694915 -0.011329
v 0.438447 0.694915 0.355252
v 0.438447 0.809963 -0.011329
v 0.438447 0.809963 0.355252
v 0.416476 -0.014736 0.689308
v 0.416476 -0.014736 0.946235
v 0.416476 0.242191 0.689308
v 0.416476 0.242191 0.946235
v 0.088036 -0.014736 0.689308
v 0.088036 -0.014736 0.946235
v 0.088036 0.242191 0.689308
v 0.088036 0.242191 0.946235
v 0.053617 0.199999 0.945163
v 0.053617 0.199999 0.880029
v 0.053617 0.134865 0.880029
v 0.053617 0.134865 0.945163
v 0.001317 0.184208 0.945163
v -0.033144 0.177750 0.937052
v -0.033144 0.139623 0.937052
v 0.001317 0.146081 0.945163
v -0.017806 0.151312 0.985003
v -0.033798 0.148315 0.981239
v -0.033798 0.130621 0.981239
v -0.017806 0.133618 0.985003
v 0.054146 0.465003 0.749204
v 0.054146 0.465003 0.352985
v 0.054146 0.068783 0.749204
v 0.054146 0.068783 0.352985
v 0.450366 0.465003 0.749204
v 0.450366 0.465003 0.352985
v 0.450366 0.068783 0.749204
v 0.450366 0.068783 0.352985
v 0.054146 0.812001 0.352985
v 0.450366 0.812001 0.352985
v 0.054146 0.812001 0.749204
v 0.450366 0.812001 0.749204
v 0.176822 0.092297 -0.008786
v 0.176822 0.092297 0.357795
v 0.176822 0.207346 -0.008786
v 0.176822 0.207346 0.357795
v 0.061774 0.092297 -0.008786
v 0.061774 0.092297 0.357795
v 0.061774 0.207346 -0.008786
v 0.061774 0.207346 0.357795
v 0.438925 0.092297 -0.008786
v 0.438925 0.092297 0.357795
v 0.438925 0.207346 -0.008786
v 0.438925 0.207346 0.357795
v 0.323877 0.092297 -0.008786
v 0.323877 0.092297 0.357795
v 0.323877 0.207346 -0.008786
v 0.323877 0.207346 0.357795
v 0.435331 0.699170 -0.009162
v 0.435331 0.699170 0.357419
v 0.435331 0.814218 -0.009162
v 0.435331 0.814218 0.357419
v 0.320282 0.699170 -0.009162
v 0.320282 0.699170 0.357419
v 0.320282 0.814218 -0.009162
v 0.320282 0.814218 0.357419
v 0.181114 0.694915 -0.011329
v 0.181114 0.694915 0.355252
v 0.181114 0.809963 -0.011329
v 0.181114 0.809963 0.355252
v 0.066065 0.694915 -0.011329
v 0.066065 0.694915 0.355252
v 0.066065 0.809963 -0.011329
v 0.066065 0.809963 0.355252
vn -1.0000 -0.0000 -0.0000
vn -0.0000 1.0000 -0.0000
vn 0.0311 -0.0000 0.9995
vn -0.0000 -1.0000 -0.0000
vn -0.0000 -0.0000 -1.0000
vn -0.0000 -0.0000 1.0000
vn 0.2097 -0.9778 -0.0000
vn 0.7749 0.6321 -0.0000
vn 0.9745 -0.2242 -0.0000
vn 0.9841 -0.0000 -0.1776
vn -0.9015 -0.0000 0.4327
vn 0.5492 -0.0000 -0.8357
vn 0.2008 0.9767 0.0755
vn 0.2291 -0.0000 0.9734
vn 0.2751 0.8020 0.5302
vn -0.2241 -0.9556 -0.1913
vn 0.9999 -0.0000 -0.0148
vn 1.0000 -0.0000 -0.0000
vn -0.0311 -0.0000 0.9995
vn -0.2097 -0.9778 -0.0000
vn -0.7749 0.6321 -0.0000
vn -0.9745 -0.2242 -0.0000
vn -0.9841 -0.0000 -0.1776
vn 0.9015 -0.0000 0.4327
vn -0.5492 -0.0000 -0.8357
vn -0.2890 0.9573 -0.0000
vn -0.2291 -0.0000 0.9734
vn -0.2751 0.8020 0.5302
vn 0.2241 -0.9556 -0.1913
vn -0.9999 -0.0000 -0.0148
vn -0.1184 -0.9583 0.2601
vn 0.2890 0.9573 -0.0000
vn 0.1184 -0.9583 0.2601
vn -0.2008 0.9767 0.0755
vt 0.656723 0.765970
vt 0.791192 0.631300
vt 0.791192 0.765970
vt 0.139506 0.621429
vt 0.004837 0.793495
vt 0.004837 0.621452
vt 0.656723 0.576172
vt 0.712979 0.594221
vt 0.678839 0.594221
vt 0.656787 0.358787
vt 0.791452 0.186691
vt 0.791452 0.358811
vt 0.791458 0.176992
vt 0.656787 0.004837
vt 0.791458 0.004837
vt 0.656723 0.404076
vt 0.791394 0.576172
vt 0.909374 0.142279
vt 0.922861 0.100754
vt 0.937901 0.123526
vt 0.439502 0.756093
vt 0.473809 0.734454
vt 0.574141 0.756165
vt 0.439502 0.621465
vt 0.473809 0.700324
vt 0.439676 0.700306
vt 0.574141 0.621537
vt 0.405963 0.894043
vt 0.421525 0.879100
vt 0.421525 0.906582
vt 0.396289 0.918758
vt 0.373810 0.873281
vt 0.393795 0.873281
vt 0.687115 0.621625
vt 0.899700 0.143038
vt 0.886217 0.101168
vt 0.899700 0.088266
vt 0.665218 0.377760
vt 0.656787 0.370056
vt 0.665218 0.368485
vt 0.874478 0.080802
vt 0.880734 0.074815
vt 0.909374 0.087926
vt 0.934782 0.080767
vt 0.820708 0.168432
vt 0.811624 0.146644
vt 0.820708 0.144793
vt 0.439502 0.212519
vt 0.647113 0.004837
vt 0.647113 0.212519
vt 0.004837 0.611716
vt 0.212510 0.404114
vt 0.212510 0.611755
vt 0.222193 0.793630
vt 0.429565 0.585947
vt 0.429565 0.793630
vt 0.004837 0.212519
vt 0.212519 0.004837
vt 0.212519 0.212519
vt 0.222193 0.212454
vt 0.429828 0.004949
vt 0.429828 0.212566
vt 0.222193 0.585947
vt 0.429565 0.404065
vt 0.439502 0.404076
vt 0.647049 0.611791
vt 0.439502 0.611755
vt 0.004837 0.394401
vt 0.439502 0.394401
vt 0.222193 0.394280
vt 0.074815 0.803169
vt 0.135118 0.995028
vt 0.074815 0.995028
vt 0.439502 0.765840
vt 0.499766 0.957994
vt 0.439502 0.957984
vt 0.871034 0.404108
vt 0.931318 0.596178
vt 0.871034 0.596210
vt 0.149180 0.621440
vt 0.209472 0.813567
vt 0.149180 0.813578
vt 0.861436 0.135118
vt 0.801132 0.074815
vt 0.861436 0.074815
vt 0.800866 0.893427
vt 0.861149 0.833123
vt 0.861149 0.893427
vt 0.222193 0.803304
vt 0.282497 0.995163
vt 0.222193 0.995163
vt 0.509440 0.765840
vt 0.569705 0.957994
vt 0.509440 0.957984
vt 0.870832 0.631332
vt 0.931117 0.823402
vt 0.870832 0.823434
vt 0.801068 0.404087
vt 0.861359 0.596214
vt 0.801068 0.596225
vt 0.422452 0.863607
vt 0.362149 0.803304
vt 0.422452 0.803304
vt 0.870824 0.893427
vt 0.931107 0.833123
vt 0.931107 0.893427
vt 0.292171 0.803304
vt 0.352475 0.995163
vt 0.292171 0.995163
vt 0.726662 0.775644
vt 0.786926 0.967799
vt 0.726662 0.967789
vt 0.871085 0.186698
vt 0.931370 0.378768
vt 0.871085 0.378801
vt 0.583815 0.621476
vt 0.644107 0.813603
vt 0.583815 0.813614
vt 0.209484 0.883556
vt 0.149180 0.823252
vt 0.209484 0.823252
vt 0.871110 0.065141
vt 0.931393 0.004837
vt 0.931393 0.065141
vt 0.004837 0.803169
vt 0.065141 0.995028
vt 0.004837 0.995028
vt 0.656723 0.775644
vt 0.716988 0.967799
vt 0.656723 0.967789
vt 0.801126 0.186698
vt 0.861411 0.378768
vt 0.801126 0.378801
vt 0.800866 0.631311
vt 0.861158 0.823438
vt 0.800866 0.823449
vt 0.801132 0.065141
vt 0.861436 0.004837
vt 0.861436 0.065141
vt 0.583815 0.883592
vt 0.644098 0.823289
vt 0.644098 0.883592
vt 0.362149 0.918758
vt 0.871110 0.124378
vt 0.656787 0.379330
vt 0.801132 0.172422
vt 0.656723 0.631299
vt 0.139506 0.793472
vt 0.656787 0.186666
vt 0.656787 0.176992
vt 0.791394 0.404076
vt 0.439676 0.734436
vt 0.414304 0.873281
vt 0.707100 0.621625
vt 0.928523 0.074815
vt 0.439502 0.004837
vt 0.004837 0.404076
vt 0.004837 0.004837
vt 0.222193 0.004837
vt 0.222193 0.404065
vt 0.647049 0.404111
vt 0.212519 0.394401
vt 0.647113 0.394401
vt 0.429828 0.394391
vt 0.135118 0.803169
vt 0.499766 0.765850
vt 0.931318 0.404076
vt 0.209472 0.621429
vt 0.801132 0.135118
vt 0.800866 0.833123
vt 0.282497 0.803304
vt 0.569705 0.765850
vt 0.931117 0.631299
vt 0.861359 0.404076
vt 0.362149 0.863607
vt 0.870824 0.833123
vt 0.352475 0.803304
vt 0.786926 0.775654
vt 0.931370 0.186666
vt 0.644107 0.621465
vt 0.149180 0.883556
vt 0.871110 0.004837
vt 0.065141 0.803169
vt 0.716988 0.775654
vt 0.861411 0.186666
vt 0.861158 0.631299
vt 0.801132 0.004837
vt 0.583815 0.823289
s 0
f 2/1/1 3/2/1 1/3/1
f 4/4/2 7/5/2 3/6/2
f 8/7/3 12/8/3 9/9/3
f 6/10/4 1/11/4 5/12/4
f 7/13/5 1/14/5 3/15/5
f 4/16/6 6/17/6 8/7/6
f 11/18/7 16/19/7 12/20/7
f 8/21/8 10/22/8 7/23/8
f 6/24/9 11/25/9 12/26/9
f 7/23/10 11/25/10 5/27/10
f 16/28/11 17/29/11 13/30/11
f 11/31/12 14/32/12 15/33/12
f 12/8/6 13/34/6 9/9/6
f 10/35/13 13/36/13 14/37/13
f 18/38/14 20/39/14 19/40/14
f 14/37/15 17/41/15 18/42/15
f 15/43/16 20/44/16 16/19/16
f 15/45/17 18/46/17 19/47/17
f 25/48/6 23/49/6 21/50/6
f 23/51/4 28/52/4 24/53/4
f 27/54/1 26/55/1 28/56/1
f 22/57/5 28/58/5 26/59/5
f 21/60/18 24/61/18 22/62/18
f 25/63/1 30/64/1 26/55/1
f 32/65/2 29/66/2 30/67/2
f 26/59/5 29/68/5 22/57/5
f 21/50/6 32/69/6 25/48/6
f 22/62/18 31/70/18 21/60/18
f 34/71/1 35/72/1 33/73/1
f 36/74/2 39/75/2 35/76/2
f 40/77/18 37/78/18 39/79/18
f 38/80/4 33/81/4 37/82/4
f 39/83/5 33/84/5 35/85/5
f 36/86/6 38/87/6 40/88/6
f 42/89/1 43/90/1 41/91/1
f 44/92/2 47/93/2 43/94/2
f 48/95/18 45/96/18 47/97/18
f 46/98/4 41/99/4 45/100/4
f 47/101/5 41/102/5 43/103/5
f 44/104/6 46/105/6 48/106/6
f 50/107/1 51/108/1 49/109/1
f 52/110/2 55/111/2 51/112/2
f 56/113/18 53/114/18 55/115/18
f 54/116/4 49/117/4 53/118/4
f 55/119/5 49/120/5 51/121/5
f 52/122/6 54/123/6 56/124/6
f 58/125/1 59/126/1 57/127/1
f 60/128/2 63/129/2 59/130/2
f 64/131/18 61/132/18 63/133/18
f 62/134/4 57/135/4 61/136/4
f 63/137/5 57/138/5 59/139/5
f 60/140/6 62/141/6 64/142/6
f 67/2/18 66/1/18 65/3/18
f 71/5/2 68/4/2 67/6/2
f 72/7/19 76/8/19 70/17/19
f 65/11/4 70/10/4 69/12/4
f 65/14/5 71/13/5 67/15/5
f 70/17/6 68/16/6 72/7/6
f 80/19/20 75/18/20 76/20/20
f 74/22/21 72/21/21 71/23/21
f 70/24/22 75/25/22 69/27/22
f 75/25/23 71/23/23 69/27/23
f 81/29/24 80/28/24 77/30/24
f 75/31/25 78/32/25 74/143/25
f 77/34/6 76/8/6 73/9/6
f 74/35/26 77/36/26 73/144/26
f 82/38/27 84/39/27 81/145/27
f 78/37/28 81/41/28 77/36/28
f 84/44/29 79/43/29 80/19/29
f 79/45/30 82/46/30 78/146/30
f 87/49/6 89/48/6 85/50/6
f 92/52/4 87/51/4 88/53/4
f 90/55/18 91/54/18 92/56/18
f 92/58/5 86/57/5 90/59/5
f 88/61/1 85/60/1 86/62/1
f 94/64/18 89/63/18 90/55/18
f 93/66/2 96/65/2 94/67/2
f 93/68/5 90/59/5 86/57/5
f 96/69/6 85/50/6 89/48/6
f 95/70/1 86/62/1 85/60/1
f 99/72/18 98/71/18 97/73/18
f 103/75/2 100/74/2 99/76/2
f 101/78/1 104/77/1 103/79/1
f 97/81/4 102/80/4 101/82/4
f 97/84/5 103/83/5 99/85/5
f 102/87/6 100/86/6 104/88/6
f 107/90/18 106/89/18 105/91/18
f 111/93/2 108/92/2 107/94/2
f 109/96/1 112/95/1 111/97/1
f 105/99/4 110/98/4 109/100/4
f 105/102/5 111/101/5 107/103/5
f 110/105/6 108/104/6 112/106/6
f 115/108/18 114/107/18 113/109/18
f 119/111/2 116/110/2 115/112/2
f 117/114/1 120/113/1 119/115/1
f 113/117/4 118/116/4 117/118/4
f 113/120/5 119/119/5 115/121/5
f 118/123/6 116/122/6 120/124/6
f 123/126/18 122/125/18 121/127/18
f 127/129/2 124/128/2 123/130/2
f 125/132/1 128/131/1 127/133/1
f 121/135/4 126/134/4 125/136/4
f 121/138/5 127/137/5 123/139/5
f 126/141/6 124/140/6 128/142/6
f 2/1/1 4/147/1 3/2/1
f 4/4/2 8/148/2 7/5/2
f 8/7/3 6/17/3 12/8/3
f 6/10/4 2/149/4 1/11/4
f 7/13/5 5/150/5 1/14/5
f 4/16/6 2/151/6 6/17/6
f 11/18/31 15/43/31 16/19/31
f 8/21/8 9/152/8 10/22/8
f 6/24/9 5/27/9 11/25/9
f 7/23/10 10/22/10 11/25/10
f 16/28/11 20/153/11 17/29/11
f 11/31/12 10/143/12 14/32/12
f 12/8/6 16/154/6 13/34/6
f 10/35/32 9/144/32 13/36/32
f 18/38/14 17/145/14 20/39/14
f 14/37/15 13/36/15 17/41/15
f 15/43/16 19/155/16 20/44/16
f 15/45/17 14/146/17 18/46/17
f 25/48/6 27/156/6 23/49/6
f 23/51/4 27/157/4 28/52/4
f 27/54/1 25/63/1 26/55/1
f 22/57/5 24/158/5 28/58/5
f 21/60/18 23/159/18 24/61/18
f 25/63/1 32/160/1 30/64/1
f 32/65/2 31/161/2 29/66/2
f 26/59/5 30/162/5 29/68/5
f 21/50/6 31/163/6 32/69/6
f 22/62/18 29/164/18 31/70/18
f 34/71/1 36/165/1 35/72/1
f 36/74/2 40/166/2 39/75/2
f 40/77/18 38/167/18 37/78/18
f 38/80/4 34/168/4 33/81/4
f 39/83/5 37/169/5 33/84/5
f 36/86/6 34/170/6 38/87/6
f 42/89/1 44/171/1 43/90/1
f 44/92/2 48/172/2 47/93/2
f 48/95/18 46/173/18 45/96/18
f 46/98/4 42/174/4 41/99/4
f 47/101/5 45/175/5 41/102/5
f 44/104/6 42/176/6 46/105/6
f 50/107/1 52/177/1 51/108/1
f 52/110/2 56/178/2 55/111/2
f 56/113/18 54/179/18 53/114/18
f 54/116/4 50/180/4 49/117/4
f 55/119/5 53/181/5 49/120/5
f 52/122/6 50/182/6 54/123/6
f 58/125/1 60/183/1 59/126/1
f 60/128/2 64/184/2 63/129/2
f 64/131/18 62/185/18 61/132/18
f 62/134/4 58/186/4 57/135/4
f 63/137/5 61/187/5 57/138/5
f 60/140/6 58/188/6 62/141/6
f 67/2/18 68/147/18 66/1/18
f 71/5/2 72/148/2 68/4/2
f 72/7/19 73/9/19 76/8/19
f 65/11/4 66/149/4 70/10/4
f 65/14/5 69/150/5 71/13/5
f 70/17/6 66/151/6 68/16/6
f 80/19/33 79/43/33 75/18/33
f 74/22/21 73/152/21 72/21/21
f 70/24/22 76/26/22 75/25/22
f 75/25/23 74/22/23 71/23/23
f 81/29/24 84/153/24 80/28/24
f 75/31/25 79/33/25 78/32/25
f 77/34/6 80/154/6 76/8/6
f 74/35/34 78/37/34 77/36/34
f 82/38/27 83/40/27 84/39/27
f 78/37/28 82/42/28 81/41/28
f 84/44/29 83/155/29 79/43/29
f 79/45/30 83/47/30 82/46/30
f 87/49/6 91/156/6 89/48/6
f 92/52/4 91/157/4 87/51/4
f 90/55/18 89/63/18 91/54/18
f 92/58/5 88/158/5 86/57/5
f 88/61/1 87/159/1 85/60/1
f 94/64/18 96/160/18 89/63/18
f 93/66/2 95/161/2 96/65/2
f 93/68/5 94/162/5 90/59/5
f 96/69/6 95/163/6 85/50/6
f 95/70/1 93/164/1 86/62/1
f 99/72/18 100/165/18 98/71/18
f 103/75/2 104/166/2 100/74/2
f 101/78/1 102/167/1 104/77/1
f 97/81/4 98/168/4 102/80/4
f 97/84/5 101/169/5 103/83/5
f 102/87/6 98/170/6 100/86/6
f 107/90/18 108/171/18 106/89/18
f 111/93/2 112/172/2 108/92/2
f 109/96/1 110/173/1 112/95/1
f 105/99/4 106/174/4 110/98/4
f 105/102/5 109/175/5 111/101/5
f 110/105/6 106/176/6 108/104/6
f 115/108/18 116/177/18 114/107/18
f 119/111/2 120/178/2 116/110/2
f 117/114/1 118/179/1 120/113/1
f 113/117/4 114/180/4 118/116/4
f 113/120/5 117/181/5 119/119/5
f 118/123/6 114/182/6 116/122/6
f 123/126/18 124/183/18 122/125/18
f 127/129/2 128/184/2 124/128/2
f 125/132/1 126/185/1 128/131/1
f 121/135/4 122/186/4 126/134/4
f 121/138/5 125/187/5 127/137/5
f 126/141/6 122/188/6 124/140/6
