# Blender 4.2.3 LTS
# www.blender.org
o Cube.005
v 0.227524 0.085845 0.886021
v 0.227524 0.085845 1.000692
v 0.227524 0.190723 0.886021
v 0.227524 0.190723 1.000692
v 0.332402 0.085845 0.886021
v 0.332402 0.085845 1.000692
v 0.332402 0.190723 0.886021
v 0.332402 0.190723 1.000692
v 0.406905 0.192531 0.877760
v 0.406905 0.192531 0.402851
v 0.406905 0.075589 0.877760
v 0.406905 0.075589 0.402851
v 0.149489 0.192531 0.877760
v 0.149489 0.192531 0.402851
v 0.149489 0.075589 0.877760
v 0.149489 0.075589 0.402851
v 0.428075 0.072451 0.482585
v 0.428075 0.072451 0.871569
v 0.428075 0.170573 0.482585
v 0.428075 0.170573 0.871569
v 0.526197 0.072451 0.482585
v 0.526197 0.072451 0.871569
v 0.526197 0.170573 0.482585
v 0.526197 0.170573 0.871569
v 0.039981 0.072451 0.482585
v 0.039981 0.072451 0.871569
v 0.039981 0.170573 0.482585
v 0.039981 0.170573 0.871569
v 0.138103 0.072451 0.482585
v 0.138103 0.072451 0.871569
v 0.138103 0.170573 0.482585
v 0.138103 0.170573 0.871569
v 0.302846 0.072451 -0.003865
v 0.302846 0.072451 0.385119
v 0.302846 0.170573 -0.003865
v 0.302846 0.170573 0.385119
v 0.400968 0.072451 -0.003865
v 0.400968 0.072451 0.385119
v 0.400968 0.170573 -0.003865
v 0.400968 0.170573 0.385119
v 0.152472 0.072451 -0.003865
v 0.152472 0.072451 0.385119
v 0.152472 0.170573 -0.003865
v 0.152472 0.170573 0.385119
v 0.250594 0.072451 -0.003865
v 0.250594 0.072451 0.385119
v 0.250594 0.170573 -0.003865
v 0.250594 0.170573 0.385119
vn -1.0000 -0.0000 -0.0000
vn -0.0000 1.0000 -0.0000
vn 1.0000 -0.0000 -0.0000
vn -0.0000 -1.0000 -0.0000
vn -0.0000 -0.0000 -1.0000
vn -0.0000 -0.0000 1.0000
vt 0.290493 0.693594
vt 0.371835 0.782532
vt 0.290493 0.782532
vt 0.381262 0.693594
vt 0.462604 0.782532
vt 0.381262 0.782532
vt 0.472030 0.693594
vt 0.553373 0.782532
vt 0.472030 0.782532
vt 0.562799 0.693594
vt 0.644142 0.782532
vt 0.562799 0.782532
vt 0.734911 0.774936
vt 0.653568 0.693594
vt 0.734911 0.693594
vt 0.825680 0.774936
vt 0.744337 0.693594
vt 0.825680 0.693594
vt 0.180941 0.893244
vt 0.090242 0.693594
vt 0.180941 0.693594
vt 0.004713 0.004713
vt 0.204363 0.373048
vt 0.004713 0.373048
vt 0.422865 0.004713
vt 0.513564 0.373048
vt 0.422865 0.373048
vt 0.281066 0.893244
vt 0.190367 0.693594
vt 0.281066 0.693594
vt 0.522990 0.004713
vt 0.613689 0.373048
vt 0.522990 0.373048
vt 0.213789 0.004713
vt 0.413439 0.373048
vt 0.213789 0.373048
vt 0.517887 0.382475
vt 0.593990 0.684168
vt 0.517887 0.684168
vt 0.794173 0.004713
vt 0.870276 0.306406
vt 0.794173 0.306406
vt 0.603416 0.382475
vt 0.679519 0.684168
vt 0.603416 0.684168
vt 0.860003 0.382475
vt 0.936106 0.684168
vt 0.860003 0.684168
vt 0.290493 0.868061
vt 0.366595 0.791958
vt 0.366595 0.868061
vt 0.376022 0.868061
vt 0.452124 0.791958
vt 0.452124 0.868061
vt 0.623116 0.004713
vt 0.699218 0.306406
vt 0.623116 0.306406
vt 0.879703 0.004713
vt 0.955805 0.306406
vt 0.879703 0.306406
vt 0.688945 0.382475
vt 0.765048 0.684168
vt 0.688945 0.684168
vt 0.004713 0.693594
vt 0.080816 0.995287
vt 0.004713 0.995287
vt 0.461551 0.868061
vt 0.537653 0.791958
vt 0.537653 0.868061
vt 0.547080 0.868061
vt 0.623182 0.791958
vt 0.623182 0.868061
vt 0.004713 0.382475
vt 0.080816 0.684168
vt 0.004713 0.684168
vt 0.090242 0.382475
vt 0.166345 0.684168
vt 0.090242 0.684168
vt 0.175771 0.382475
vt 0.251874 0.684168
vt 0.175771 0.684168
vt 0.261300 0.382475
vt 0.337403 0.684168
vt 0.261300 0.684168
vt 0.729671 0.860465
vt 0.653568 0.784363
vt 0.729671 0.784363
vt 0.815200 0.860465
vt 0.739097 0.784363
vt 0.815200 0.784363
vt 0.346829 0.382475
vt 0.422932 0.684168
vt 0.346829 0.684168
vt 0.708644 0.004713
vt 0.784747 0.306406
vt 0.708644 0.306406
vt 0.432358 0.382475
vt 0.508461 0.684168
vt 0.432358 0.684168
vt 0.774474 0.382475
vt 0.850577 0.684168
vt 0.774474 0.684168
vt 0.824626 0.860466
vt 0.900729 0.784363
vt 0.900729 0.860466
vt 0.835106 0.769697
vt 0.911209 0.693594
vt 0.911209 0.769697
vt 0.371835 0.693594
vt 0.462604 0.693594
vt 0.553373 0.693594
vt 0.644142 0.693594
vt 0.653568 0.774936
vt 0.744337 0.774936
vt 0.090242 0.893244
vt 0.204363 0.004713
vt 0.513564 0.004713
vt 0.190367 0.893244
vt 0.613689 0.004713
vt 0.413439 0.004713
vt 0.593990 0.382475
vt 0.870276 0.004713
vt 0.679519 0.382475
vt 0.936106 0.382475
vt 0.290493 0.791958
vt 0.376022 0.791958
vt 0.699218 0.004713
vt 0.955805 0.004713
vt 0.765048 0.382475
vt 0.080816 0.693594
vt 0.461551 0.791958
vt 0.547080 0.791958
vt 0.080816 0.382475
vt 0.166345 0.382475
vt 0.251874 0.382475
vt 0.337403 0.382475
vt 0.653568 0.860465
vt 0.739097 0.860465
vt 0.422932 0.382475
vt 0.784747 0.004713
vt 0.508461 0.382475
vt 0.850577 0.382475
vt 0.824626 0.784363
vt 0.835106 0.693594
s 0
f 2/1/1 3/2/1 1/3/1
f 4/4/2 7/5/2 3/6/2
f 8/7/3 5/8/3 7/9/3
f 6/10/4 1/11/4 5/12/4
f 7/13/5 1/14/5 3/15/5
f 4/16/6 6/17/6 8/18/6
f 13/19/6 11/20/6 9/21/6
f 11/22/4 16/23/4 12/24/4
f 15/25/1 14/26/1 16/27/1
f 10/28/5 16/29/5 14/30/5
f 9/31/3 12/32/3 10/33/3
f 13/34/2 10/35/2 14/36/2
f 18/37/1 19/38/1 17/39/1
f 20/40/2 23/41/2 19/42/2
f 24/43/3 21/44/3 23/45/3
f 22/46/4 17/47/4 21/48/4
f 23/49/5 17/50/5 19/51/5
f 20/52/6 22/53/6 24/54/6
f 26/55/1 27/56/1 25/57/1
f 28/58/2 31/59/2 27/60/2
f 32/61/3 29/62/3 31/63/3
f 30/64/4 25/65/4 29/66/4
f 31/67/5 25/68/5 27/69/5
f 28/70/6 30/71/6 32/72/6
f 34/73/1 35/74/1 33/75/1
f 36/76/2 39/77/2 35/78/2
f 40/79/3 37/80/3 39/81/3
f 38/82/4 33/83/4 37/84/4
f 39/85/5 33/86/5 35/87/5
f 36/88/6 38/89/6 40/90/6
f 42/91/1 43/92/1 41/93/1
f 44/94/2 47/95/2 43/96/2
f 48/97/3 45/98/3 47/99/3
f 46/100/4 41/101/4 45/102/4
f 47/103/5 41/104/5 43/105/5
f 44/106/6 46/107/6 48/108/6
f 2/1/1 4/109/1 3/2/1
f 4/4/2 8/110/2 7/5/2
f 8/7/3 6/111/3 5/8/3
f 6/10/4 2/112/4 1/11/4
f 7/13/5 5/113/5 1/14/5
f 4/16/6 2/114/6 6/17/6
f 13/19/6 15/115/6 11/20/6
f 11/22/4 15/116/4 16/23/4
f 15/25/1 13/117/1 14/26/1
f 10/28/5 12/118/5 16/29/5
f 9/31/3 11/119/3 12/32/3
f 13/34/2 9/120/2 10/35/2
f 18/37/1 20/121/1 19/38/1
f 20/40/2 24/122/2 23/41/2
f 24/43/3 22/123/3 21/44/3
f 22/46/4 18/124/4 17/47/4
f 23/49/5 21/125/5 17/50/5
f 20/52/6 18/126/6 22/53/6
f 26/55/1 28/127/1 27/56/1
f 28/58/2 32/128/2 31/59/2
f 32/61/3 30/129/3 29/62/3
f 30/64/4 26/130/4 25/65/4
f 31/67/5 29/131/5 25/68/5
f 28/70/6 26/132/6 30/71/6
f 34/73/1 36/133/1 35/74/1
f 36/76/2 40/134/2 39/77/2
f 40/79/3 38/135/3 37/80/3
f 38/82/4 34/136/4 33/83/4
f 39/85/5 37/137/5 33/86/5
f 36/88/6 34/138/6 38/89/6
f 42/91/1 44/139/1 43/92/1
f 44/94/2 48/140/2 47/95/2
f 48/97/3 46/141/3 45/98/3
f 46/100/4 42/142/4 41/101/4
f 47/103/5 45/143/5 41/104/5
f 44/106/6 42/144/6 46/107/6
