# Blender 4.2.3 LTS
# www.blender.org
o Cube.003
v 0.306711 0.439333 -0.010094
v 0.306711 0.439333 0.326327
v 0.306711 0.550437 -0.010094
v 0.306711 0.550437 0.326327
v 0.417815 0.439333 -0.010094
v 0.417815 0.439333 0.326327
v 0.417815 0.550437 -0.010094
v 0.417815 0.550437 0.326327
vn -1.0000 -0.0000 -0.0000
vn -0.0000 1.0000 -0.0000
vn 1.0000 -0.0000 -0.0000
vn -0.0000 -1.0000 -0.0000
vn -0.0000 -0.0000 -1.0000
vn -0.0000 -0.0000 1.0000
vt 0.804150 0.112731
vt 0.912262 0.004619
vt 0.912262 0.112731
vt 0.804150 0.230081
vt 0.912262 0.121969
vt 0.912262 0.230081
vt 0.804150 0.347431
vt 0.912262 0.239319
vt 0.912262 0.347431
vt 0.807163 0.554269
vt 0.915275 0.446157
vt 0.915275 0.554269
vt 0.915275 0.671619
vt 0.807163 0.563507
vt 0.915275 0.563507
vt 0.915275 0.788969
vt 0.807163 0.680856
vt 0.915275 0.680856
vt 0.804150 0.004619
vt 0.804150 0.121969
vt 0.804150 0.239319
vt 0.807163 0.446157
vt 0.807163 0.671619
vt 0.807163 0.788969
s 0
f 2/1/1 3/2/1 1/3/1
f 4/4/2 7/5/2 3/6/2
f 8/7/3 5/8/3 7/9/3
f 6/10/4 1/11/4 5/12/4
f 7/13/5 1/14/5 3/15/5
f 4/16/6 6/17/6 8/18/6
f 2/1/1 4/19/1 3/2/1
f 4/4/2 8/20/2 7/5/2
f 8/7/3 6/21/3 5/8/3
f 6/10/4 2/22/4 1/11/4
f 7/13/5 5/23/5 1/14/5
f 4/16/6 2/24/6 6/17/6
