# Blender 4.2.3 LTS
# www.blender.org
o Cube
v 1.000000 1.000000 1.000000
v 1.000000 1.000000 0.000000
v 1.000000 0.500000 0.500000
v 1.000000 0.000000 0.000000
v 0.000000 1.000000 1.000000
v 0.000000 1.000000 0.000000
v 0.000000 0.500000 0.500000
v 0.000000 0.000000 0.000000
v 0.000000 0.500000 0.000000
v 1.000000 0.500000 1.000000
v 0.000000 0.500000 1.000000
v 1.000000 0.500000 0.000000
v 1.000000 0.500000 0.500000
v 0.000000 0.500000 0.500000
v 1.000000 0.500000 1.000000
v 0.000000 0.500000 1.000000
v 1.000000 1.000000 0.500000
v 0.000000 0.000000 0.500000
v 1.000000 0.000000 0.500000
v 0.000000 1.000000 0.500000
v 1.000000 0.500000 0.500000
v 0.000000 0.500000 0.500000
vn -0.0000 -0.0000 1.0000
vn -1.0000 -0.0000 -0.0000
vn -0.0000 -0.0000 -1.0000
vn -0.0000 1.0000 -0.0000
vn 1.0000 -0.0000 -0.0000
vn -0.0000 -1.0000 -0.0000
vt 0.000000 0.000000
vt 1.000000 1.000000
vt 0.000000 1.000000
vt 1.000000 0.000000
s 0
f 10/1/1 16/2/1 15/3/1
f 3/4/1 18/3/1 19/1/1
f 11/4/2 20/3/2 22/1/2
f 12/4/3 8/3/3 9/1/3
f 5/4/4 17/3/4 20/1/4
f 1/4/5 21/3/5 17/1/5
f 2/4/3 9/3/3 6/1/3
f 5/4/1 10/3/1 1/1/1
f 16/4/6 13/3/6 15/1/6
f 7/1/1 13/2/1 14/3/1
f 3/1/1 15/2/1 13/3/1
f 11/1/1 14/2/1 16/3/1
f 18/4/2 9/3/2 8/1/2
f 17/4/5 12/3/5 2/1/5
f 20/4/4 2/3/4 6/1/4
f 21/4/5 4/3/5 12/1/5
f 22/4/2 6/3/2 9/1/2
f 19/4/6 8/3/6 4/1/6
f 10/1/1 11/4/1 16/2/1
f 3/4/1 7/2/1 18/3/1
f 11/4/2 5/2/2 20/3/2
f 12/4/3 4/2/3 8/3/3
f 5/4/4 1/2/4 17/3/4
f 1/4/5 10/2/5 21/3/5
f 2/4/3 12/2/3 9/3/3
f 5/4/1 11/2/1 10/3/1
f 16/4/6 14/2/6 13/3/6
f 7/1/1 3/4/1 13/2/1
f 3/1/1 10/4/1 15/2/1
f 11/1/1 7/4/1 14/2/1
f 18/4/2 22/2/2 9/3/2
f 17/4/5 21/2/5 12/3/5
f 20/4/4 17/2/4 2/3/4
f 21/4/5 19/2/5 4/3/5
f 22/4/2 20/2/2 6/3/2
f 19/4/6 18/2/6 8/3/6
