# Blender 4.2.3 LTS
# www.blender.org
o Cube.003
v 0.591622 1.001972 0.050000
v 0.391622 1.001972 0.050000
v 0.591622 1.001972 -0.050000
v 0.391622 1.001972 -0.050000
v 0.591622 0.001972 0.050000
v 0.391622 0.001972 0.050000
v 0.591622 0.001972 -0.050000
v 0.391622 0.001972 -0.050000
v 0.591622 0.102632 -0.050000
v 0.391622 0.102632 -0.050000
v 0.591622 0.002632 -0.050000
v 0.391622 0.002632 -0.050000
v 0.591622 0.102632 0.950000
v 0.391622 0.102632 0.950000
v 0.591622 0.002632 0.950000
v 0.391622 0.002632 0.950000
v 0.591622 0.997620 -0.050000
v 0.391622 0.997620 -0.050000
v 0.591622 0.897620 -0.050000
v 0.391622 0.897620 -0.050000
v 0.591622 0.997621 0.950000
v 0.391622 0.997621 0.950000
v 0.591622 0.897621 0.950000
v 0.391622 0.897621 0.950000
v 0.591622 1.001972 0.950000
v 0.391622 1.001972 0.950000
v 0.591622 1.001972 0.850000
v 0.391622 1.001972 0.850000
v 0.591622 0.001972 0.950000
v 0.391622 0.001972 0.950000
v 0.591622 0.001972 0.850000
v 0.391622 0.001972 0.850000
v 0.991622 0.401972 0.050000
v 0.991622 0.601972 0.050000
v 0.991622 0.401972 -0.050000
v 0.991622 0.601972 -0.050000
v -0.008378 0.401972 0.050000
v -0.008378 0.601972 0.050000
v -0.008378 0.401972 -0.050000
v -0.008378 0.601972 -0.050000
v 0.092282 0.401972 -0.050000
v 0.092282 0.601972 -0.050000
v -0.007718 0.401972 -0.050000
v -0.007718 0.601972 -0.050000
v 0.092282 0.401972 0.950000
v 0.092282 0.601972 0.950000
v -0.007718 0.401972 0.950000
v -0.007718 0.601972 0.950000
v 0.987270 0.401972 -0.050000
v 0.987270 0.601972 -0.050000
v 0.887270 0.401972 -0.050000
v 0.887270 0.601972 -0.050000
v 0.987270 0.401972 0.950000
v 0.987270 0.601972 0.950000
v 0.887271 0.401972 0.950000
v 0.887271 0.601972 0.950000
v 0.991622 0.401972 0.950000
v 0.991622 0.601972 0.950000
v 0.991622 0.401972 0.850000
v 0.991622 0.601972 0.850000
v -0.008378 0.401972 0.950000
v -0.008378 0.601972 0.950000
v -0.008378 0.401972 0.850000
v -0.008378 0.601972 0.850000
vn 1.0000 -0.0000 -0.0000
vn -0.0000 -0.0000 -1.0000
vn -0.0000 -1.0000 -0.0000
vn -1.0000 -0.0000 -0.0000
vn -0.0000 1.0000 -0.0000
vn -0.0000 -0.0000 1.0000
vt 0.085781 0.904430
vt 0.004895 0.823544
vt 0.085781 0.823544
vt 0.095570 0.904430
vt 0.176456 0.823544
vt 0.176456 0.904430
vt 0.186245 0.904430
vt 0.267131 0.823544
vt 0.267131 0.904430
vt 0.357807 0.904430
vt 0.276921 0.823544
vt 0.357807 0.823544
vt 0.367596 0.904430
vt 0.448482 0.823544
vt 0.448482 0.904430
vt 0.458272 0.904430
vt 0.539158 0.823544
vt 0.539158 0.904430
vt 0.861832 0.813755
vt 0.853743 0.004895
vt 0.861832 0.004895
vt 0.004895 0.813755
vt 0.085781 0.004895
vt 0.085781 0.813755
vt 0.548947 0.823544
vt 0.557035 0.904430
vt 0.548947 0.904430
vt 0.871621 0.004895
vt 0.879710 0.813755
vt 0.871621 0.813755
vt 0.951221 0.833333
vt 0.959310 0.914219
vt 0.951221 0.914219
vt 0.095570 0.813755
vt 0.176456 0.004895
vt 0.176456 0.813755
vt 0.897587 0.813755
vt 0.889499 0.004895
vt 0.897587 0.004895
vt 0.186245 0.813755
vt 0.267132 0.004895
vt 0.267131 0.813755
vt 0.969099 0.833333
vt 0.977188 0.914219
vt 0.969099 0.914219
vt 0.907377 0.004895
vt 0.915465 0.813755
vt 0.907377 0.813755
vt 0.977188 0.004895
vt 0.985276 0.085781
vt 0.977188 0.085781
vt 0.276921 0.813755
vt 0.357807 0.004895
vt 0.357807 0.813755
vt 0.740087 0.914219
vt 0.659201 0.833333
vt 0.740087 0.833333
vt 0.749877 0.904430
vt 0.830763 0.823544
vt 0.830763 0.904430
vt 0.004895 0.995105
vt 0.085781 0.914219
vt 0.085781 0.995106
vt 0.176456 0.995105
vt 0.095570 0.914219
vt 0.176456 0.914219
vt 0.186245 0.995105
vt 0.267131 0.914219
vt 0.267131 0.995105
vt 0.568526 0.914219
vt 0.649412 0.833333
vt 0.649412 0.914219
vt 0.649412 0.409325
vt 0.568526 0.004895
vt 0.649412 0.004895
vt 0.925255 0.004895
vt 0.941432 0.409325
vt 0.925255 0.409325
vt 0.887798 0.823544
vt 0.871621 0.904430
vt 0.871621 0.823544
vt 0.659201 0.004895
vt 0.740087 0.409325
vt 0.659201 0.409325
vt 0.845654 0.904430
vt 0.861832 0.823544
vt 0.861832 0.904430
vt 0.925255 0.823544
vt 0.941432 0.419114
vt 0.941432 0.823544
vt 0.458272 0.813755
vt 0.417829 0.004895
vt 0.458272 0.004895
vt 0.766054 0.004895
vt 0.749877 0.813755
vt 0.749877 0.004895
vt 0.276921 0.954662
vt 0.293098 0.914219
vt 0.293098 0.954662
vt 0.408039 0.813755
vt 0.367596 0.004895
vt 0.408039 0.004895
vt 0.319065 0.914219
vt 0.302887 0.954662
vt 0.302887 0.914219
vt 0.775843 0.813755
vt 0.792020 0.004895
vt 0.792020 0.813755
vt 0.468061 0.004895
vt 0.508504 0.813754
vt 0.468061 0.813754
vt 0.817987 0.004895
vt 0.801810 0.813755
vt 0.801810 0.004895
vt 0.354820 0.954662
vt 0.370998 0.914219
vt 0.370998 0.954662
vt 0.518294 0.004895
vt 0.558737 0.813755
vt 0.518293 0.813755
vt 0.345031 0.914219
vt 0.328854 0.954662
vt 0.328854 0.914219
vt 0.827776 0.813755
vt 0.843954 0.004895
vt 0.843954 0.813755
vt 0.649412 0.823544
vt 0.568526 0.419114
vt 0.649412 0.419114
vt 0.967399 0.004895
vt 0.951221 0.409325
vt 0.951221 0.004895
vt 0.913765 0.823544
vt 0.897587 0.904430
vt 0.897587 0.823544
vt 0.659201 0.419114
vt 0.740087 0.823544
vt 0.659201 0.823544
vt 0.925255 0.914219
vt 0.941432 0.833333
vt 0.941432 0.914219
vt 0.951221 0.823544
vt 0.967398 0.419114
vt 0.967398 0.823544
vt 0.004895 0.904430
vt 0.095570 0.823544
vt 0.186245 0.823544
vt 0.276921 0.904430
vt 0.367596 0.823544
vt 0.458272 0.823544
vt 0.853743 0.813755
vt 0.004895 0.004895
vt 0.557035 0.823544
vt 0.879710 0.004895
vt 0.959310 0.833333
vt 0.095570 0.004895
vt 0.889499 0.813755
vt 0.186246 0.004895
vt 0.977188 0.833333
vt 0.915465 0.004895
vt 0.985276 0.004895
vt 0.276921 0.004895
vt 0.659201 0.914219
vt 0.749877 0.823544
vt 0.004895 0.914219
vt 0.095570 0.995105
vt 0.186245 0.914219
vt 0.568526 0.833333
vt 0.568526 0.409325
vt 0.941432 0.004895
vt 0.887798 0.904430
vt 0.740087 0.004895
vt 0.845654 0.823544
vt 0.925255 0.419114
vt 0.417829 0.813755
vt 0.766054 0.813755
vt 0.276921 0.914219
vt 0.367596 0.813755
vt 0.319065 0.954662
vt 0.775843 0.004895
vt 0.508504 0.004895
vt 0.817987 0.813755
vt 0.354820 0.914219
vt 0.558737 0.004895
vt 0.345031 0.954662
vt 0.827776 0.004895
vt 0.568526 0.823544
vt 0.967399 0.409325
vt 0.913765 0.904430
vt 0.740087 0.419114
vt 0.925255 0.833333
vt 0.951221 0.419114
s 0
f 5/1/1 3/2/1 1/3/1
f 3/4/2 8/5/2 4/6/2
f 7/7/3 6/8/3 8/9/3
f 2/10/4 8/11/4 6/12/4
f 1/13/5 4/14/5 2/15/5
f 5/16/6 2/17/6 6/18/6
f 13/19/1 11/20/1 9/21/1
f 11/22/3 16/23/3 12/24/3
f 15/25/6 14/26/6 16/27/6
f 10/28/4 16/29/4 14/30/4
f 9/31/2 12/32/2 10/33/2
f 13/34/5 10/35/5 14/36/5
f 21/37/1 19/38/1 17/39/1
f 19/40/3 24/41/3 20/42/3
f 23/43/6 22/44/6 24/45/6
f 18/46/4 24/47/4 22/48/4
f 17/49/2 20/50/2 18/51/2
f 21/52/5 18/53/5 22/54/5
f 29/55/1 27/56/1 25/57/1
f 27/58/2 32/59/2 28/60/2
f 31/61/3 30/62/3 32/63/3
f 26/64/4 32/65/4 30/66/4
f 25/67/5 28/68/5 26/69/5
f 29/70/6 26/71/6 30/72/6
f 37/73/3 35/74/3 33/75/3
f 36/76/2 39/77/2 40/78/2
f 39/79/4 38/80/4 40/81/4
f 34/82/5 40/83/5 38/84/5
f 33/85/1 36/86/1 34/87/1
f 37/88/6 34/89/6 38/90/6
f 45/91/3 43/92/3 41/93/3
f 43/94/4 48/95/4 44/96/4
f 47/97/6 46/98/6 48/99/6
f 42/100/5 48/101/5 46/102/5
f 41/103/2 44/104/2 42/105/2
f 45/106/1 42/107/1 46/108/1
f 53/109/3 51/110/3 49/111/3
f 51/112/4 56/113/4 52/114/4
f 55/115/6 54/116/6 56/117/6
f 50/118/5 56/119/5 54/120/5
f 49/121/2 52/122/2 50/123/2
f 53/124/1 50/125/1 54/126/1
f 61/127/3 59/128/3 57/129/3
f 59/130/2 64/131/2 60/132/2
f 63/133/4 62/134/4 64/135/4
f 58/136/5 64/137/5 62/138/5
f 57/139/1 60/140/1 58/141/1
f 61/142/6 58/143/6 62/144/6
f 5/1/1 7/145/1 3/2/1
f 3/4/2 7/146/2 8/5/2
f 7/7/3 5/147/3 6/8/3
f 2/10/4 4/148/4 8/11/4
f 1/13/5 3/149/5 4/14/5
f 5/16/6 1/150/6 2/17/6
f 13/19/1 15/151/1 11/20/1
f 11/22/3 15/152/3 16/23/3
f 15/25/6 13/153/6 14/26/6
f 10/28/4 12/154/4 16/29/4
f 9/31/2 11/155/2 12/32/2
f 13/34/5 9/156/5 10/35/5
f 21/37/1 23/157/1 19/38/1
f 19/40/3 23/158/3 24/41/3
f 23/43/6 21/159/6 22/44/6
f 18/46/4 20/160/4 24/47/4
f 17/49/2 19/161/2 20/50/2
f 21/52/5 17/162/5 18/53/5
f 29/55/1 31/163/1 27/56/1
f 27/58/2 31/164/2 32/59/2
f 31/61/3 29/165/3 30/62/3
f 26/64/4 28/166/4 32/65/4
f 25/67/5 27/167/5 28/68/5
f 29/70/6 25/168/6 26/71/6
f 37/73/3 39/169/3 35/74/3
f 36/76/2 35/170/2 39/77/2
f 39/79/4 37/171/4 38/80/4
f 34/82/5 36/172/5 40/83/5
f 33/85/1 35/173/1 36/86/1
f 37/88/6 33/174/6 34/89/6
f 45/91/3 47/175/3 43/92/3
f 43/94/4 47/176/4 48/95/4
f 47/97/6 45/177/6 46/98/6
f 42/100/5 44/178/5 48/101/5
f 41/103/2 43/179/2 44/104/2
f 45/106/1 41/180/1 42/107/1
f 53/109/3 55/181/3 51/110/3
f 51/112/4 55/182/4 56/113/4
f 55/115/6 53/183/6 54/116/6
f 50/118/5 52/184/5 56/119/5
f 49/121/2 51/185/2 52/122/2
f 53/124/1 49/186/1 50/125/1
f 61/127/3 63/187/3 59/128/3
f 59/130/2 63/188/2 64/131/2
f 63/133/4 61/189/4 62/134/4
f 58/136/5 60/190/5 64/137/5
f 57/139/1 59/191/1 60/140/1
f 61/142/6 57/192/6 58/143/6
