# Blender 4.2.3 LTS
# www.blender.org
o Cube.001
v 0.246786 0.702323 0.184185
v 0.246786 0.702323 0.282243
v 0.246786 0.995712 0.184185
v 0.246786 0.995712 0.282243
v 0.711819 0.702323 0.184185
v 0.711819 0.702323 0.282243
v 0.711819 0.995712 0.184185
v 0.711819 0.995712 0.282243
v 0.806986 1.003639 0.040263
v 0.806986 1.003639 0.190299
v 0.806986 0.020342 0.040263
v 0.806986 0.020342 0.190299
v 0.174736 1.003639 0.040263
v 0.174736 1.003639 0.190299
v 0.174736 0.020342 0.040263
v 0.174736 0.020342 0.190299
vn -1.0000 -0.0000 -0.0000
vn -0.0000 1.0000 -0.0000
vn 1.0000 -0.0000 -0.0000
vn -0.0000 -1.0000 -0.0000
vn -0.0000 -0.0000 -1.0000
vn -0.0000 -0.0000 1.0000
vt 0.474191 0.743919
vt 0.643088 0.575022
vt 0.643088 0.743919
vt 0.649061 0.743919
vt 0.817958 0.575022
vt 0.817958 0.743919
vt 0.474191 0.918790
vt 0.643088 0.749893
vt 0.643088 0.918790
vt 0.649061 0.918790
vt 0.817958 0.749893
vt 0.817958 0.918790
vt 0.992829 0.743919
vt 0.823932 0.575022
vt 0.992829 0.575022
vt 0.992829 0.918790
vt 0.823932 0.749893
vt 0.992829 0.749893
vt 0.761411 0.002987
vt 0.531782 0.569049
vt 0.761411 0.569049
vt 0.002987 0.575022
vt 0.232616 0.833447
vt 0.232616 0.575022
vt 0.002987 0.569049
vt 0.261411 0.002987
vt 0.002987 0.002987
vt 0.997013 0.002987
vt 0.767384 0.569049
vt 0.997013 0.569049
vt 0.267384 0.569049
vt 0.525809 0.002987
vt 0.267384 0.002987
vt 0.238589 0.575022
vt 0.468218 0.833447
vt 0.468218 0.575022
vt 0.474191 0.575022
vt 0.649061 0.575022
vt 0.474191 0.749893
vt 0.649061 0.749893
vt 0.823932 0.743919
vt 0.823932 0.918790
vt 0.531782 0.002987
vt 0.002987 0.833447
vt 0.261411 0.569049
vt 0.767384 0.002987
vt 0.525809 0.569049
vt 0.238589 0.833447
s 0
f 2/1/1 3/2/1 1/3/1
f 4/4/2 7/5/2 3/6/2
f 8/7/3 5/8/3 7/9/3
f 6/10/4 1/11/4 5/12/4
f 7/13/5 1/14/5 3/15/5
f 4/16/6 6/17/6 8/18/6
f 11/19/5 13/20/5 9/21/5
f 16/22/4 11/23/4 12/24/4
f 14/25/1 15/26/1 16/27/1
f 16/28/6 10/29/6 14/30/6
f 12/31/3 9/32/3 10/33/3
f 10/34/2 13/35/2 14/36/2
f 2/1/1 4/37/1 3/2/1
f 4/4/2 8/38/2 7/5/2
f 8/7/3 6/39/3 5/8/3
f 6/10/4 2/40/4 1/11/4
f 7/13/5 5/41/5 1/14/5
f 4/16/6 2/42/6 6/17/6
f 11/19/5 15/43/5 13/20/5
f 16/22/4 15/44/4 11/23/4
f 14/25/1 13/45/1 15/26/1
f 16/28/6 12/46/6 10/29/6
f 12/31/3 11/47/3 9/32/3
f 10/34/2 9/48/2 13/35/2
