# Blender 4.2.3 LTS
# www.blender.org
o Cube
v 2.000000 0.700000 3.000000
v 2.000000 0.700000 0.000000
v 2.000000 0.300000 3.000000
v 2.000000 0.300000 0.000000
v -1.000000 0.700000 3.000000
v -1.000000 0.700000 0.000000
v -1.000000 0.300000 3.000000
v -1.000000 0.300000 0.000000
vn -0.0000 -1.0000 -0.0000
vn -0.0000 1.0000 -0.0000
vt 0.001984 0.498016
vt 0.498016 0.001984
vt 0.498016 0.498016
vt 0.001984 0.998016
vt 0.498016 0.501984
vt 0.498016 0.998016
vt 0.001984 0.001984
vt 0.001984 0.501984
s 0
f 3/1/1 8/2/1 4/3/1
f 5/4/2 2/5/2 6/6/2
f 3/1/1 7/7/1 8/2/1
f 5/4/2 1/8/2 2/5/2
