# Blender 4.2.3 LTS
# www.blender.org
o Cube.002
v 0.600000 0.600000 1.000000
v 0.600000 0.600000 0.000000
v 0.600000 0.400000 1.000000
v 0.600000 0.400000 0.000000
v 0.400000 0.600000 1.000000
v 0.400000 0.600000 0.000000
v 0.400000 0.400000 1.000000
v 0.400000 0.400000 0.000000
v 1.000000 0.600000 0.600000
v 1.000000 0.600000 0.400000
v 1.000000 0.400000 0.600000
v 1.000000 0.400000 0.400000
v 0.000000 0.600000 0.600000
v 0.000000 0.600000 0.400000
v 0.000000 0.400000 0.600000
v 0.000000 0.400000 0.400000
v 0.600000 1.000000 0.600000
v 0.600000 1.000000 0.400000
v 0.600000 0.000000 0.600000
v 0.600000 0.000000 0.400000
v 0.400000 1.000000 0.600000
v 0.400000 1.000000 0.400000
v 0.400000 0.000000 0.600000
v 0.400000 0.000000 0.400000
vn -0.0000 -0.0000 1.0000
vn -0.0000 -1.0000 -0.0000
vn -1.0000 -0.0000 -0.0000
vn -0.0000 -0.0000 -1.0000
vn 1.0000 -0.0000 -0.0000
vn -0.0000 1.0000 -0.0000
vt 0.165349 0.982019
vt 0.003359 0.820029
vt 0.165349 0.820029
vt 0.172066 0.982019
vt 0.334057 0.820029
vt 0.334057 0.982019
vt 0.340774 0.982019
vt 0.502765 0.820029
vt 0.502765 0.982019
vt 0.671472 0.982019
vt 0.509482 0.820029
vt 0.671472 0.820029
vt 0.678190 0.982019
vt 0.840180 0.820029
vt 0.840180 0.982019
vt 0.834651 0.165349
vt 0.996641 0.003359
vt 0.996641 0.165349
vt 0.165349 0.813311
vt 0.003359 0.003359
vt 0.165349 0.003359
vt 0.678190 0.813311
vt 0.710588 0.003359
vt 0.710588 0.813311
vt 0.834651 0.334057
vt 0.867049 0.172066
vt 0.867049 0.334057
vt 0.334057 0.813311
vt 0.172066 0.003359
vt 0.334057 0.003359
vt 0.834651 0.502765
vt 0.867049 0.340774
vt 0.867049 0.502765
vt 0.717305 0.813311
vt 0.749703 0.003359
vt 0.749703 0.813311
vt 0.340774 0.813311
vt 0.502765 0.003359
vt 0.502765 0.813311
vt 0.834651 0.671472
vt 0.867049 0.509482
vt 0.867049 0.671472
vt 0.756420 0.813311
vt 0.788818 0.003359
vt 0.788818 0.813311
vt 0.509482 0.813311
vt 0.671472 0.003359
vt 0.671472 0.813311
vt 0.795536 0.813311
vt 0.827934 0.003359
vt 0.827934 0.813311
vt 0.873766 0.334057
vt 0.906164 0.172066
vt 0.906164 0.334057
vt 0.003359 0.982019
vt 0.172066 0.820029
vt 0.340774 0.820029
vt 0.509482 0.982019
vt 0.678190 0.820029
vt 0.834651 0.003359
vt 0.003359 0.813311
vt 0.678190 0.003359
vt 0.834651 0.172066
vt 0.172066 0.813311
vt 0.834651 0.340774
vt 0.717305 0.003359
vt 0.340774 0.003359
vt 0.834651 0.509482
vt 0.756420 0.003359
vt 0.509482 0.003359
vt 0.795536 0.003359
vt 0.873766 0.172066
s 0
f 5/1/1 3/2/1 1/3/1
f 3/4/2 8/5/2 4/6/2
f 7/7/3 6/8/3 8/9/3
f 2/10/4 8/11/4 6/12/4
f 1/13/5 4/14/5 2/15/5
f 5/16/6 2/17/6 6/18/6
f 13/19/1 11/20/1 9/21/1
f 11/22/2 16/23/2 12/24/2
f 15/25/3 14/26/3 16/27/3
f 10/28/4 16/29/4 14/30/4
f 9/31/5 12/32/5 10/33/5
f 13/34/6 10/35/6 14/36/6
f 21/37/1 19/38/1 17/39/1
f 19/40/2 24/41/2 20/42/2
f 23/43/3 22/44/3 24/45/3
f 18/46/4 24/47/4 22/48/4
f 17/49/5 20/50/5 18/51/5
f 21/52/6 18/53/6 22/54/6
f 5/1/1 7/55/1 3/2/1
f 3/4/2 7/56/2 8/5/2
f 7/7/3 5/57/3 6/8/3
f 2/10/4 4/58/4 8/11/4
f 1/13/5 3/59/5 4/14/5
f 5/16/6 1/60/6 2/17/6
f 13/19/1 15/61/1 11/20/1
f 11/22/2 15/62/2 16/23/2
f 15/25/3 13/63/3 14/26/3
f 10/28/4 12/64/4 16/29/4
f 9/31/5 11/65/5 12/32/5
f 13/34/6 9/66/6 10/35/6
f 21/37/1 23/67/1 19/38/1
f 19/40/2 23/68/2 24/41/2
f 23/43/3 21/69/3 22/44/3
f 18/46/4 20/70/4 24/47/4
f 17/49/5 19/71/5 20/50/5
f 21/52/6 17/72/6 18/53/6
