# Blender 4.2.3 LTS
# www.blender.org
o Cube
v 0.977231 0.978251 0.899419
v 0.580536 0.581556 0.424592
v 0.977231 0.026838 0.899419
v 0.580536 0.423534 0.424592
v 0.025818 0.978251 0.899419
v 0.422514 0.581556 0.424592
v 0.025818 0.026838 0.899419
v 0.422514 0.423534 0.424592
v 0.977231 0.026838 0.978079
v 0.025818 0.026838 0.978079
v 0.977231 0.978251 0.978079
v 0.025818 0.978251 0.978079
v 0.887283 0.116786 0.978079
v 0.115766 0.116786 0.978079
v 0.887283 0.888303 0.978079
v 0.115766 0.888303 0.978079
v 0.882656 0.116786 0.867030
v 0.111139 0.116786 0.867030
v 0.882656 0.888303 0.867030
v 0.111139 0.888303 0.867030
v 0.422514 0.581556 0.011809
v 0.422514 0.423534 0.011809
v 0.580536 0.581556 0.011809
v 0.580536 0.423534 0.011809
vn 1.0000 -0.0000 -0.0000
vn -0.0000 -0.7674 -0.6411
vn -0.7674 -0.0000 -0.6411
vn -0.0000 1.0000 -0.0000
vn 0.7674 -0.0000 -0.6411
vn -0.0000 0.7674 -0.6411
vn -0.0000 -0.0000 1.0000
vn -0.0000 -1.0000 -0.0000
vn -1.0000 -0.0000 -0.0000
vn -0.9991 -0.0000 0.0416
vn 0.9991 -0.0000 -0.0416
vn -0.0000 -0.0000 -1.0000
vt 0.021082 0.045153
vt 0.312251 0.021082
vt 0.312251 0.045153
vt 0.354416 0.045155
vt 0.524180 0.190471
vt 0.475820 0.190471
vt 0.021082 0.384690
vt 0.190847 0.528306
vt 0.142486 0.528306
vt 0.524180 0.528351
vt 0.475820 0.654678
vt 0.475820 0.528351
vt 0.190847 0.192139
vt 0.142486 0.192139
vt 0.645584 0.383036
vt 0.687749 0.021082
vt 0.715276 0.284723
vt 0.687749 0.312251
vt 0.354416 0.383036
vt 0.645584 0.358963
vt 0.645584 0.021082
vt 0.645584 0.045155
vt 0.312251 0.360619
vt 0.312251 0.384690
vt 0.687749 0.634110
vt 0.721734 0.868808
vt 0.687749 0.870224
vt 0.978918 0.021082
vt 0.715276 0.048610
vt 0.978918 0.312251
vt 0.951390 0.284723
vt 0.951390 0.048610
vt 0.923863 0.590529
vt 0.687749 0.354416
vt 0.923863 0.354416
vt 0.021082 0.696786
vt 0.055084 0.932900
vt 0.021082 0.932900
vt 0.840049 0.632694
vt 0.874051 0.868808
vt 0.840049 0.868808
vt 0.763899 0.868808
vt 0.797884 0.634110
vt 0.797884 0.870224
vt 0.097249 0.745147
vt 0.145609 0.696786
vt 0.145609 0.745147
vt 0.475820 0.316798
vt 0.142486 0.654621
vt 0.190847 0.318454
vt 0.142486 0.318454
vt 0.021082 0.021082
vt 0.524180 0.654678
vt 0.354416 0.358963
vt 0.354416 0.021082
vt 0.021082 0.360619
vt 0.721734 0.632694
vt 0.687749 0.590529
vt 0.055084 0.696786
vt 0.874051 0.632694
vt 0.763899 0.632694
vt 0.097249 0.696786
vt 0.524180 0.316798
vt 0.190847 0.654621
s 0
f 1/1/1 9/2/1 3/3/1
f 3/4/2 8/5/2 4/6/2
f 7/7/3 6/8/3 8/9/3
f 2/10/4 21/11/4 6/12/4
f 1/1/5 4/13/5 2/14/5
f 6/12/6 1/15/6 2/10/6
f 10/16/7 16/17/7 12/18/7
f 5/19/4 11/20/4 1/15/4
f 3/4/8 10/21/8 7/22/8
f 7/7/9 12/23/9 5/24/9
f 16/25/8 19/26/8 15/27/8
f 9/28/7 14/29/7 10/16/7
f 11/30/7 16/17/7 15/31/7
f 9/28/7 15/31/7 13/32/7
f 20/33/7 17/34/7 19/35/7
f 15/36/10 17/37/10 13/38/10
f 14/39/11 20/40/11 16/41/11
f 14/42/4 17/43/4 18/44/4
f 23/45/12 22/46/12 21/47/12
f 8/5/8 24/48/8 4/6/8
f 6/8/9 22/49/9 8/9/9
f 2/14/1 24/50/1 23/51/1
f 1/1/1 11/52/1 9/2/1
f 3/4/2 7/22/2 8/5/2
f 7/7/3 5/24/3 6/8/3
f 2/10/4 23/53/4 21/11/4
f 1/1/5 3/3/5 4/13/5
f 6/12/6 5/19/6 1/15/6
f 10/16/7 14/29/7 16/17/7
f 5/19/4 12/54/4 11/20/4
f 3/4/8 9/55/8 10/21/8
f 7/7/9 10/56/9 12/23/9
f 16/25/8 20/57/8 19/26/8
f 9/28/7 13/32/7 14/29/7
f 11/30/7 12/18/7 16/17/7
f 9/28/7 11/30/7 15/31/7
f 20/33/7 18/58/7 17/34/7
f 15/36/10 19/59/10 17/37/10
f 14/39/11 18/60/11 20/40/11
f 14/42/4 13/61/4 17/43/4
f 23/45/12 24/62/12 22/46/12
f 8/5/8 22/63/8 24/48/8
f 6/8/9 21/64/9 22/49/9
f 2/14/1 4/13/1 24/50/1
