# Blender 4.2.3 LTS
# www.blender.org
o Cube
v 0.050000 0.050000 0.450000
v 0.050000 0.050000 0.550000
v 0.050000 0.950000 0.450000
v 0.050000 0.950000 0.550000
v 0.950000 0.050000 0.450000
v 0.950000 0.050000 0.550000
v 0.950000 0.950000 0.450000
v 0.950000 0.950000 0.550000
v 1.000000 -0.000000 0.550000
v 1.000000 0.050000 0.550000
v 1.000000 -0.000000 0.450000
v 1.000000 0.050000 0.450000
v 0.000000 -0.000000 0.550000
v 0.000000 0.050000 0.550000
v 0.000000 -0.000000 0.450000
v 0.000000 0.050000 0.450000
v 0.950000 0.050000 0.550000
v 0.950000 -0.000000 0.450000
v 0.950000 0.050000 0.450000
v 0.950000 -0.000000 0.550000
v 0.050000 0.050000 0.550000
v 0.050000 -0.000000 0.450000
v 0.050000 0.050000 0.450000
v 0.050000 -0.000000 0.550000
v 1.000000 1.000000 0.450000
v 1.000000 1.000000 0.550000
v 0.950000 1.000000 0.550000
v 0.000000 1.000000 0.550000
v 0.000000 1.000000 0.450000
v 0.050000 1.000000 0.550000
v 0.050000 1.000000 0.450000
v 0.050000 0.950000 0.450000
v 0.050000 0.950000 0.550000
v 0.000000 0.950000 0.550000
v 0.000000 0.950000 0.450000
v 0.950000 1.000000 0.450000
v 0.950000 0.950000 0.550000
v 0.950000 0.950000 0.450000
v 1.000000 0.950000 0.450000
v 1.000000 0.950000 0.550000
v 0.450000 1.000000 1.000000
v 0.450000 1.000000 0.950000
v 0.550000 1.000000 1.000000
v 0.550000 1.000000 0.950000
v 0.450000 -0.000000 1.000000
v 0.450000 -0.000000 0.950000
v 0.550000 -0.000000 1.000000
v 0.550000 -0.000000 0.950000
v 0.450000 0.950000 0.950000
v 0.550000 0.950000 1.000000
v 0.550000 0.950000 0.950000
v 0.450000 0.950000 1.000000
v 0.450000 0.050000 0.950000
v 0.550000 0.050000 1.000000
v 0.550000 0.050000 0.950000
v 0.450000 0.050000 1.000000
v 0.550000 1.000000 0.000000
v 0.450000 1.000000 0.000000
v 0.450000 0.950000 0.000000
v 0.450000 -0.000000 -0.000000
v 0.550000 -0.000000 -0.000000
v 0.450000 0.050000 -0.000000
v 0.550000 0.050000 -0.000000
v 0.550000 0.050000 0.050000
v 0.450000 0.050000 0.050000
v 0.450000 -0.000000 0.050000
v 0.550000 -0.000000 0.050000
v 0.550000 0.950000 0.000000
v 0.450000 0.950000 0.050000
v 0.550000 0.950000 0.050000
v 0.550000 1.000000 0.050000
v 0.450000 1.000000 0.050000
v 1.000000 0.550000 1.000000
v 1.000000 0.550000 0.950000
v 1.000000 0.450000 1.000000
v 1.000000 0.450000 0.950000
v 0.000000 0.550000 1.000000
v 0.000000 0.550000 0.950000
v 0.000000 0.450000 1.000000
v 0.000000 0.450000 0.950000
v 0.950000 0.550000 0.950000
v 0.950000 0.450000 1.000000
v 0.950000 0.450000 0.950000
v 0.950000 0.550000 1.000000
v 0.050000 0.550000 0.950000
v 0.050000 0.450000 1.000000
v 0.050000 0.450000 0.950000
v 0.050000 0.550000 1.000000
v 1.000000 0.450000 -0.000000
v 1.000000 0.550000 -0.000000
v 0.950000 0.550000 -0.000000
v 0.000000 0.550000 -0.000000
v 0.000000 0.450000 -0.000000
v 0.050000 0.550000 -0.000000
v 0.050000 0.450000 -0.000000
v 0.050000 0.450000 0.050000
v 0.050000 0.550000 0.050000
v 0.000000 0.550000 0.050000
v 0.000000 0.450000 0.050000
v 0.950000 0.450000 -0.000000
v 0.950000 0.550000 0.050000
v 0.950000 0.450000 0.050000
v 1.000000 0.450000 0.050000
v 1.000000 0.550000 0.050000
vn -1.0000 -0.0000 -0.0000
vn -0.0000 1.0000 -0.0000
vn 1.0000 -0.0000 -0.0000
vn -0.0000 -1.0000 -0.0000
vn -0.0000 -0.0000 -1.0000
vn -0.0000 -0.0000 1.0000
vt 0.888889 0.500000
vt 0.916667 0.250000
vt 0.916667 0.500000
vt 0.888889 0.777778
vt 0.916667 0.527778
vt 0.916667 0.777778
vt 0.916667 0.250000
vt 0.944444 0.000000
vt 0.944444 0.250000
vt 0.916667 0.500000
vt 0.944444 0.250000
vt 0.944444 0.500000
vt 0.805556 0.527778
vt 0.555556 0.277778
vt 0.805556 0.277778
vt 0.527778 0.805556
vt 0.277778 0.555556
vt 0.527778 0.555556
vt 0.583333 0.527778
vt 0.611111 0.541667
vt 0.583333 0.541667
vt 0.263889 0.277778
vt 0.277778 0.291667
vt 0.263889 0.291667
vt 0.750000 0.527778
vt 0.777778 0.541667
vt 0.750000 0.541667
vt 0.013889 0.541667
vt 0.000000 0.555556
vt 0.000000 0.541667
vt 0.666667 0.791667
vt 0.638889 0.805556
vt 0.638889 0.791667
vt 0.541667 0.277778
vt 0.555556 0.291667
vt 0.541667 0.291667
vt 0.291667 0.277778
vt 0.291667 0.291667
vt 0.833333 0.277778
vt 0.861111 0.527778
vt 0.833333 0.527778
vt 0.000000 0.277778
vt 0.013889 0.291667
vt 0.000000 0.291667
vt 0.583333 0.791667
vt 0.611111 0.805556
vt 0.583333 0.805556
vt 0.611111 0.791667
vt 0.638889 0.541667
vt 0.638889 0.791667
vt 0.277778 0.277778
vt 0.013889 0.277778
vt 0.611111 0.527778
vt 0.888889 0.250000
vt 0.861111 0.263889
vt 0.861111 0.250000
vt 0.638889 0.541667
vt 0.666667 0.527778
vt 0.666667 0.541667
vt 0.555556 0.541667
vt 0.541667 0.555556
vt 0.541667 0.541667
vt 0.638889 0.805556
vt 0.777778 0.791667
vt 0.750000 0.805556
vt 0.750000 0.791667
vt 0.277778 0.541667
vt 0.263889 0.555556
vt 0.263889 0.541667
vt 0.291667 0.541667
vt 0.888889 0.250000
vt 0.916667 0.000000
vt 0.888889 0.527778
vt 0.861111 0.777778
vt 0.861111 0.527778
vt 0.291667 0.555556
vt 0.888889 0.000000
vt 0.861111 0.000000
vt 0.805556 0.527778
vt 0.833333 0.541667
vt 0.805556 0.541667
vt 0.263889 0.000000
vt 0.277778 0.013889
vt 0.263889 0.013889
vt 0.722222 0.527778
vt 0.750000 0.541667
vt 0.722222 0.541667
vt 0.013889 0.263889
vt 0.000000 0.263889
vt 0.777778 0.527778
vt 0.805556 0.541667
vt 0.541667 0.000000
vt 0.555556 0.013889
vt 0.541667 0.013889
vt 0.291667 0.000000
vt 0.291667 0.013889
vt 0.944445 0.777778
vt 0.916667 0.527778
vt 0.944445 0.527778
vt 0.000000 0.000000
vt 0.013889 0.013889
vt 0.000000 0.013889
vt 0.805556 0.791667
vt 0.833333 0.805556
vt 0.805556 0.805556
vt 0.861111 0.013889
vt 0.833333 0.263889
vt 0.833333 0.013889
vt 0.277778 0.013889
vt 0.013889 0.000000
vt 0.833333 0.791667
vt 0.833333 0.277778
vt 0.888889 0.513889
vt 0.861111 0.527778
vt 0.861111 0.513889
vt 0.805556 0.791667
vt 0.777778 0.805556
vt 0.541667 0.263889
vt 0.555556 0.277778
vt 0.833333 0.000000
vt 0.861111 0.000000
vt 0.750000 0.791667
vt 0.722222 0.805556
vt 0.722222 0.791667
vt 0.277778 0.263889
vt 0.263889 0.263889
vt 0.291667 0.263889
vt 0.277778 0.277778
vt 0.277778 0.263889
vt 1.000000 0.000000
vt 0.972222 0.250000
vt 0.972222 0.000000
vt 0.972222 0.000000
vt 0.944444 0.250000
vt 0.944444 0.000000
vt 0.888889 0.263889
vt 0.555556 0.791667
vt 0.819444 0.000000
vt 0.833333 0.013889
vt 0.819444 0.013889
vt 0.694444 0.541667
vt 0.569444 0.263889
vt 0.555556 0.263889
vt 0.694444 0.527778
vt 0.722222 0.541667
vt 0.694444 0.541667
vt 0.263889 0.555556
vt 0.277778 0.569445
vt 0.263889 0.569445
vt 0.013889 0.555556
vt 0.013889 0.569445
vt 0.833333 0.527778
vt 0.805556 0.277778
vt 0.555556 0.000000
vt 0.569444 0.013889
vt 0.555556 0.527778
vt 0.555556 0.569444
vt 0.527778 0.819444
vt 0.527778 0.569444
vt 0.000000 0.555556
vt 0.000000 0.569445
vt 0.569444 0.000000
vt 0.555555 0.833333
vt 0.555555 0.819444
vt 0.861111 0.777778
vt 0.833333 0.791667
vt 0.833333 0.777778
vt 0.722222 0.791667
vt 0.694444 0.805556
vt 0.694444 0.791667
vt 0.277778 0.819444
vt 0.263889 0.833333
vt 0.263889 0.819444
vt 0.555556 0.555556
vt 0.694444 0.791667
vt 0.666667 0.805556
vt 0.666667 0.791667
vt 0.833333 0.263889
vt 0.819444 0.277778
vt 0.819444 0.263889
vt 0.013889 0.819444
vt 0.000000 0.833333
vt 0.000000 0.819444
vt 0.972222 0.527778
vt 0.944445 0.777778
vt 0.944445 0.527778
vt 0.972222 0.277778
vt 0.013889 0.833333
vt 0.833333 0.527778
vt 0.888889 0.527778
vt 0.916667 0.000000
vt 0.555556 0.527778
vt 0.277778 0.805556
vt 0.013889 0.555556
vt 0.861111 0.277778
vt 0.638889 0.527778
vt 0.555556 0.555556
vt 0.888889 0.000000
vt 0.833333 0.527778
vt 0.277778 0.000000
vt 0.750000 0.527778
vt 0.013889 0.277778
vt 0.805556 0.527778
vt 0.916667 0.777778
vt 0.277778 0.000000
vt 0.861111 0.277778
vt 0.888889 0.527778
vt 0.805556 0.805556
vt 0.750000 0.805556
vt 1.000000 0.250000
vt 0.972222 0.250000
vt 0.555556 0.805556
vt 0.833333 0.000000
vt 0.694444 0.527778
vt 0.569444 0.277778
vt 0.722222 0.527778
vt 0.277778 0.555556
vt 0.805555 0.527778
vt 0.527778 0.833333
vt 0.861111 0.791667
vt 0.722222 0.805556
vt 0.277778 0.833333
vt 0.694444 0.805556
vt 0.833333 0.277778
vt 0.972222 0.777778
vt 0.944445 0.277778
s 0
f 2/1/1 3/2/1 1/3/1
f 4/4/2 7/5/2 3/6/2
f 8/7/3 5/8/3 7/9/3
f 6/10/4 1/11/4 5/12/4
f 7/13/5 1/14/5 3/15/5
f 4/16/6 6/17/6 8/18/6
f 13/19/4 22/20/4 24/21/4
f 22/22/5 16/23/5 23/24/5
f 15/25/1 14/26/1 16/27/1
f 38/28/5 25/29/5 39/30/5
f 10/31/3 11/32/3 12/33/3
f 20/34/6 10/35/6 17/36/6
f 24/37/6 17/36/6 21/38/6
f 17/39/2 23/40/2 21/41/2
f 11/42/5 19/43/5 12/44/5
f 20/45/4 11/46/4 9/47/4
f 30/48/2 36/49/2 31/50/2
f 13/51/6 21/38/6 14/23/6
f 18/52/5 23/24/5 19/43/5
f 24/21/4 18/48/4 20/45/4
f 26/53/2 36/49/2 27/20/2
f 37/54/1 36/55/1 38/56/1
f 39/57/3 26/58/3 40/59/3
f 40/60/6 27/61/6 37/62/6
f 30/48/2 29/63/2 28/46/2
f 34/64/1 29/65/1 35/66/1
f 35/67/5 31/68/5 32/69/5
f 33/70/6 28/17/6 34/67/6
f 21/38/6 34/67/6 14/23/6
f 16/23/5 32/69/5 23/24/5
f 14/26/1 35/66/1 16/27/1
f 23/71/3 33/72/3 21/2/3
f 31/68/5 38/28/5 32/69/5
f 32/73/4 37/74/4 33/75/4
f 33/70/6 27/61/6 30/76/6
f 10/35/6 37/62/6 17/36/6
f 12/33/3 40/59/3 10/31/3
f 17/77/1 38/56/1 19/78/1
f 19/43/5 39/30/5 12/44/5
f 45/79/6 54/80/6 56/81/6
f 54/82/3 48/83/3 55/84/3
f 47/85/4 46/86/4 48/87/4
f 70/88/3 57/42/3 71/89/3
f 41/90/2 44/91/2 42/26/2
f 52/92/1 42/93/1 49/94/1
f 56/95/1 49/94/1 53/96/1
f 49/97/5 55/98/5 53/99/5
f 43/100/3 51/101/3 44/102/3
f 52/103/6 43/104/6 41/105/6
f 62/106/5 68/107/5 63/108/5
f 46/109/1 56/95/1 53/96/1
f 50/110/3 55/84/3 51/101/3
f 56/81/6 50/111/6 52/103/6
f 59/55/5 57/112/5 68/107/5
f 69/113/4 68/114/4 70/115/4
f 71/116/2 58/117/2 72/64/2
f 69/118/1 58/119/1 59/34/1
f 62/106/5 61/120/5 60/121/5
f 66/122/4 61/123/4 67/124/4
f 67/125/3 63/22/3 64/126/3
f 65/127/1 60/128/1 66/129/1
f 53/96/1 66/129/1 46/109/1
f 48/83/3 64/126/3 55/84/3
f 46/86/4 67/124/4 48/87/4
f 55/130/2 65/131/2 53/132/2
f 63/22/3 70/88/3 64/126/3
f 64/133/6 69/134/6 65/135/6
f 65/127/1 59/34/1 62/37/1
f 42/93/1 69/118/1 49/94/1
f 44/91/2 72/64/2 42/26/2
f 49/136/4 70/115/4 51/55/4
f 51/101/3 71/89/3 44/102/3
f 77/47/6 86/137/6 88/45/6
f 86/138/4 80/139/4 87/140/4
f 79/58/1 78/141/1 80/59/1
f 102/142/4 89/119/4 103/143/4
f 73/144/3 76/145/3 74/146/3
f 84/147/2 74/148/2 81/149/2
f 88/150/2 81/149/2 85/151/2
f 81/152/5 87/153/5 85/39/5
f 75/154/4 83/155/4 76/93/4
f 84/21/6 75/156/6 73/19/6
f 94/157/5 100/158/5 95/159/5
f 77/160/2 85/151/2 78/161/2
f 82/162/4 87/140/4 83/155/4
f 88/45/6 82/60/6 84/21/6
f 90/163/5 100/158/5 91/164/5
f 101/165/1 100/166/1 102/167/1
f 103/168/3 90/169/3 104/170/3
f 104/171/2 91/172/2 101/173/2
f 94/157/5 93/18/5 92/174/5
f 98/175/1 93/176/1 99/177/1
f 99/178/4 95/179/4 96/180/4
f 97/181/2 92/182/2 98/183/2
f 85/151/2 98/183/2 78/161/2
f 80/139/4 96/180/4 87/140/4
f 78/141/1 99/177/1 80/59/1
f 87/184/3 97/185/3 85/186/3
f 95/179/4 102/142/4 96/180/4
f 96/186/6 101/187/6 97/184/6
f 97/181/2 91/172/2 94/188/2
f 74/148/2 101/173/2 81/149/2
f 76/145/3 104/170/3 74/146/3
f 81/75/1 102/167/1 83/189/1
f 83/155/4 103/143/4 76/93/4
f 2/1/1 4/54/1 3/2/1
f 4/4/2 8/190/2 7/5/2
f 8/7/3 6/191/3 5/8/3
f 6/10/4 2/2/4 1/11/4
f 7/13/5 5/192/5 1/14/5
f 4/16/6 2/193/6 6/17/6
f 13/19/4 15/53/4 22/20/4
f 22/22/5 15/51/5 16/23/5
f 15/25/1 13/90/1 14/26/1
f 38/28/5 36/194/5 25/29/5
f 10/31/3 9/176/3 11/32/3
f 20/34/6 9/119/6 10/35/6
f 24/37/6 20/34/6 17/36/6
f 17/39/2 19/195/2 23/40/2
f 11/42/5 18/52/5 19/43/5
f 20/45/4 18/48/4 11/46/4
f 30/48/2 27/20/2 36/49/2
f 13/51/6 24/37/6 21/38/6
f 18/52/5 22/22/5 23/24/5
f 24/21/4 22/20/4 18/48/4
f 26/53/2 25/196/2 36/49/2
f 37/54/1 27/136/1 36/55/1
f 39/57/3 25/196/3 26/58/3
f 40/60/6 26/197/6 27/61/6
f 30/48/2 31/50/2 29/63/2
f 34/64/1 28/117/1 29/65/1
f 35/67/5 29/17/5 31/68/5
f 33/70/6 30/76/6 28/17/6
f 21/38/6 33/70/6 34/67/6
f 16/23/5 35/67/5 32/69/5
f 14/26/1 34/64/1 35/66/1
f 23/71/3 32/198/3 33/72/3
f 31/68/5 36/194/5 38/28/5
f 32/73/4 38/4/4 37/74/4
f 33/70/6 37/62/6 27/61/6
f 10/35/6 40/60/6 37/62/6
f 12/33/3 39/57/3 40/59/3
f 17/77/1 37/54/1 38/56/1
f 19/43/5 38/28/5 39/30/5
f 45/79/6 47/199/6 54/80/6
f 54/82/3 47/200/3 48/83/3
f 47/85/4 45/201/4 46/86/4
f 70/88/3 68/202/3 57/42/3
f 41/90/2 43/203/2 44/91/2
f 52/92/1 41/154/1 42/93/1
f 56/95/1 52/92/1 49/94/1
f 49/97/5 51/204/5 55/98/5
f 43/100/3 50/110/3 51/101/3
f 52/103/6 50/111/6 43/104/6
f 62/106/5 59/55/5 68/107/5
f 46/109/1 45/205/1 56/95/1
f 50/110/3 54/82/3 55/84/3
f 56/81/6 54/80/6 50/111/6
f 59/55/5 58/206/5 57/112/5
f 69/113/4 59/207/4 68/114/4
f 71/116/2 57/208/2 58/117/2
f 69/118/1 72/143/1 58/119/1
f 62/106/5 63/108/5 61/120/5
f 66/122/4 60/209/4 61/123/4
f 67/125/3 61/51/3 63/22/3
f 65/127/1 62/37/1 60/128/1
f 53/96/1 65/127/1 66/129/1
f 48/83/3 67/125/3 64/126/3
f 46/86/4 66/122/4 67/124/4
f 55/130/2 64/210/2 65/131/2
f 63/22/3 68/202/3 70/88/3
f 64/133/6 70/211/6 69/134/6
f 65/127/1 69/118/1 59/34/1
f 42/93/1 72/143/1 69/118/1
f 44/91/2 71/116/2 72/64/2
f 49/136/4 69/113/4 70/115/4
f 51/101/3 70/88/3 71/89/3
f 77/47/6 79/212/6 86/137/6
f 86/138/4 79/213/4 80/139/4
f 79/58/1 77/214/1 78/141/1
f 102/142/4 100/215/4 89/119/4
f 73/144/3 75/216/3 76/145/3
f 84/147/2 73/217/2 74/148/2
f 88/150/2 84/147/2 81/149/2
f 81/152/5 83/218/5 87/153/5
f 75/154/4 82/162/4 83/155/4
f 84/21/6 82/60/6 75/156/6
f 94/157/5 91/164/5 100/158/5
f 77/160/2 88/150/2 85/151/2
f 82/162/4 86/138/4 87/140/4
f 88/45/6 86/137/6 82/60/6
f 90/163/5 89/219/5 100/158/5
f 101/165/1 91/220/1 100/166/1
f 103/168/3 89/221/3 90/169/3
f 104/171/2 90/222/2 91/172/2
f 94/157/5 95/159/5 93/18/5
f 98/175/1 92/223/1 93/176/1
f 99/178/4 93/224/4 95/179/4
f 97/181/2 94/188/2 92/182/2
f 85/151/2 97/181/2 98/183/2
f 80/139/4 99/178/4 96/180/4
f 78/141/1 98/175/1 99/177/1
f 87/184/3 96/225/3 97/185/3
f 95/179/4 100/215/4 102/142/4
f 96/186/6 102/226/6 101/187/6
f 97/181/2 101/173/2 91/172/2
f 74/148/2 104/171/2 101/173/2
f 76/145/3 103/168/3 104/170/3
f 81/75/1 101/165/1 102/167/1
f 83/155/4 102/142/4 103/143/4
