# Blender 4.2.3 LTS
# www.blender.org
o Cube
v 0.015424 0.023596 0.899419
v 0.412120 0.420291 0.424592
v 0.015424 0.975008 0.899419
v 0.412120 0.578313 0.424592
v 0.966837 0.023596 0.899419
v 0.570142 0.420291 0.424592
v 0.966837 0.975008 0.899419
v 0.570142 0.578313 0.424592
v 0.015424 0.975008 0.978079
v 0.966837 0.975008 0.978079
v 0.015424 0.023596 0.978079
v 0.966837 0.023596 0.978079
v 0.105372 0.885061 0.978079
v 0.876889 0.885061 0.978079
v 0.105372 0.113543 0.978079
v 0.876889 0.113543 0.978079
v 0.109999 0.885061 0.867030
v 0.881516 0.885061 0.867030
v 0.109999 0.113543 0.867030
v 0.881516 0.113543 0.867030
v 0.570142 0.420291 0.397495
v 0.570142 0.578313 0.287830
v 0.412120 0.420291 0.397495
v 0.412120 0.578313 0.287830
v 0.570142 0.402159 0.371367
v 0.570142 0.405869 0.261702
v 0.412120 0.402159 0.371367
v 0.412120 0.405869 0.261702
v 0.570142 0.004500 0.372779
v 0.570142 0.008210 0.263114
v 0.412120 0.004500 0.372779
v 0.412120 0.008210 0.263114
vn -1.0000 -0.0000 -0.0000
vn -0.0000 0.7674 -0.6411
vn 0.7674 -0.0000 -0.6411
vn -0.0000 -1.0000 -0.0000
vn -0.7674 -0.0000 -0.6411
vn -0.0000 -0.7674 -0.6411
vn -0.0000 -0.0000 1.0000
vn -0.0000 1.0000 -0.0000
vn 1.0000 -0.0000 -0.0000
vn 0.9991 -0.0000 0.0416
vn -0.9991 -0.0000 -0.0416
vn -0.0000 -0.0036 -1.0000
vn -0.0000 -0.8215 0.5701
vn -0.0000 0.1498 -0.9887
vn -0.0000 -0.9994 -0.0338
vn -0.0000 0.0036 1.0000
vt 0.421764 0.348311
vt 0.394893 0.023291
vt 0.421764 0.023291
vt 0.421765 0.726437
vt 0.583975 0.536935
vt 0.583975 0.590919
vt 0.050162 0.726437
vt 0.211238 0.536935
vt 0.211238 0.590919
vt 0.877544 0.158810
vt 0.886800 0.212793
vt 0.877544 0.212793
vt 0.585097 0.158810
vt 0.585097 0.212793
vt 0.714194 0.023291
vt 0.348311 0.023291
vt 0.054019 0.054019
vt 0.023291 0.023291
vt 0.714194 0.348311
vt 0.687323 0.023291
vt 0.394893 0.401417
vt 0.421765 0.401417
vt 0.023291 0.401417
vt 0.050162 0.401417
vt 0.677277 0.713144
vt 0.715214 0.975128
vt 0.677277 0.976709
vt 0.348311 0.348311
vt 0.317583 0.054019
vt 0.023291 0.348311
vt 0.054019 0.317583
vt 0.317583 0.317583
vt 0.677277 0.401417
vt 0.940842 0.664982
vt 0.677277 0.664981
vt 0.930844 0.711564
vt 0.968792 0.975128
vt 0.930844 0.975128
vt 0.846313 0.711564
vt 0.884261 0.975128
vt 0.846313 0.975128
vt 0.761796 0.975128
vt 0.799731 0.713144
vt 0.799731 0.976709
vt 0.631816 0.158810
vt 0.603279 0.218987
vt 0.594353 0.212793
vt 0.630695 0.590919
vt 0.220494 0.536935
vt 0.257956 0.590919
vt 0.077274 0.832425
vt 0.023291 0.967872
vt 0.023291 0.832425
vt 0.886800 0.158810
vt 0.895673 0.212793
vt 0.077274 0.773019
vt 0.023291 0.773019
vt 0.229419 0.530741
vt 0.266882 0.532009
vt 0.224422 0.773019
vt 0.261895 0.827002
vt 0.224422 0.827002
vt 0.266399 0.396161
vt 0.640259 0.353567
vt 0.602796 0.354835
vt 0.123856 0.908867
vt 0.177840 0.773019
vt 0.177840 0.908867
vt 0.394893 0.348311
vt 0.687323 0.348311
vt 0.394893 0.726437
vt 0.023291 0.726437
vt 0.715214 0.711564
vt 0.940842 0.401417
vt 0.968792 0.711564
vt 0.884261 0.711564
vt 0.761796 0.711564
vt 0.640741 0.217719
vt 0.630695 0.536935
vt 0.077274 0.967872
vt 0.895673 0.158810
vt 0.261895 0.773019
vt 0.228937 0.394893
vt 0.123856 0.773019
s 0
f 1/1/1 9/2/1 3/3/1
f 3/4/2 8/5/2 4/6/2
f 7/7/3 6/8/3 8/9/3
f 2/10/4 21/11/4 6/12/4
f 1/1/5 4/13/5 2/14/5
f 6/12/6 1/15/6 2/10/6
f 10/16/7 16/17/7 12/18/7
f 5/19/4 11/20/4 1/15/4
f 3/4/8 10/21/8 7/22/8
f 7/7/9 12/23/9 5/24/9
f 16/25/8 19/26/8 15/27/8
f 9/28/7 14/29/7 10/16/7
f 11/30/7 16/17/7 15/31/7
f 9/28/7 15/31/7 13/32/7
f 20/33/7 17/34/7 19/35/7
f 15/36/10 17/37/10 13/38/10
f 14/39/11 20/40/11 16/41/11
f 14/42/4 17/43/4 18/44/4
f 24/45/1 27/46/1 23/47/1
f 8/5/8 24/48/8 4/6/8
f 8/9/9 21/49/9 22/50/9
f 4/13/1 23/47/1 2/14/1
f 26/51/12 32/52/12 28/53/12
f 23/54/13 25/55/13 21/11/13
f 22/56/14 28/53/14 24/57/14
f 22/50/9 25/58/9 26/59/9
f 31/60/15 30/61/15 29/62/15
f 25/58/9 30/63/9 26/59/9
f 27/46/1 32/64/1 31/65/1
f 27/66/16 29/67/16 25/68/16
f 1/1/1 11/69/1 9/2/1
f 3/4/2 7/22/2 8/5/2
f 7/7/3 5/24/3 6/8/3
f 2/10/4 23/54/4 21/11/4
f 1/1/5 3/3/5 4/13/5
f 6/12/6 5/19/6 1/15/6
f 10/16/7 14/29/7 16/17/7
f 5/19/4 12/70/4 11/20/4
f 3/4/8 9/71/8 10/21/8
f 7/7/9 10/72/9 12/23/9
f 16/25/8 20/73/8 19/26/8
f 9/28/7 13/32/7 14/29/7
f 11/30/7 12/18/7 16/17/7
f 9/28/7 11/30/7 15/31/7
f 20/33/7 18/74/7 17/34/7
f 15/36/10 19/75/10 17/37/10
f 14/39/11 18/76/11 20/40/11
f 14/42/4 13/77/4 17/43/4
f 24/45/1 28/78/1 27/46/1
f 8/5/8 22/79/8 24/48/8
f 8/9/9 6/8/9 21/49/9
f 4/13/1 24/45/1 23/47/1
f 26/51/12 30/80/12 32/52/12
f 23/54/13 27/81/13 25/55/13
f 22/56/14 26/51/14 28/53/14
f 22/50/9 21/49/9 25/58/9
f 31/60/15 32/82/15 30/61/15
f 25/58/9 29/83/9 30/63/9
f 27/46/1 28/78/1 32/64/1
f 27/66/16 31/84/16 29/67/16
