# Blender 4.2.3 LTS
# www.blender.org
o Cube
v 0.620259 0.775559 0.620259
v 0.620259 0.775559 0.379741
v 1.000000 0.000000 1.000000
v 1.000000 0.000000 0.000000
v 0.379741 0.775559 0.620259
v 0.379741 0.775559 0.379741
v 0.000000 0.000000 1.000000
v 0.000000 0.000000 0.000000
v 1.000000 0.775559 0.000000
v 0.000000 0.775559 0.000000
v 1.000000 0.775559 1.000000
v 0.000000 0.775559 1.000000
v 0.620259 1.769756 0.379741
v 0.379741 1.769756 0.379741
v 0.620259 1.769756 0.620259
v 0.379741 1.769756 0.620259
v 0.379741 1.769756 0.988480
v 0.620259 1.769756 0.988480
v 0.379741 1.986356 0.988480
v 0.620259 1.986356 0.988480
v 0.620259 1.769756 0.011520
v 0.379741 1.769756 0.011520
v 0.620259 1.986356 0.011520
v 0.379741 1.986356 0.011520
v 0.977650 1.769756 0.620259
v 0.977650 1.769756 0.379741
v 0.977650 1.986356 0.620259
v 0.977650 1.986356 0.379741
v 0.977650 1.769756 0.988480
v 0.977650 1.986356 0.988480
v 0.977650 1.986356 0.011520
v 0.977650 1.769756 0.011520
v 0.014228 1.769756 0.620259
v 0.014228 1.769756 0.379741
v 0.014228 1.986356 0.620259
v 0.014228 1.986356 0.379741
v 0.014228 1.769756 0.988480
v 0.014228 1.986356 0.988480
v 0.014228 1.986356 0.011520
v 0.014228 1.769756 0.011520
vn -0.0000 -0.0000 1.0000
vn -0.0000 -1.0000 -0.0000
vn -1.0000 -0.0000 -0.0000
vn -0.0000 -0.0000 -1.0000
vn 1.0000 -0.0000 -0.0000
vn -0.0000 1.0000 -0.0000
vt 0.833493 0.298878
vt 0.606798 0.006578
vt 0.833493 0.006578
vt 0.006578 0.298878
vt 0.298878 0.006578
vt 0.298878 0.298878
vt 0.312034 0.604020
vt 0.538729 0.896320
vt 0.312034 0.896320
vt 0.833493 0.604333
vt 0.606798 0.312034
vt 0.833493 0.312034
vt 0.006578 0.617490
vt 0.233274 0.909789
vt 0.006578 0.909789
vt 0.606798 0.908093
vt 0.677101 0.617490
vt 0.677101 0.908093
vt 0.187879 0.493335
vt 0.298878 0.312034
vt 0.298878 0.604333
vt 0.187879 0.423032
vt 0.006578 0.312034
vt 0.117576 0.493335
vt 0.006578 0.604333
vt 0.117576 0.423032
vt 0.844020 0.617490
vt 0.773717 0.908093
vt 0.773717 0.617490
vt 0.916953 0.006578
vt 0.846650 0.297181
vt 0.846650 0.006578
vt 0.760561 0.617490
vt 0.690258 0.908093
vt 0.690258 0.617490
vt 0.486802 0.114209
vt 0.593642 0.184512
vt 0.486802 0.184512
vt 0.416499 0.114209
vt 0.312034 0.006578
vt 0.416499 0.006578
vt 0.416499 0.184512
vt 0.312034 0.114209
vt 0.486802 0.006578
vt 0.909962 0.417968
vt 0.909962 0.488271
vt 0.846650 0.488271
vt 0.416499 0.292143
vt 0.312034 0.184512
vt 0.857177 0.795424
vt 0.920489 0.725121
vt 0.920489 0.795424
vt 0.923119 0.487480
vt 0.923119 0.417177
vt 0.986431 0.417177
vt 0.593642 0.114209
vt 0.593642 0.292143
vt 0.486802 0.292143
vt 0.593641 0.412930
vt 0.312034 0.412930
vt 0.418873 0.305299
vt 0.993422 0.111043
vt 0.993422 0.181346
vt 0.930109 0.181346
vt 0.606798 0.298878
vt 0.006578 0.006578
vt 0.538729 0.604020
vt 0.606798 0.604333
vt 0.233274 0.617490
vt 0.606798 0.617490
vt 0.844020 0.908093
vt 0.916953 0.297181
vt 0.760561 0.908093
vt 0.846650 0.417968
vt 0.846650 0.310338
vt 0.909962 0.310338
vt 0.909962 0.595902
vt 0.846650 0.595902
vt 0.312034 0.292143
vt 0.857177 0.725121
vt 0.857177 0.617490
vt 0.920489 0.617490
vt 0.920489 0.903054
vt 0.857177 0.903054
vt 0.986431 0.487480
vt 0.986431 0.591945
vt 0.923119 0.591945
vt 0.923119 0.310338
vt 0.986431 0.310338
vt 0.593642 0.006578
vt 0.593641 0.483233
vt 0.593641 0.590864
vt 0.489176 0.590864
vt 0.418873 0.590864
vt 0.312034 0.590864
vt 0.312034 0.483233
vt 0.489176 0.305299
vt 0.593641 0.305299
vt 0.312034 0.305299
vt 0.930109 0.111043
vt 0.930109 0.006578
vt 0.993422 0.006578
vt 0.993422 0.288186
vt 0.930109 0.288186
s 0
f 12/1/1 3/2/1 11/3/1
f 3/4/2 8/5/2 4/6/2
f 7/7/3 10/8/3 8/9/3
f 9/10/4 8/11/4 10/12/4
f 11/13/5 4/14/5 9/15/5
f 5/16/3 14/17/3 6/18/3
f 6/19/6 9/20/6 10/21/6
f 2/22/6 11/23/6 9/20/6
f 5/24/6 10/21/6 12/25/6
f 1/26/6 12/25/6 11/23/6
f 6/27/4 13/28/4 2/29/4
f 1/30/1 16/31/1 5/32/1
f 2/33/5 15/34/5 1/35/5
f 16/36/2 34/37/2 14/38/2
f 15/39/2 29/40/2 18/41/2
f 13/42/2 25/43/2 15/39/2
f 15/39/2 17/44/2 16/36/2
f 25/45/5 26/46/5 28/47/5
f 14/38/2 21/48/2 13/42/2
f 21/48/2 26/49/2 13/42/2
f 34/50/3 35/51/3 36/52/3
f 21/53/4 22/54/4 24/55/4
f 17/44/2 33/56/2 16/36/2
f 14/38/2 40/57/2 22/58/2
f 27/59/6 35/60/6 19/61/6
f 20/62/1 19/63/1 17/64/1
f 12/1/1 7/65/1 3/2/1
f 3/4/2 7/66/2 8/5/2
f 7/7/3 12/67/3 10/8/3
f 9/10/4 4/68/4 8/11/4
f 11/13/5 3/69/5 4/14/5
f 5/16/3 16/70/3 14/17/3
f 6/19/6 2/22/6 9/20/6
f 2/22/6 1/26/6 11/23/6
f 5/24/6 6/19/6 10/21/6
f 1/26/6 5/24/6 12/25/6
f 6/27/4 14/71/4 13/28/4
f 1/30/1 15/72/1 16/31/1
f 2/33/5 13/73/5 15/34/5
f 16/36/2 33/56/2 34/37/2
f 15/39/2 25/43/2 29/40/2
f 13/42/2 26/49/2 25/43/2
f 15/39/2 18/41/2 17/44/2
f 27/74/5 30/75/5 29/76/5
f 27/74/5 29/76/5 25/45/5
f 32/77/5 31/78/5 28/47/5
f 28/47/5 27/74/5 25/45/5
f 26/46/5 32/77/5 28/47/5
f 14/38/2 22/58/2 21/48/2
f 21/48/2 32/79/2 26/49/2
f 33/80/3 37/81/3 38/82/3
f 33/80/3 38/82/3 35/51/3
f 39/83/3 40/84/3 34/50/3
f 34/50/3 33/80/3 35/51/3
f 36/52/3 39/83/3 34/50/3
f 23/85/4 31/86/4 32/87/4
f 23/85/4 32/87/4 21/53/4
f 40/88/4 39/89/4 24/55/4
f 24/55/4 23/85/4 21/53/4
f 22/54/4 40/88/4 24/55/4
f 17/44/2 37/90/2 33/56/2
f 14/38/2 34/37/2 40/57/2
f 28/91/6 31/92/6 23/93/6
f 24/94/6 39/95/6 36/96/6
f 28/91/6 23/93/6 24/94/6
f 20/97/6 30/98/6 27/59/6
f 27/59/6 28/91/6 24/94/6
f 24/94/6 36/96/6 35/60/6
f 35/60/6 38/99/6 19/61/6
f 19/61/6 20/97/6 27/59/6
f 27/59/6 24/94/6 35/60/6
f 18/100/1 29/101/1 30/102/1
f 18/100/1 30/102/1 20/62/1
f 38/103/1 37/104/1 17/64/1
f 17/64/1 18/100/1 20/62/1
f 19/63/1 38/103/1 17/64/1
