# Blender 4.2.3 LTS
# www.blender.org
o Cube
v 0.150776 0.543247 0.995520
v 0.150776 0.543247 -0.002039
v 0.150776 0.443974 0.995520
v 0.150776 0.443974 -0.002039
v 0.051503 0.543247 0.995520
v 0.051503 0.543247 -0.002039
v 0.051503 0.443974 0.995520
v 0.051503 0.443974 -0.002039
v 0.150776 0.443974 0.920013
v 0.150776 0.543247 0.920013
v 0.051503 0.543247 0.920013
v 0.051503 0.443974 0.920013
v 0.150776 0.443974 0.407285
v 0.150776 0.543247 0.407285
v 0.051503 0.543247 0.407285
v 0.051503 0.443974 0.407285
v 0.051503 0.443974 0.498693
v 0.150776 0.443974 0.498693
v 0.150776 0.543247 0.498693
v 0.051503 0.543247 0.498693
v 0.150776 0.543247 0.995520
v 0.150776 0.443974 0.995520
v 0.150776 0.443974 0.920013
v 0.150776 0.543247 0.920013
v 0.861497 0.543247 0.995520
v 0.861497 0.443974 0.995520
v 0.861497 0.443974 0.920013
v 0.861497 0.543247 0.920013
v 0.859241 0.443974 0.498693
v 0.859241 0.443974 0.407285
v 0.859241 0.543247 0.498693
v 0.859241 0.543247 0.407285
vn -0.0000 -0.0000 1.0000
vn -0.0000 -0.0000 -1.0000
vn -0.0000 -1.0000 -0.0000
vn -0.0000 1.0000 -0.0000
vn -1.0000 -0.0000 -0.0000
vn 1.0000 -0.0000 -0.0000
vt 0.814843 0.052090
vt 0.864021 0.002912
vt 0.864021 0.052090
vt 0.814843 0.107093
vt 0.864021 0.057915
vt 0.864021 0.107093
vt 0.353875 0.002912
vt 0.403053 0.040318
vt 0.353875 0.040318
vt 0.814843 0.222923
vt 0.408877 0.002912
vt 0.458056 0.040318
vt 0.408877 0.040318
vt 0.112918 0.502912
vt 0.162096 0.540318
vt 0.112918 0.540318
vt 0.112918 0.749033
vt 0.162096 0.749033
vt 0.458056 0.249033
vt 0.408877 0.249033
vt 0.584396 0.502912
vt 0.633575 0.711627
vt 0.584396 0.711627
vt 0.403053 0.249033
vt 0.353875 0.249033
vt 0.353875 0.294315
vt 0.403053 0.497088
vt 0.353875 0.497088
vt 0.639399 0.502912
vt 0.688577 0.705685
vt 0.639399 0.705685
vt 0.408877 0.294315
vt 0.458056 0.497088
vt 0.408877 0.497088
vt 0.112918 0.794315
vt 0.162096 0.997088
vt 0.112918 0.997088
vt 0.403053 0.294315
vt 0.387931 0.853875
vt 0.437109 0.502912
vt 0.437109 0.853875
vt 0.458056 0.294315
vt 0.162096 0.794315
vt 0.497937 0.854993
vt 0.535342 0.502912
vt 0.535342 0.854993
vt 0.814843 0.217099
vt 0.852248 0.167920
vt 0.852248 0.217099
vt 0.277926 0.854993
vt 0.327104 0.502912
vt 0.327104 0.854993
vt 0.382107 0.502912
vt 0.332928 0.854993
vt 0.332929 0.502912
vt 0.578572 0.502912
vt 0.541166 0.854993
vt 0.541166 0.502912
vt 0.814843 0.162096
vt 0.860125 0.112918
vt 0.860125 0.162096
vt 0.002912 0.249033
vt 0.492112 0.502912
vt 0.442934 0.853875
vt 0.442934 0.502912
vt 0.809018 0.294315
vt 0.814843 0.002912
vt 0.814843 0.057915
vt 0.403053 0.002912
vt 0.458056 0.002912
vt 0.162096 0.502912
vt 0.633575 0.502912
vt 0.688577 0.502912
vt 0.387931 0.502912
vt 0.497937 0.502912
vt 0.814843 0.167920
vt 0.277926 0.502912
vt 0.382107 0.854993
vt 0.578572 0.854993
vt 0.814843 0.112918
vt 0.002912 0.294315
vt 0.492112 0.853875
vt 0.809018 0.249033
s 0
f 5/1/1 3/2/1 1/3/1
f 2/4/2 8/5/2 6/6/2
f 3/7/3 12/8/3 9/9/3
f 10/10/1 21/10/1 24/10/1
f 5/11/4 10/12/4 11/13/4
f 7/14/5 11/15/5 12/16/5
f 17/17/5 11/15/5 20/18/5
f 11/13/4 19/19/4 20/20/4
f 10/21/6 18/22/6 19/23/6
f 9/9/3 17/24/3 18/25/3
f 13/26/3 8/27/3 4/28/3
f 14/29/6 4/30/6 2/31/6
f 15/32/4 2/33/4 6/34/4
f 16/35/5 6/36/5 8/37/5
f 18/25/3 16/38/3 13/26/3
f 18/39/1 31/40/1 19/41/1
f 20/20/4 14/42/4 15/32/4
f 16/35/5 20/18/5 15/43/5
f 21/44/4 28/45/4 24/46/4
f 9/10/1 24/10/1 23/10/1
f 1/10/1 22/10/1 21/10/1
f 3/10/1 23/10/1 22/10/1
f 25/47/6 27/48/6 28/49/6
f 22/50/1 25/51/1 21/52/1
f 24/53/2 27/54/2 23/55/2
f 23/56/3 26/57/3 22/58/3
f 31/59/6 30/60/6 32/61/6
f 13/26/3 29/62/3 18/25/3
f 14/63/2 30/64/2 13/65/2
f 19/19/4 32/66/4 14/42/4
f 5/1/1 7/67/1 3/2/1
f 2/4/2 4/68/2 8/5/2
f 3/7/3 7/69/3 12/8/3
f 10/10/1 1/10/1 21/10/1
f 5/11/4 1/70/4 10/12/4
f 7/14/5 5/71/5 11/15/5
f 17/17/5 12/16/5 11/15/5
f 11/13/4 10/12/4 19/19/4
f 10/21/6 9/72/6 18/22/6
f 9/9/3 12/8/3 17/24/3
f 13/26/3 16/38/3 8/27/3
f 14/29/6 13/73/6 4/30/6
f 15/32/4 14/42/4 2/33/4
f 16/35/5 15/43/5 6/36/5
f 18/25/3 17/24/3 16/38/3
f 18/39/1 29/74/1 31/40/1
f 20/20/4 19/19/4 14/42/4
f 16/35/5 17/17/5 20/18/5
f 21/44/4 25/75/4 28/45/4
f 9/10/1 10/10/1 24/10/1
f 1/10/1 3/10/1 22/10/1
f 3/10/1 9/10/1 23/10/1
f 25/47/6 26/76/6 27/48/6
f 22/50/1 26/77/1 25/51/1
f 24/53/2 28/78/2 27/54/2
f 23/56/3 27/79/3 26/57/3
f 31/59/6 29/80/6 30/60/6
f 13/26/3 30/81/3 29/62/3
f 14/63/2 32/82/2 30/64/2
f 19/19/4 31/83/4 32/66/4
o Cube.001
v 0.958584 0.542997 0.995903
v 0.958584 0.542997 -0.001656
v 0.958584 0.443724 0.995903
v 0.958584 0.443724 -0.001656
v 0.859311 0.542997 0.995903
v 0.859311 0.542997 -0.001656
v 0.859311 0.443724 0.995903
v 0.859311 0.443724 -0.001656
vn -0.0000 -0.0000 1.0000
vn -0.0000 -0.0000 -1.0000
vn -0.0000 -1.0000 -0.0000
vn 1.0000 -0.0000 -0.0000
vn -0.0000 1.0000 -0.0000
vn -1.0000 -0.0000 -0.0000
vt 0.694402 0.552090
vt 0.743580 0.502912
vt 0.743580 0.552090
vt 0.749404 0.552090
vt 0.798583 0.502912
vt 0.798583 0.552090
vt 0.167920 0.502912
vt 0.217099 0.997088
vt 0.167920 0.997088
vt 0.002912 0.502912
vt 0.052090 0.997088
vt 0.002912 0.997088
vt 0.222923 0.502912
vt 0.272101 0.997088
vt 0.222923 0.997088
vt 0.057915 0.502912
vt 0.107093 0.997088
vt 0.057915 0.997088
vt 0.694402 0.502912
vt 0.749404 0.502912
vt 0.217099 0.502912
vt 0.052090 0.502912
vt 0.272101 0.502912
vt 0.107093 0.502912
s 0
f 37/84/7 35/85/7 33/86/7
f 34/87/8 40/88/8 38/89/8
f 35/90/9 40/91/9 36/92/9
f 33/93/10 36/94/10 34/95/10
f 37/96/11 34/97/11 38/98/11
f 39/99/12 38/100/12 40/101/12
f 37/84/7 39/102/7 35/85/7
f 34/87/8 36/103/8 40/88/8
f 35/90/9 39/104/9 40/91/9
f 33/93/10 35/105/10 36/94/10
f 37/96/11 33/106/11 34/97/11
f 39/99/12 37/107/12 38/100/12
