# Blender 4.2.3 LTS
# www.blender.org
o Cube
v 1.000000 1.000000 1.000000
v 1.000000 1.000000 0.000000
v 1.000000 0.000000 1.000000
v 1.000000 0.000000 0.000000
v 0.000000 1.000000 1.000000
v 0.000000 1.000000 0.000000
v 0.000000 0.000000 1.000000
v 0.000000 0.000000 0.000000
v 0.500000 0.964189 0.000000
v 0.500000 0.291414 0.850652
v 0.500000 0.291414 0.000000
v 0.500000 0.964189 0.850652
v 0.750000 0.291414 0.000000
v 0.750000 0.774336 0.850652
v 0.750000 0.774336 0.000000
v 0.750000 0.291414 0.850652
v 0.250000 0.774336 0.000000
v 0.250000 0.291414 0.850652
v 0.250000 0.291414 0.000000
v 0.250000 0.774336 0.850652
vn 0.5128 -0.0000 0.8585
vn 0.7590 -0.6511 -0.0000
vn -1.0000 -0.0000 -0.0000
vn -0.0000 -0.0000 -1.0000
vn 1.0000 -0.0000 -0.0000
vn -0.6701 0.7423 -0.0000
vn -0.6048 0.7964 -0.0000
vn -0.0000 -1.0000 -0.0000
vn -0.0000 -0.0000 1.0000
vn -0.5128 -0.0000 0.8585
vn -0.7590 -0.6511 -0.0000
vn 0.6048 0.7964 -0.0000
vn 0.6701 0.7423 -0.0000
vt 0.347941 0.347941
vt 0.103227 0.261602
vt 0.270006 0.261602
vt 0.703637 0.353111
vt 0.804279 0.646889
vt 0.703637 0.646889
vt 0.002585 0.698467
vt 0.347941 0.353111
vt 0.347941 0.698467
vt 0.698467 0.347941
vt 0.453753 0.261602
vt 0.620532 0.261602
vt 0.353111 0.698467
vt 0.698467 0.353111
vt 0.698467 0.698467
vt 0.915261 0.353111
vt 0.993196 0.646889
vt 0.915261 0.646889
vt 0.786742 0.652059
vt 0.852309 0.945837
vt 0.786742 0.945837
vt 0.620532 0.088924
vt 0.453753 0.175263
vt 0.453753 0.088924
vt 0.703637 0.002585
vt 0.789976 0.296363
vt 0.703637 0.296363
vt 0.270006 0.088924
vt 0.103227 0.175263
vt 0.103227 0.088924
vt 0.347941 0.002585
vt 0.002585 0.002585
vt 0.809449 0.646889
vt 0.910091 0.353111
vt 0.910091 0.646889
vt 0.857480 0.652059
vt 0.923046 0.945837
vt 0.857480 0.945837
vt 0.686099 0.175263
vt 0.698467 0.002585
vt 0.353111 0.002585
vt 0.703637 0.997415
vt 0.781572 0.703637
vt 0.781572 0.997415
vt 0.789976 0.002585
vt 0.876315 0.296363
vt 0.335573 0.175263
vt 0.002585 0.347941
vt 0.804279 0.301533
vt 0.002585 0.353111
vt 0.353111 0.347941
vt 0.353111 0.353111
vt 0.993196 0.301533
vt 0.852309 0.652059
vt 0.809449 0.301533
vt 0.923046 0.652059
vt 0.703637 0.652059
vt 0.876315 0.002585
s 0
f 5/1/1 18/2/1 20/3/1
f 18/4/2 8/5/2 19/6/2
f 7/7/3 6/8/3 8/9/3
f 2/10/4 13/11/4 15/12/4
f 1/13/5 4/14/5 2/15/5
f 14/16/6 2/17/6 15/18/6
f 20/19/7 9/20/7 17/21/7
f 17/22/4 11/23/4 19/24/4
f 16/25/8 11/26/8 13/27/8
f 14/28/9 10/29/9 16/30/9
f 1/31/10 16/30/10 3/32/10
f 4/33/11 16/34/11 13/35/11
f 12/36/12 15/37/12 9/38/12
f 15/12/4 11/23/4 9/39/4
f 6/40/4 19/24/4 8/41/4
f 6/42/13 20/43/13 17/44/13
f 10/45/8 19/46/8 11/26/8
f 20/3/9 10/29/9 12/47/9
f 5/1/1 7/48/1 18/2/1
f 18/4/2 7/49/2 8/5/2
f 7/7/3 5/50/3 6/8/3
f 2/10/4 4/51/4 13/11/4
f 1/13/5 3/52/5 4/14/5
f 14/16/6 1/53/6 2/17/6
f 20/19/7 12/54/7 9/20/7
f 17/22/4 9/39/4 11/23/4
f 16/25/8 10/45/8 11/26/8
f 14/28/9 12/47/9 10/29/9
f 1/31/10 14/28/10 16/30/10
f 4/33/11 3/55/11 16/34/11
f 12/36/12 14/56/12 15/37/12
f 15/12/4 13/11/4 11/23/4
f 6/40/4 17/22/4 19/24/4
f 6/42/13 5/57/13 20/43/13
f 10/45/8 18/58/8 19/46/8
f 20/3/9 18/2/9 10/29/9
