# Blender 4.2.3 LTS
# www.blender.org
o Cube
v 1.000000 1.000000 2.000000
v 1.000000 1.000000 0.000000
v 1.000000 0.830528 2.000000
v 1.000000 0.830528 0.000000
v 0.000000 1.000000 2.000000
v 0.000000 1.000000 0.000000
v 0.000000 0.830528 2.000000
v 0.000000 0.830528 0.000000
v 0.905738 1.000000 0.000000
v 0.905738 0.830528 2.000000
v 0.905738 0.830528 0.000000
v 0.905738 1.000000 2.000000
v 0.102527 1.000000 0.000000
v 0.102527 0.830528 2.000000
v 0.102527 0.830528 0.000000
v 0.102527 1.000000 2.000000
v 1.000000 1.000000 1.902496
v 0.000000 0.830528 1.902496
v 1.000000 0.830528 1.902496
v 0.000000 1.000000 1.902496
v 0.905738 1.000000 1.902496
v 0.905738 0.830528 1.902496
v 0.102527 1.000000 1.902496
v 0.102527 0.830528 1.902496
v 0.102527 0.830528 1.905492
v 0.905738 0.830528 1.905492
v 0.905738 1.000000 1.905492
v 0.102527 1.000000 1.905492
v 0.107887 0.849901 0.006893
v 0.107887 0.849901 1.897648
v 0.107887 0.972488 0.006893
v 0.107887 0.972488 1.897648
v 0.898815 0.849901 0.006893
v 0.898815 0.849901 1.897648
v 0.898815 0.972488 0.006893
v 0.898815 0.972488 1.897648
vn -0.0000 -0.0000 1.0000
vn -0.0000 -1.0000 -0.0000
vn -1.0000 -0.0000 -0.0000
vn -0.0000 -0.0000 -1.0000
vn 1.0000 -0.0000 -0.0000
vn -0.0000 1.0000 -0.0000
vt 0.738161 0.367886
vt 0.676760 0.330740
vt 0.738161 0.330740
vt 0.005579 0.042725
vt 0.023242 0.005579
vt 0.023242 0.042725
vt 0.676760 0.379044
vt 0.738161 0.396707
vt 0.676760 0.396707
vt 0.427347 0.774329
vt 0.461499 0.712928
vt 0.461499 0.774329
vt 0.749319 0.005579
vt 0.810720 0.023242
vt 0.749319 0.023242
vt 0.005579 0.413195
vt 0.023242 0.379044
vt 0.023242 0.413195
vt 0.005579 0.704205
vt 0.023242 0.704205
vt 0.005579 0.367886
vt 0.023242 0.333734
vt 0.023242 0.367886
vt 0.738161 0.039730
vt 0.676760 0.005579
vt 0.738161 0.005579
vt 0.379044 0.774329
vt 0.416190 0.712928
vt 0.416190 0.774329
vt 0.005579 0.741351
vt 0.023242 0.741351
vt 0.005579 0.333734
vt 0.676760 0.039730
vt 0.367886 0.704205
vt 0.367886 0.741351
vt 0.367886 0.333735
vt 0.367886 0.367886
vt 0.883278 0.652933
vt 0.821877 0.361923
vt 0.883278 0.361923
vt 0.367886 0.379044
vt 0.367886 0.413195
vt 0.810720 0.367886
vt 0.749319 0.367886
vt 0.738161 0.741351
vt 0.676760 0.741351
vt 0.367886 0.005579
vt 0.367886 0.042725
vt 0.749319 0.724231
vt 0.810720 0.379044
vt 0.810720 0.724231
vt 0.821877 0.350766
vt 0.883278 0.005579
vt 0.883278 0.350766
vt 0.894436 0.005579
vt 0.938850 0.348096
vt 0.894436 0.348096
vt 0.379044 0.005579
vt 0.665603 0.348096
vt 0.379044 0.348096
vt 0.950007 0.005579
vt 0.994421 0.348096
vt 0.950007 0.348096
vt 0.379044 0.359253
vt 0.665603 0.701771
vt 0.379044 0.701771
vt 0.866291 0.950649
vt 0.821877 0.664090
vt 0.866291 0.664090
vt 0.921863 0.950649
vt 0.877449 0.664090
vt 0.921863 0.664090
vt 0.676760 0.367886
vt 0.005579 0.005579
vt 0.738161 0.379044
vt 0.427347 0.712928
vt 0.810720 0.005579
vt 0.005579 0.379044
vt 0.379044 0.712928
vt 0.821877 0.652933
vt 0.749319 0.379044
vt 0.821877 0.005579
vt 0.938850 0.005579
vt 0.665603 0.005579
vt 0.994421 0.005579
vt 0.665603 0.359253
vt 0.821877 0.950649
vt 0.877449 0.950649
s 0
f 5/1/1 14/2/1 16/3/1
f 14/4/2 18/5/2 24/6/2
f 7/7/3 20/8/3 18/9/3
f 2/10/4 11/11/4 9/12/4
f 1/13/5 19/14/5 17/15/5
f 12/16/6 17/17/6 21/18/6
f 16/19/6 21/18/6 23/20/6
f 3/21/2 22/22/2 19/23/2
f 12/24/1 3/25/1 1/26/1
f 13/27/4 8/28/4 6/29/4
f 5/30/6 23/20/6 20/31/6
f 10/32/2 24/6/2 22/22/2
f 16/3/1 10/33/1 12/24/1
f 20/31/6 13/34/6 6/35/6
f 19/23/2 11/36/2 4/37/2
f 27/38/4 25/39/4 28/40/4
f 21/18/6 2/41/6 9/42/6
f 17/15/5 4/43/5 2/44/5
f 18/9/3 6/45/3 8/46/3
f 24/6/2 8/47/2 15/48/2
f 11/49/3 27/50/3 9/51/3
f 13/52/5 25/53/5 15/54/5
f 30/55/3 31/56/3 29/57/3
f 32/58/6 35/59/6 31/60/6
f 36/61/5 33/62/5 35/63/5
f 34/64/2 29/65/2 33/66/2
f 35/67/4 29/68/4 31/69/4
f 32/70/1 34/71/1 36/72/1
f 5/1/1 7/73/1 14/2/1
f 14/4/2 7/74/2 18/5/2
f 7/7/3 5/75/3 20/8/3
f 2/10/4 4/76/4 11/11/4
f 1/13/5 3/77/5 19/14/5
f 12/16/6 1/78/6 17/17/6
f 16/19/6 12/16/6 21/18/6
f 3/21/2 10/32/2 22/22/2
f 12/24/1 10/33/1 3/25/1
f 13/27/4 15/79/4 8/28/4
f 5/30/6 16/19/6 23/20/6
f 10/32/2 14/4/2 24/6/2
f 16/3/1 14/2/1 10/33/1
f 20/31/6 23/20/6 13/34/6
f 19/23/2 22/22/2 11/36/2
f 27/38/4 26/80/4 25/39/4
f 21/18/6 17/17/6 2/41/6
f 17/15/5 19/14/5 4/43/5
f 18/9/3 20/8/3 6/45/3
f 24/6/2 18/5/2 8/47/2
f 11/49/3 26/81/3 27/50/3
f 13/52/5 28/82/5 25/53/5
f 30/55/3 32/83/3 31/56/3
f 32/58/6 36/84/6 35/59/6
f 36/61/5 34/85/5 33/62/5
f 34/64/2 30/86/2 29/65/2
f 35/67/4 33/87/4 29/68/4
f 32/70/1 30/88/1 34/71/1
