# Blender 4.2.3 LTS
# www.blender.org
o Cube
v 0.132432 0.140538 0.027060
v 0.132432 0.140538 0.199896
v 0.132432 0.313373 0.027060
v 0.132432 0.313373 0.199896
v 0.305268 0.140538 0.027060
v 0.305268 0.140538 0.199896
v 0.305268 0.313373 0.027060
v 0.305268 0.313373 0.199896
v 0.229699 0.602555 0.027060
v 0.229699 0.602555 0.199896
v 0.229699 0.775390 0.027060
v 0.229699 0.775390 0.199896
v 0.402534 0.602555 0.027060
v 0.402534 0.602555 0.199896
v 0.402534 0.775390 0.027060
v 0.402534 0.775390 0.199896
v 0.634977 0.286438 0.027060
v 0.634977 0.286438 0.199896
v 0.634977 0.459273 0.027060
v 0.634977 0.459273 0.199896
v 0.807812 0.286438 0.027060
v 0.807812 0.286438 0.199896
v 0.807812 0.459273 0.027060
v 0.807812 0.459273 0.199896
vn -0.0000 -0.0000 -1.0000
vn -0.0000 1.0000 -0.0000
vn 1.0000 -0.0000 -0.0000
vn -0.0000 -0.0000 1.0000
vn -1.0000 -0.0000 -0.0000
vn -0.0000 -1.0000 -0.0000
vt 0.196525 0.196525
vt 0.003475 0.003475
vt 0.196525 0.003475
vt 0.003475 0.396525
vt 0.196525 0.203475
vt 0.196525 0.396525
vt 0.203475 0.196525
vt 0.396525 0.003475
vt 0.396525 0.196525
vt 0.396525 0.396525
vt 0.203475 0.203475
vt 0.396525 0.203475
vt 0.003475 0.596525
vt 0.196525 0.403475
vt 0.196525 0.596525
vt 0.203475 0.596525
vt 0.396525 0.403475
vt 0.396525 0.596525
vt 0.596525 0.196525
vt 0.403475 0.003475
vt 0.596525 0.003475
vt 0.403475 0.396525
vt 0.596525 0.203475
vt 0.596525 0.396525
vt 0.403475 0.596525
vt 0.596525 0.403475
vt 0.596525 0.596525
vt 0.196525 0.796525
vt 0.003475 0.603475
vt 0.196525 0.603475
vt 0.203475 0.796525
vt 0.396525 0.603475
vt 0.396525 0.796525
vt 0.403475 0.796525
vt 0.596525 0.603475
vt 0.596525 0.796525
vt 0.796525 0.196525
vt 0.603475 0.003475
vt 0.796525 0.003475
vt 0.603475 0.396525
vt 0.796525 0.203475
vt 0.796525 0.396525
vt 0.603475 0.596525
vt 0.796525 0.403475
vt 0.796525 0.596525
vt 0.796525 0.796525
vt 0.603475 0.603475
vt 0.796525 0.603475
vt 0.003475 0.996525
vt 0.196525 0.803475
vt 0.196525 0.996525
vt 0.203475 0.996525
vt 0.396525 0.803475
vt 0.396525 0.996525
vt 0.003475 0.196525
vt 0.003475 0.203475
vt 0.203475 0.003475
vt 0.203475 0.396525
vt 0.003475 0.403475
vt 0.203475 0.403475
vt 0.403475 0.196525
vt 0.403475 0.203475
vt 0.403475 0.403475
vt 0.003475 0.796525
vt 0.203475 0.603475
vt 0.403475 0.603475
vt 0.603475 0.196525
vt 0.603475 0.203475
vt 0.603475 0.403475
vt 0.603475 0.796525
vt 0.003475 0.803475
vt 0.203475 0.803475
s 0
f 5/1/1 1/3/1 3/2/1
f 3/4/2 4/6/2 8/5/2
f 7/7/3 8/9/3 6/8/3
f 2/10/4 6/12/4 8/11/4
f 1/13/5 2/15/5 4/14/5
f 5/16/6 6/18/6 2/17/6
f 13/19/1 9/21/1 11/20/1
f 11/22/2 12/24/2 16/23/2
f 15/25/3 16/27/3 14/26/3
f 10/28/4 14/30/4 16/29/4
f 9/31/5 10/33/5 12/32/5
f 13/34/6 14/36/6 10/35/6
f 21/37/1 17/39/1 19/38/1
f 19/40/2 20/42/2 24/41/2
f 23/43/3 24/45/3 22/44/3
f 18/46/4 22/48/4 24/47/4
f 17/49/5 18/51/5 20/50/5
f 21/52/6 22/54/6 18/53/6
f 5/1/1 3/2/1 7/55/1
f 3/4/2 8/5/2 7/56/2
f 7/7/3 6/8/3 5/57/3
f 2/10/4 8/11/4 4/58/4
f 1/13/5 4/14/5 3/59/5
f 5/16/6 2/17/6 1/60/6
f 13/19/1 11/20/1 15/61/1
f 11/22/2 16/23/2 15/62/2
f 15/25/3 14/26/3 13/63/3
f 10/28/4 16/29/4 12/64/4
f 9/31/5 12/32/5 11/65/5
f 13/34/6 10/35/6 9/66/6
f 21/37/1 19/38/1 23/67/1
f 19/40/2 24/41/2 23/68/2
f 23/43/3 22/44/3 21/69/3
f 18/46/4 24/47/4 20/70/4
f 17/49/5 20/50/5 19/71/5
f 21/52/6 18/53/6 17/72/6
