# Blender 4.2.3 LTS
# www.blender.org
o Cube
v 0.163429 0.155611 0.112613
v 0.163429 0.155611 0.794259
v 0.163429 0.837257 0.112613
v 0.163429 0.837257 0.794259
v 0.845075 0.155611 0.112613
v 0.845075 0.155611 0.794259
v 0.845075 0.837257 0.112613
v 0.845075 0.837257 0.794259
v 0.604252 0.996434 0.050000
v 0.404252 0.996434 0.050000
v 0.604252 0.996434 -0.050000
v 0.404252 0.996434 -0.050000
v 0.604252 -0.003566 0.050000
v 0.404252 -0.003566 0.050000
v 0.604252 -0.003566 -0.050000
v 0.404252 -0.003566 -0.050000
v 0.604252 0.097094 -0.050000
v 0.404252 0.097094 -0.050000
v 0.604252 -0.002906 -0.050000
v 0.404252 -0.002906 -0.050000
v 0.604252 0.097094 0.950000
v 0.404252 0.097094 0.950000
v 0.604252 -0.002906 0.950000
v 0.404252 -0.002906 0.950000
v 0.604252 0.992083 -0.050000
v 0.404252 0.992083 -0.050000
v 0.604252 0.892083 -0.050000
v 0.404252 0.892083 -0.050000
v 0.604252 0.992083 0.950000
v 0.404252 0.992083 0.950000
v 0.604252 0.892083 0.950000
v 0.404252 0.892083 0.950000
v 0.604252 0.996434 0.950000
v 0.404252 0.996434 0.950000
v 0.604252 0.996434 0.850000
v 0.404252 0.996434 0.850000
v 0.604252 -0.003566 0.950000
v 0.404252 -0.003566 0.950000
v 0.604252 -0.003566 0.850000
v 0.404252 -0.003566 0.850000
v 1.004252 0.396434 0.050000
v 1.004252 0.596434 0.050000
v 1.004252 0.396434 -0.050000
v 1.004252 0.596434 -0.050000
v 0.004252 0.396434 0.050000
v 0.004252 0.596434 0.050000
v 0.004252 0.396434 -0.050000
v 0.004252 0.596434 -0.050000
v 0.104912 0.396434 -0.050000
v 0.104912 0.596434 -0.050000
v 0.004912 0.396434 -0.050000
v 0.004912 0.596434 -0.050000
v 0.104912 0.396434 0.950000
v 0.104912 0.596434 0.950000
v 0.004912 0.396434 0.950000
v 0.004912 0.596434 0.950000
v 0.999901 0.396434 -0.050000
v 0.999901 0.596434 -0.050000
v 0.899901 0.396434 -0.050000
v 0.899901 0.596434 -0.050000
v 0.999901 0.396434 0.950000
v 0.999901 0.596434 0.950000
v 0.899901 0.396434 0.950000
v 0.899901 0.596434 0.950000
v 1.004252 0.396434 0.950000
v 1.004252 0.596434 0.950000
v 1.004252 0.396434 0.850000
v 1.004252 0.596434 0.850000
v 0.004252 0.396434 0.950000
v 0.004252 0.596434 0.950000
v 0.004252 0.396434 0.850000
v 0.004252 0.596434 0.850000
vn -1.0000 -0.0000 -0.0000
vn -0.0000 1.0000 -0.0000
vn 1.0000 -0.0000 -0.0000
vn -0.0000 -1.0000 -0.0000
vn -0.0000 -0.0000 -1.0000
vn -0.0000 -0.0000 1.0000
vt 0.005786 0.218209
vt 0.218209 0.005786
vt 0.218209 0.218209
vt 0.005786 0.442204
vt 0.218209 0.229781
vt 0.218209 0.442204
vt 0.229781 0.218209
vt 0.442204 0.005786
vt 0.442204 0.218209
vt 0.229781 0.442204
vt 0.442204 0.229781
vt 0.442204 0.442204
vt 0.218209 0.666199
vt 0.005786 0.453776
vt 0.218209 0.453776
vt 0.442204 0.666199
vt 0.229781 0.453776
vt 0.442204 0.453776
vt 0.596977 0.677771
vt 0.628141 0.989403
vt 0.596977 0.989403
vt 0.601574 0.317418
vt 0.663900 0.005786
vt 0.663900 0.317418
vt 0.951478 0.391317
vt 0.920315 0.328991
vt 0.951478 0.328991
vt 0.639713 0.677771
vt 0.670876 0.989403
vt 0.639713 0.989403
vt 0.920315 0.402889
vt 0.951478 0.465216
vt 0.920315 0.465216
vt 0.663900 0.328991
vt 0.601574 0.640622
vt 0.601574 0.328991
vt 0.834843 0.328991
vt 0.866006 0.640622
vt 0.834843 0.640622
vt 0.675473 0.317418
vt 0.737799 0.005786
vt 0.737799 0.317418
vt 0.963050 0.005786
vt 0.994214 0.068113
vt 0.963050 0.068113
vt 0.866006 0.963826
vt 0.834843 0.652195
vt 0.866006 0.652195
vt 0.994214 0.142012
vt 0.963050 0.079685
vt 0.994214 0.079685
vt 0.737799 0.328991
vt 0.675473 0.640622
vt 0.675473 0.328991
vt 0.792108 0.652195
vt 0.823271 0.963826
vt 0.792108 0.963826
vt 0.153584 0.989403
vt 0.215910 0.677771
vt 0.215910 0.989403
vt 0.963050 0.153584
vt 0.994214 0.215910
vt 0.963050 0.215910
vt 0.866006 0.317418
vt 0.834843 0.005786
vt 0.866006 0.005786
vt 0.951478 0.539115
vt 0.920315 0.476788
vt 0.951478 0.476788
vt 0.289809 0.677771
vt 0.227483 0.989403
vt 0.227483 0.677771
vt 0.682449 0.677771
vt 0.713612 0.989403
vt 0.682449 0.989403
vt 0.005786 0.989403
vt 0.068113 0.677771
vt 0.068113 0.989403
vt 0.951478 0.613014
vt 0.920315 0.550687
vt 0.951478 0.550687
vt 0.749372 0.005786
vt 0.780535 0.317418
vt 0.749372 0.317418
vt 0.920315 0.624586
vt 0.951478 0.686912
vt 0.920315 0.686912
vt 0.142011 0.677771
vt 0.079685 0.989403
vt 0.079685 0.677771
vt 0.780535 0.640622
vt 0.749372 0.328991
vt 0.780535 0.328991
vt 0.453776 0.317418
vt 0.516103 0.005786
vt 0.516102 0.317418
vt 0.951478 0.698485
vt 0.920315 0.760811
vt 0.920315 0.698485
vt 0.749372 0.652195
vt 0.780535 0.963826
vt 0.749372 0.963826
vt 0.951478 0.834710
vt 0.920315 0.772384
vt 0.951478 0.772384
vt 0.453776 0.640622
vt 0.516103 0.328991
vt 0.516103 0.640622
vt 0.877579 0.005786
vt 0.908742 0.317418
vt 0.877579 0.317418
vt 0.301382 0.989403
vt 0.363708 0.677771
vt 0.363708 0.989403
vt 0.963050 0.227483
vt 0.994214 0.289809
vt 0.963050 0.289809
vt 0.908742 0.640622
vt 0.877579 0.328990
vt 0.908742 0.328990
vt 0.963050 0.301382
vt 0.994214 0.363708
vt 0.963050 0.363708
vt 0.437607 0.677771
vt 0.375281 0.989403
vt 0.375281 0.677771
vt 0.877579 0.652195
vt 0.908742 0.963826
vt 0.877579 0.963826
vt 0.511506 0.989403
vt 0.449180 0.677771
vt 0.511506 0.677771
vt 0.963050 0.375281
vt 0.994214 0.437607
vt 0.963050 0.437607
vt 0.951478 0.317418
vt 0.920315 0.005786
vt 0.951478 0.005786
vt 0.963050 0.511506
vt 0.994214 0.449180
vt 0.994214 0.511506
vt 0.585405 0.677771
vt 0.523079 0.989403
vt 0.523079 0.677771
vt 0.792108 0.005786
vt 0.823271 0.317418
vt 0.792108 0.317418
vt 0.527675 0.317418
vt 0.590001 0.005786
vt 0.590001 0.317418
vt 0.920315 0.846283
vt 0.951478 0.908609
vt 0.920315 0.908609
vt 0.792108 0.328991
vt 0.823271 0.640622
vt 0.792108 0.640622
vt 0.951478 0.920182
vt 0.920315 0.982508
vt 0.920315 0.920182
vt 0.590001 0.328991
vt 0.527675 0.640622
vt 0.527675 0.328991
vt 0.005786 0.005786
vt 0.005786 0.229781
vt 0.229781 0.005786
vt 0.229781 0.229781
vt 0.005786 0.666199
vt 0.229781 0.666199
vt 0.628141 0.677771
vt 0.601574 0.005786
vt 0.920315 0.391317
vt 0.670876 0.677771
vt 0.951478 0.402889
vt 0.663900 0.640622
vt 0.866006 0.328991
vt 0.675473 0.005786
vt 0.994214 0.005786
vt 0.834843 0.963826
vt 0.963050 0.142012
vt 0.737799 0.640622
vt 0.823271 0.652195
vt 0.153584 0.677771
vt 0.994214 0.153584
vt 0.834843 0.317418
vt 0.920315 0.539115
vt 0.289809 0.989403
vt 0.713612 0.677771
vt 0.005786 0.677771
vt 0.920315 0.613014
vt 0.780535 0.005786
vt 0.951478 0.624586
vt 0.142011 0.989403
vt 0.749372 0.640622
vt 0.453776 0.005786
vt 0.951478 0.760811
vt 0.780535 0.652195
vt 0.920315 0.834710
vt 0.453776 0.328991
vt 0.908742 0.005786
vt 0.301382 0.677771
vt 0.994214 0.227483
vt 0.877579 0.640622
vt 0.994214 0.301382
vt 0.437607 0.989403
vt 0.908742 0.652195
vt 0.449180 0.989403
vt 0.994214 0.375281
vt 0.920315 0.317418
vt 0.963050 0.449180
vt 0.585405 0.989403
vt 0.823271 0.005786
vt 0.527675 0.005786
vt 0.951478 0.846283
vt 0.823271 0.328991
vt 0.951478 0.982508
vt 0.590001 0.640622
s 0
f 2/1/1 3/2/1 1/3/1
f 4/4/2 7/5/2 3/6/2
f 8/7/3 5/8/3 7/9/3
f 6/10/4 1/11/4 5/12/4
f 7/13/5 1/14/5 3/15/5
f 4/16/6 6/17/6 8/18/6
f 13/19/3 11/20/3 9/21/3
f 11/22/5 16/23/5 12/24/5
f 15/25/4 14/26/4 16/27/4
f 10/28/1 16/29/1 14/30/1
f 9/31/2 12/32/2 10/33/2
f 13/34/6 10/35/6 14/36/6
f 21/37/3 19/38/3 17/39/3
f 19/40/4 24/41/4 20/42/4
f 23/43/6 22/44/6 24/45/6
f 18/46/1 24/47/1 22/48/1
f 17/49/5 20/50/5 18/51/5
f 21/52/2 18/53/2 22/54/2
f 29/55/3 27/56/3 25/57/3
f 27/58/4 32/59/4 28/60/4
f 31/61/6 30/62/6 32/63/6
f 26/64/1 32/65/1 30/66/1
f 25/67/5 28/68/5 26/69/5
f 29/70/2 26/71/2 30/72/2
f 37/73/3 35/74/3 33/75/3
f 35/76/5 40/77/5 36/78/5
f 39/79/4 38/80/4 40/81/4
f 34/82/1 40/83/1 38/84/1
f 33/85/2 36/86/2 34/87/2
f 37/88/6 34/89/6 38/90/6
f 45/91/4 43/92/4 41/93/4
f 43/94/5 48/95/5 44/96/5
f 48/97/1 45/98/1 46/99/1
f 42/100/2 48/101/2 46/102/2
f 41/103/3 44/104/3 42/105/3
f 45/106/6 42/107/6 46/108/6
f 53/109/4 51/110/4 49/111/4
f 51/112/1 56/113/1 52/114/1
f 55/115/6 54/116/6 56/117/6
f 50/118/2 56/119/2 54/120/2
f 49/121/5 52/122/5 50/123/5
f 53/124/3 50/125/3 54/126/3
f 61/127/4 59/128/4 57/129/4
f 60/130/1 63/131/1 64/132/1
f 63/133/6 62/134/6 64/135/6
f 58/136/2 64/137/2 62/138/2
f 58/139/5 59/140/5 60/141/5
f 61/142/3 58/143/3 62/144/3
f 69/145/4 67/146/4 65/147/4
f 67/148/5 72/149/5 68/150/5
f 71/151/1 70/152/1 72/153/1
f 66/154/2 72/155/2 70/156/2
f 66/157/3 67/158/3 68/159/3
f 69/160/6 66/161/6 70/162/6
f 2/1/1 4/163/1 3/2/1
f 4/4/2 8/164/2 7/5/2
f 8/7/3 6/165/3 5/8/3
f 6/10/4 2/166/4 1/11/4
f 7/13/5 5/167/5 1/14/5
f 4/16/6 2/168/6 6/17/6
f 13/19/3 15/169/3 11/20/3
f 11/22/5 15/170/5 16/23/5
f 15/25/4 13/171/4 14/26/4
f 10/28/1 12/172/1 16/29/1
f 9/31/2 11/173/2 12/32/2
f 13/34/6 9/174/6 10/35/6
f 21/37/3 23/175/3 19/38/3
f 19/40/4 23/176/4 24/41/4
f 23/43/6 21/177/6 22/44/6
f 18/46/1 20/178/1 24/47/1
f 17/49/5 19/179/5 20/50/5
f 21/52/2 17/180/2 18/53/2
f 29/55/3 31/181/3 27/56/3
f 27/58/4 31/182/4 32/59/4
f 31/61/6 29/183/6 30/62/6
f 26/64/1 28/184/1 32/65/1
f 25/67/5 27/185/5 28/68/5
f 29/70/2 25/186/2 26/71/2
f 37/73/3 39/187/3 35/74/3
f 35/76/5 39/188/5 40/77/5
f 39/79/4 37/189/4 38/80/4
f 34/82/1 36/190/1 40/83/1
f 33/85/2 35/191/2 36/86/2
f 37/88/6 33/192/6 34/89/6
f 45/91/4 47/193/4 43/92/4
f 43/94/5 47/194/5 48/95/5
f 48/97/1 47/195/1 45/98/1
f 42/100/2 44/196/2 48/101/2
f 41/103/3 43/197/3 44/104/3
f 45/106/6 41/198/6 42/107/6
f 53/109/4 55/199/4 51/110/4
f 51/112/1 55/200/1 56/113/1
f 55/115/6 53/201/6 54/116/6
f 50/118/2 52/202/2 56/119/2
f 49/121/5 51/203/5 52/122/5
f 53/124/3 49/204/3 50/125/3
f 61/127/4 63/205/4 59/128/4
f 60/130/1 59/206/1 63/131/1
f 63/133/6 61/207/6 62/134/6
f 58/136/2 60/208/2 64/137/2
f 58/139/5 57/209/5 59/140/5
f 61/142/3 57/210/3 58/143/3
f 69/145/4 71/211/4 67/146/4
f 67/148/5 71/212/5 72/149/5
f 71/151/1 69/213/1 70/152/1
f 66/154/2 68/214/2 72/155/2
f 66/157/3 65/215/3 67/158/3
f 69/160/6 65/216/6 66/161/6
