# Blender 4.2.3 LTS
# www.blender.org
o Cube
v 1.004742 0.951443 1.997351
v 0.222331 0.951443 0.002421
v 1.004742 0.057019 1.997351
v 0.222331 0.057019 0.002421
v 0.009821 0.951443 1.997351
v 0.009821 0.951443 0.002421
v 0.009821 0.057019 1.997351
v 0.009821 0.057019 0.002421
v 0.222331 0.951443 1.313204
v 0.009821 0.057019 1.313204
v 0.222331 0.057019 1.313204
v 0.009821 0.951443 1.313204
v 0.009821 0.057019 1.867855
v 1.004742 0.951443 1.867855
v 1.004742 0.057019 1.867855
v 0.009821 0.951443 1.867855
v 1.006488 0.058336 1.997351
v 1.788899 0.057177 0.002421
v 1.007813 0.952759 1.997351
v 1.790224 0.951600 0.002421
v 2.001408 0.056862 1.997351
v 2.001408 0.056862 0.002421
v 2.002733 0.951285 1.997351
v 2.002733 0.951285 0.002421
v 1.788899 0.057177 1.313204
v 2.002733 0.951285 1.313204
v 1.790224 0.951600 1.313204
v 2.001408 0.056862 1.313204
v 2.002733 0.951285 1.867855
v 1.006488 0.058336 1.867855
v 1.007813 0.952759 1.867855
v 2.001408 0.056862 1.867855
vn -0.0000 -0.0000 1.0000
vn -0.0000 -1.0000 -0.0000
vn -1.0000 -0.0000 -0.0000
vn -0.0000 -0.0000 -1.0000
vn 1.0000 -0.0000 -0.0000
vn -0.0000 1.0000 -0.0000
vn 0.5783 -0.0000 -0.8158
vn 0.0015 1.0000 -0.0000
vn 1.0000 -0.0015 -0.0000
vn -1.0000 0.0015 -0.0000
vn -0.0015 -1.0000 -0.0000
vn -0.5783 0.0009 -0.8158
vt 0.234987 0.373970
vt 0.161355 0.029241
vt 0.234987 0.029241
vt 0.293469 0.373970
vt 0.298249 0.029241
vt 0.298249 0.373970
vt 0.792343 0.894145
vt 0.865975 0.898925
vt 0.792343 0.898925
vt 0.720829 0.962230
vt 0.647197 0.888598
vt 0.720829 0.888598
vt 0.924457 0.638198
vt 0.929237 0.564566
vt 0.929237 0.638198
vt 0.425583 0.373970
vt 0.430363 0.029241
vt 0.430363 0.373970
vt 0.450835 0.373970
vt 0.499215 0.300337
vt 0.499215 0.373970
vt 0.029241 0.969076
vt 0.077621 0.895444
vt 0.077621 0.969076
vt 0.792343 0.919397
vt 0.865975 0.967777
vt 0.792343 0.967777
vt 0.318721 0.102873
vt 0.367101 0.029241
vt 0.367101 0.102873
vt 0.450835 0.300337
vt 0.865975 0.703548
vt 0.792343 0.432451
vt 0.865975 0.432452
vt 0.865975 0.919397
vt 0.318721 0.029241
vt 0.029241 0.029674
vt 0.102873 0.373969
vt 0.029241 0.374402
vt 0.557697 0.373969
vt 0.562477 0.029241
vt 0.562477 0.373969
vt 0.792343 0.835663
vt 0.797123 0.762030
vt 0.797123 0.835663
vt 0.029241 0.763329
vt 0.102872 0.836529
vt 0.029241 0.836963
vt 0.924457 0.506085
vt 0.929237 0.432452
vt 0.929237 0.506085
vt 0.689811 0.373969
vt 0.694591 0.029241
vt 0.694591 0.373969
vt 0.715063 0.373969
vt 0.763443 0.300337
vt 0.763443 0.373969
vt 0.525730 0.963104
vt 0.574111 0.889471
vt 0.574111 0.963104
vt 0.817595 0.835663
vt 0.865975 0.762030
vt 0.865975 0.835663
vt 0.582949 0.102873
vt 0.631329 0.029241
vt 0.631329 0.102873
vt 0.715063 0.300337
vt 0.102873 0.433318
vt 0.029241 0.703981
vt 0.029241 0.432884
vt 0.817595 0.762030
vt 0.582949 0.029241
vt 0.161355 0.373970
vt 0.293469 0.029241
vt 0.865975 0.894145
vt 0.647197 0.962230
vt 0.924457 0.564566
vt 0.425583 0.029241
vt 0.029241 0.895444
vt 0.792343 0.703548
vt 0.102873 0.029241
vt 0.557697 0.029241
vt 0.792343 0.762030
vt 0.102872 0.762896
vt 0.924457 0.432452
vt 0.689811 0.029241
vt 0.525730 0.889471
vt 0.102873 0.704414
s 0
f 5/1/1 3/2/1 1/3/1
f 3/4/2 13/5/2 15/6/2
f 7/7/3 16/8/3 13/9/3
f 2/10/4 8/11/4 6/12/4
f 1/13/5 15/14/5 14/15/5
f 5/16/6 14/17/6 16/18/6
f 12/19/6 2/20/6 6/21/6
f 9/22/5 4/23/5 2/24/5
f 10/25/3 6/26/3 8/27/3
f 11/28/2 8/29/2 4/30/2
f 16/18/6 9/31/6 12/19/6
f 14/32/7 11/33/7 9/34/7
f 13/9/3 12/35/3 10/25/3
f 11/28/2 13/5/2 10/36/2
f 21/37/1 19/38/1 17/39/1
f 19/40/8 29/41/8 31/42/8
f 23/43/9 32/44/9 29/45/9
f 22/46/4 20/47/4 24/48/4
f 17/49/10 31/50/10 30/51/10
f 21/52/11 30/53/11 32/54/11
f 28/55/11 18/56/11 22/57/11
f 25/58/10 20/59/10 18/60/10
f 26/61/9 22/62/9 24/63/9
f 27/64/8 24/65/8 20/66/8
f 32/54/11 25/67/11 28/55/11
f 25/68/12 31/69/12 27/70/12
f 29/45/9 28/71/9 26/61/9
f 27/64/8 29/41/8 26/72/8
f 5/1/1 7/73/1 3/2/1
f 3/4/2 7/74/2 13/5/2
f 7/7/3 5/75/3 16/8/3
f 2/10/4 4/76/4 8/11/4
f 1/13/5 3/77/5 15/14/5
f 5/16/6 1/78/6 14/17/6
f 12/19/6 9/31/6 2/20/6
f 9/22/5 11/79/5 4/23/5
f 10/25/3 12/35/3 6/26/3
f 11/28/2 10/36/2 8/29/2
f 16/18/6 14/17/6 9/31/6
f 14/32/7 15/80/7 11/33/7
f 13/9/3 16/8/3 12/35/3
f 11/28/2 15/6/2 13/5/2
f 21/37/1 23/81/1 19/38/1
f 19/40/8 23/82/8 29/41/8
f 23/43/9 21/83/9 32/44/9
f 22/46/4 18/84/4 20/47/4
f 17/49/10 19/85/10 31/50/10
f 21/52/11 17/86/11 30/53/11
f 28/55/11 25/67/11 18/56/11
f 25/58/10 27/87/10 20/59/10
f 26/61/9 28/71/9 22/62/9
f 27/64/8 26/72/8 24/65/8
f 32/54/11 30/53/11 25/67/11
f 25/68/12 30/88/12 31/69/12
f 29/45/9 32/44/9 28/71/9
f 27/64/8 31/42/8 29/41/8
o Cube.001
v 0.997771 0.885554 1.847729
v 0.997771 0.885554 0.004166
v 0.997771 0.145610 1.847729
v 0.997771 0.145610 0.004166
v 0.234949 0.885554 1.301729
v 0.234949 0.885554 0.004166
v 0.234949 0.145610 1.301729
v 0.234949 0.145610 0.004166
v 1.007138 0.144584 1.847729
v 1.007138 0.144584 0.004166
v 1.018953 0.884433 1.847729
v 1.018953 0.884433 0.004166
v 1.769863 0.132403 1.301729
v 1.769863 0.132403 0.004166
v 1.781678 0.872253 1.301729
v 1.781678 0.872253 0.004166
vn 1.0000 -0.0000 -0.0000
vn -0.0000 -1.0000 -0.0000
vn -1.0000 -0.0000 -0.0000
vn -0.0000 1.0000 -0.0000
vn -0.5820 -0.0000 0.8132
vn -0.0000 -0.0000 -1.0000
vn -0.9999 0.0160 -0.0000
vn 0.0160 0.9999 -0.0000
vn 0.9999 -0.0160 -0.0000
vn -0.0160 -0.9999 -0.0000
vn 0.5820 -0.0093 0.8132
vt 0.161355 0.730846
vt 0.224331 0.970759
vt 0.161355 0.970759
vt 0.319106 0.432452
vt 0.418375 0.601310
vt 0.319106 0.672364
vt 0.282813 0.730846
vt 0.345794 0.829128
vt 0.282813 0.829128
vt 0.161355 0.601310
vt 0.260624 0.432452
vt 0.260624 0.672364
vt 0.345794 0.951206
vt 0.282813 0.951206
vt 0.710178 0.830116
vt 0.647197 0.730846
vt 0.710178 0.730846
vt 0.404276 0.730846
vt 0.467248 0.871734
vt 0.404276 0.870483
vt 0.476856 0.432452
vt 0.576118 0.601310
vt 0.476856 0.672364
vt 0.822048 0.029241
vt 0.884912 0.198146
vt 0.821925 0.198100
vt 0.634600 0.601310
vt 0.733861 0.432452
vt 0.733861 0.672364
vt 0.822048 0.269154
vt 0.885035 0.269200
vt 0.525730 0.731726
vt 0.588715 0.830109
vt 0.525730 0.830989
vt 0.224331 0.730846
vt 0.418375 0.432452
vt 0.345794 0.730846
vt 0.161355 0.432452
vt 0.647197 0.830116
vt 0.467248 0.732097
vt 0.576118 0.432452
vt 0.885035 0.029287
vt 0.634600 0.432452
vt 0.588715 0.730846
s 0
f 34/89/13 33/91/13 35/90/13
f 36/92/14 35/94/14 39/93/14
f 40/95/15 39/97/15 37/96/15
f 37/98/16 33/100/16 34/99/16
f 39/97/17 35/102/17 33/101/17
f 36/103/18 40/105/18 38/104/18
f 42/106/19 41/108/19 43/107/19
f 44/109/20 43/111/20 47/110/20
f 48/112/21 47/114/21 45/113/21
f 45/115/22 41/117/22 42/116/22
f 43/118/23 41/119/23 45/113/23
f 44/120/18 48/122/18 46/121/18
f 34/89/13 35/90/13 36/123/13
f 36/92/14 39/93/14 40/124/14
f 40/95/15 37/96/15 38/125/15
f 37/98/16 34/99/16 38/126/16
f 39/97/17 33/101/17 37/96/17
f 36/103/18 38/104/18 34/127/18
f 42/106/19 43/107/19 44/128/19
f 44/109/20 47/110/20 48/129/20
f 48/112/21 45/113/21 46/130/21
f 45/115/22 42/116/22 46/131/22
f 43/118/23 45/113/23 47/114/23
f 44/120/18 46/121/18 42/132/18
