# Blender 4.2.3 LTS
# www.blender.org
o Cube.001
v 1.000000 -0.000000 0.550000
v 1.000000 0.050000 0.550000
v 1.000000 -0.000000 0.450000
v 1.000000 0.050000 0.450000
v 0.000000 -0.000000 0.550000
v 0.000000 0.050000 0.550000
v 0.000000 -0.000000 0.450000
v 0.000000 0.050000 0.450000
v 0.950000 0.050000 0.550000
v 0.950000 -0.000000 0.450000
v 0.950000 0.050000 0.450000
v 0.950000 -0.000000 0.550000
v 0.050000 0.050000 0.550000
v 0.050000 -0.000000 0.450000
v 0.050000 0.050000 0.450000
v 0.050000 -0.000000 0.550000
v 1.000000 1.000000 0.450000
v 1.000000 1.000000 0.550000
v 0.950000 1.000000 0.550000
v 0.000000 1.000000 0.550000
v 0.000000 1.000000 0.450000
v 0.050000 1.000000 0.550000
v 0.050000 1.000000 0.450000
v 0.050000 0.950000 0.450000
v 0.050000 0.950000 0.550000
v 0.000000 0.950000 0.550000
v 0.000000 0.950000 0.450000
v 0.950000 1.000000 0.450000
v 0.950000 0.950000 0.550000
v 0.950000 0.950000 0.450000
v 1.000000 0.950000 0.450000
v 1.000000 0.950000 0.550000
v 0.450000 1.000000 1.000000
v 0.450000 1.000000 0.950000
v 0.550000 1.000000 1.000000
v 0.550000 1.000000 0.950000
v 0.450000 -0.000000 1.000000
v 0.450000 -0.000000 0.950000
v 0.550000 -0.000000 1.000000
v 0.550000 -0.000000 0.950000
v 0.450000 0.950000 0.950000
v 0.550000 0.950000 1.000000
v 0.550000 0.950000 0.950000
v 0.450000 0.950000 1.000000
v 0.450000 0.050000 0.950000
v 0.550000 0.050000 1.000000
v 0.550000 0.050000 0.950000
v 0.450000 0.050000 1.000000
v 0.550000 1.000000 0.000000
v 0.450000 1.000000 0.000000
v 0.450000 0.950000 0.000000
v 0.450000 -0.000000 -0.000000
v 0.550000 -0.000000 -0.000000
v 0.450000 0.050000 -0.000000
v 0.550000 0.050000 -0.000000
v 0.550000 0.050000 0.050000
v 0.450000 0.050000 0.050000
v 0.450000 -0.000000 0.050000
v 0.550000 -0.000000 0.050000
v 0.550000 0.950000 0.000000
v 0.450000 0.950000 0.050000
v 0.550000 0.950000 0.050000
v 0.550000 1.000000 0.050000
v 0.450000 1.000000 0.050000
v 1.000000 0.550000 1.000000
v 1.000000 0.550000 0.950000
v 1.000000 0.450000 1.000000
v 1.000000 0.450000 0.950000
v 0.000000 0.550000 1.000000
v 0.000000 0.550000 0.950000
v 0.000000 0.450000 1.000000
v 0.000000 0.450000 0.950000
v 0.950000 0.550000 0.950000
v 0.950000 0.450000 1.000000
v 0.950000 0.450000 0.950000
v 0.950000 0.550000 1.000000
v 0.050000 0.550000 0.950000
v 0.050000 0.450000 1.000000
v 0.050000 0.450000 0.950000
v 0.050000 0.550000 1.000000
v 1.000000 0.450000 -0.000000
v 1.000000 0.550000 -0.000000
v 0.950000 0.550000 -0.000000
v 0.000000 0.550000 -0.000000
v 0.000000 0.450000 -0.000000
v 0.050000 0.550000 -0.000000
v 0.050000 0.450000 -0.000000
v 0.050000 0.450000 0.050000
v 0.050000 0.550000 0.050000
v 0.000000 0.550000 0.050000
v 0.000000 0.450000 0.050000
v 0.950000 0.450000 -0.000000
v 0.950000 0.550000 0.050000
v 0.950000 0.450000 0.050000
v 1.000000 0.450000 0.050000
v 1.000000 0.550000 0.050000
vn -0.0000 -1.0000 -0.0000
vn -0.0000 -0.0000 -1.0000
vn -1.0000 -0.0000 -0.0000
vn 1.0000 -0.0000 -0.0000
vn -0.0000 -0.0000 1.0000
vn -0.0000 1.0000 -0.0000
vt 0.650000 0.550000
vt 0.600000 0.547500
vt 0.650000 0.547500
vt 0.147500 0.500000
vt 0.150000 0.525000
vt 0.147500 0.525000
vt 0.150000 0.500000
vt 0.200000 0.525000
vt 0.102500 0.975000
vt 0.100000 1.000000
vt 0.100000 0.975000
vt 0.200000 0.500000
vt 0.250000 0.525000
vt 0.200000 0.525000
vt 0.297500 0.500000
vt 0.300000 0.525000
vt 0.297500 0.525000
vt 0.252500 0.500000
vt 0.252500 0.525000
vt 0.675000 0.600000
vt 0.720000 0.550000
vt 0.720000 0.600000
vt 0.100000 0.500000
vt 0.102500 0.525000
vt 0.100000 0.525000
vt 0.650000 0.502500
vt 0.600000 0.500000
vt 0.650000 0.500000
vt 0.650000 0.552500
vt 0.600000 0.597500
vt 0.600000 0.552500
vt 0.250000 0.500000
vt 0.102500 0.500000
vt 0.600000 0.502500
vt 0.650000 0.600000
vt 0.650000 0.597500
vt 0.500000 0.950000
vt 0.450000 0.975000
vt 0.450000 0.950000
vt 0.250000 0.975000
vt 0.200000 1.000000
vt 0.200000 0.975000
vt 0.300000 0.975000
vt 0.297500 1.000000
vt 0.297500 0.975000
vt 0.600000 0.550000
vt 0.200000 0.975000
vt 0.150000 1.000000
vt 0.150000 0.975000
vt 0.147500 1.000000
vt 0.147500 0.975000
vt 0.252500 0.975000
vt 0.250000 1.000000
vt 0.550000 0.950000
vt 0.550000 0.500000
vt 0.720000 0.650000
vt 0.675000 0.650000
vt 0.252500 1.000000
vt 0.500000 0.500000
vt 0.450000 0.500000
vt 0.660000 0.500000
vt 0.665000 0.525000
vt 0.660000 0.525000
vt 0.525000 0.500000
vt 0.500000 0.475000
vt 0.525000 0.475000
vt 0.655000 1.000000
vt 0.650000 0.975000
vt 0.655000 0.975000
vt 0.975000 0.025000
vt 1.000000 0.000000
vt 1.000000 0.025000
vt 0.660000 1.000000
vt 0.660000 0.975000
vt 0.475000 0.000000
vt 0.500000 0.025000
vt 0.475000 0.025000
vt 0.025000 0.000000
vt 0.025000 0.025000
vt 0.725000 0.950000
vt 0.720000 0.500000
vt 0.725000 0.500000
vt 1.000000 0.500000
vt 0.975000 0.475000
vt 1.000000 0.475000
vt 0.660000 0.975000
vt 0.665000 1.000000
vt 0.660000 1.000000
vt 0.670000 0.525000
vt 0.665000 0.975000
vt 0.665000 0.525000
vt 0.000000 0.025000
vt 0.975000 0.500000
vt 0.665000 0.975000
vt 0.670000 1.000000
vt 0.670000 0.975000
vt 0.670000 0.525000
vt 0.675000 0.500000
vt 0.675000 0.525000
vt 0.655000 0.525000
vt 0.660000 0.500000
vt 0.660000 0.525000
vt 0.500000 0.475000
vt 0.475000 0.500000
vt 0.475000 0.475000
vt 0.665000 0.500000
vt 0.670000 0.500000
vt 0.650000 0.525000
vt 0.655000 0.500000
vt 0.500000 0.025000
vt 0.525000 -0.000000
vt 0.525000 0.025000
vt 0.025000 0.475000
vt 0.000000 0.500000
vt 0.000000 0.475000
vt 0.730000 0.950000
vt 0.735000 0.500000
vt 0.735000 0.950000
vt 0.730000 0.500000
vt 0.025000 0.500000
vt 0.670000 0.975000
vt 0.675000 0.975000
vt 0.650000 0.700000
vt 0.600000 0.697500
vt 0.650000 0.697500
vt 0.302500 1.000000
vt 0.300000 0.975000
vt 0.302500 0.975000
vt 0.050000 1.000000
vt 0.000000 0.975000
vt 0.050000 0.975000
vt 0.347500 0.525000
vt 0.350000 0.500000
vt 0.350000 0.525000
vt 0.050000 0.500000
vt 0.100000 0.525000
vt 0.050000 0.525000
vt 0.352500 1.000000
vt 0.350000 0.975000
vt 0.352500 0.975000
vt 0.397500 1.000000
vt 0.397500 0.975000
vt 0.675000 0.700000
vt 0.720000 0.700000
vt 0.350000 1.000000
vt 0.347500 0.975000
vt 0.650000 0.652500
vt 0.600000 0.650000
vt 0.650000 0.650000
vt 0.650000 0.602500
vt 0.600000 0.647500
vt 0.600000 0.602500
vt 0.400000 1.000000
vt 0.400000 0.975000
vt 0.347500 1.000000
vt 0.600000 0.652500
vt 0.650000 0.647500
vt 0.400000 0.525000
vt 0.450000 0.500000
vt 0.450000 0.525000
vt 0.100000 0.975000
vt 0.050000 0.975000
vt 0.352500 0.500000
vt 0.352500 0.525000
vt 0.600000 0.600000
vt 0.000000 0.525000
vt 0.050000 0.500000
vt 0.050000 0.525000
vt 0.300000 0.525000
vt 0.302500 0.500000
vt 0.302500 0.525000
vt 0.397500 0.525000
vt 0.400000 0.500000
vt 0.675000 0.500000
vt 0.675000 0.550000
vt 0.397500 0.500000
vt 0.400000 0.975000
vt 0.450000 0.975000
vt 0.200000 0.500000
vt 0.102500 1.000000
vt 0.300000 0.500000
vt 0.600000 0.600000
vt 0.500000 0.975000
vt 0.300000 1.000000
vt 0.200000 1.000000
vt 0.600000 0.950000
vt 0.665000 0.500000
vt 0.500000 0.500000
vt 0.650000 1.000000
vt 0.975000 0.000000
vt 0.500000 0.000000
vt 0.720000 0.950000
vt 0.000000 0.000000
vt 0.665000 1.000000
vt 0.670000 0.500000
vt 0.500000 0.500000
vt 0.650000 0.500000
vt 0.500000 -0.000000
vt 0.730000 0.500000
vt 0.730000 0.950000
vt 0.600000 0.700000
vt 0.300000 1.000000
vt 0.000000 1.000000
vt 0.347500 0.500000
vt 0.100000 0.500000
vt 0.100000 1.000000
vt 0.000000 0.500000
vt 0.300000 0.500000
vt 0.720000 0.500000
s 0
f 5/1/1 14/2/1 16/3/1
f 14/4/2 8/5/2 15/6/2
f 7/7/3 6/8/3 8/5/3
f 30/9/2 17/10/2 31/11/2
f 1/12/4 4/13/4 2/14/4
f 12/15/5 2/16/5 9/17/5
f 16/18/5 9/17/5 13/19/5
f 9/20/6 15/21/6 13/22/6
f 3/23/2 11/24/2 4/25/2
f 12/26/1 3/27/1 1/28/1
f 22/29/6 28/30/6 23/31/6
f 5/32/5 13/19/5 6/13/5
f 10/33/2 15/6/2 11/24/2
f 16/3/1 10/34/1 12/26/1
f 18/35/6 28/30/6 19/36/6
f 29/37/3 28/38/3 30/39/3
f 31/40/4 18/41/4 32/42/4
f 32/43/5 19/44/5 29/45/5
f 22/29/6 21/46/6 20/1/6
f 26/47/3 21/48/3 27/49/3
f 27/49/2 23/50/2 24/51/2
f 25/52/5 20/53/5 26/40/5
f 13/19/5 26/40/5 6/13/5
f 8/5/2 24/51/2 15/6/2
f 6/8/3 27/49/3 8/5/3
f 15/27/4 25/54/4 13/55/4
f 23/50/2 30/9/2 24/51/2
f 24/20/1 29/56/1 25/57/1
f 25/52/5 19/44/5 22/58/5
f 2/16/5 29/45/5 9/17/5
f 4/13/4 32/42/4 2/14/4
f 9/59/3 30/39/3 11/60/3
f 11/24/2 31/11/2 4/25/2
f 37/61/5 46/62/5 48/63/5
f 46/64/4 40/65/4 47/66/4
f 39/67/1 38/68/1 40/69/1
f 62/70/4 49/71/4 63/72/4
f 33/73/6 36/69/6 34/74/6
f 44/75/3 34/76/3 41/77/3
f 48/78/3 41/77/3 45/79/3
f 41/80/2 47/81/2 45/82/2
f 35/83/4 43/84/4 36/85/4
f 44/86/5 35/87/5 33/88/5
f 54/89/2 60/90/2 55/91/2
f 38/92/3 48/78/3 45/79/3
f 42/93/4 47/66/4 43/84/4
f 48/63/5 42/94/5 44/86/5
f 50/95/2 60/90/2 51/96/2
f 61/97/1 60/98/1 62/99/1
f 63/100/6 50/101/6 64/102/6
f 64/103/3 51/104/3 61/105/3
f 54/89/2 53/106/2 52/107/2
f 58/108/1 53/109/1 59/100/1
f 59/110/4 55/111/4 56/112/4
f 57/113/3 52/114/3 58/115/3
f 45/79/3 58/115/3 38/92/3
f 40/65/4 56/112/4 47/66/4
f 38/68/1 59/100/1 40/69/1
f 47/116/6 57/117/6 45/118/6
f 55/111/4 62/70/4 56/112/4
f 56/119/5 61/80/5 57/82/5
f 57/113/3 51/104/3 54/120/3
f 34/76/3 61/105/3 41/77/3
f 36/69/6 64/102/6 34/74/6
f 41/121/1 62/99/1 43/122/1
f 43/84/4 63/72/4 36/85/4
f 69/123/5 78/124/5 80/125/5
f 78/126/1 72/127/1 79/128/1
f 71/129/3 70/130/3 72/131/3
f 94/132/1 81/133/1 95/134/1
f 65/135/4 68/136/4 66/137/4
f 76/138/6 66/139/6 73/140/6
f 80/141/6 73/140/6 77/142/6
f 73/143/2 79/56/2 77/144/2
f 67/145/1 75/146/1 68/139/1
f 76/147/5 67/148/5 65/149/5
f 86/150/2 92/151/2 87/152/2
f 69/153/6 77/142/6 70/154/6
f 74/155/1 79/128/1 75/146/1
f 80/125/5 74/156/5 76/147/5
f 82/149/2 92/151/2 83/157/2
f 93/158/3 92/159/3 94/160/3
f 95/161/4 82/129/4 96/162/4
f 96/134/6 83/163/6 93/164/6
f 86/150/2 85/165/2 84/35/2
f 90/166/3 85/167/3 91/168/3
f 91/169/1 87/170/1 88/171/1
f 89/172/6 84/173/6 90/158/6
f 77/142/6 90/158/6 70/154/6
f 72/127/1 88/171/1 79/128/1
f 70/130/3 91/168/3 72/131/3
f 79/55/4 89/37/4 77/59/4
f 87/170/1 94/132/1 88/171/1
f 88/174/5 93/21/5 89/175/5
f 89/172/6 83/163/6 86/176/6
f 66/139/6 93/164/6 73/140/6
f 68/136/4 96/162/4 66/137/4
f 73/177/3 94/160/3 75/178/3
f 75/146/1 95/134/1 68/139/1
f 5/1/1 7/46/1 14/2/1
f 14/4/2 7/7/2 8/5/2
f 7/7/3 5/179/3 6/8/3
f 30/9/2 28/180/2 17/10/2
f 1/12/4 3/32/4 4/13/4
f 12/15/5 1/181/5 2/16/5
f 16/18/5 12/15/5 9/17/5
f 9/20/6 11/175/6 15/21/6
f 3/23/2 10/33/2 11/24/2
f 12/26/1 10/34/1 3/27/1
f 22/29/6 19/36/6 28/30/6
f 5/32/5 16/18/5 13/19/5
f 10/33/2 14/4/2 15/6/2
f 16/3/1 14/2/1 10/34/1
f 18/35/6 17/182/6 28/30/6
f 29/37/3 19/183/3 28/38/3
f 31/40/4 17/53/4 18/41/4
f 32/43/5 18/184/5 19/44/5
f 22/29/6 23/31/6 21/46/6
f 26/47/3 20/185/3 21/48/3
f 27/49/2 21/48/2 23/50/2
f 25/52/5 22/58/5 20/53/5
f 13/19/5 25/52/5 26/40/5
f 8/5/2 27/49/2 24/51/2
f 6/8/3 26/47/3 27/49/3
f 15/27/4 24/186/4 25/54/4
f 23/50/2 28/180/2 30/9/2
f 24/20/1 30/22/1 29/56/1
f 25/52/5 29/45/5 19/44/5
f 2/16/5 32/43/5 29/45/5
f 4/13/4 31/40/4 32/42/4
f 9/59/3 29/37/3 30/39/3
f 11/24/2 30/9/2 31/11/2
f 37/61/5 39/187/5 46/62/5
f 46/64/4 39/188/4 40/65/4
f 39/67/1 37/189/1 38/68/1
f 62/70/4 60/190/4 49/71/4
f 33/73/6 35/67/6 36/69/6
f 44/75/3 33/191/3 34/76/3
f 48/78/3 44/75/3 41/77/3
f 41/80/2 43/192/2 47/81/2
f 35/83/4 42/93/4 43/84/4
f 44/86/5 42/94/5 35/87/5
f 54/89/2 51/96/2 60/90/2
f 38/92/3 37/193/3 48/78/3
f 42/93/4 46/64/4 47/66/4
f 48/63/5 46/62/5 42/94/5
f 50/95/2 49/194/2 60/90/2
f 61/97/1 51/195/1 60/98/1
f 63/100/6 49/109/6 50/101/6
f 64/103/3 50/196/3 51/104/3
f 54/89/2 55/91/2 53/106/2
f 58/108/1 52/197/1 53/109/1
f 59/110/4 53/198/4 55/111/4
f 57/113/3 54/120/3 52/114/3
f 45/79/3 57/113/3 58/115/3
f 40/65/4 59/110/4 56/112/4
f 38/68/1 58/108/1 59/100/1
f 47/116/6 56/199/6 57/117/6
f 55/111/4 60/190/4 62/70/4
f 56/119/5 62/200/5 61/80/5
f 57/113/3 61/105/3 51/104/3
f 34/76/3 64/103/3 61/105/3
f 36/69/6 63/100/6 64/102/6
f 41/121/1 61/97/1 62/99/1
f 43/84/4 62/70/4 63/72/4
f 69/123/5 71/201/5 78/124/5
f 78/126/1 71/202/1 72/127/1
f 71/129/3 69/203/3 70/130/3
f 94/132/1 92/204/1 81/133/1
f 65/135/4 67/205/4 68/136/4
f 76/138/6 65/145/6 66/139/6
f 80/141/6 76/138/6 73/140/6
f 73/143/2 75/57/2 79/56/2
f 67/145/1 74/155/1 75/146/1
f 76/147/5 74/156/5 67/148/5
f 86/150/2 83/157/2 92/151/2
f 69/153/6 80/141/6 77/142/6
f 74/155/1 78/126/1 79/128/1
f 80/125/5 78/124/5 74/156/5
f 82/149/2 81/148/2 92/151/2
f 93/158/3 83/173/3 92/159/3
f 95/161/4 81/206/4 82/129/4
f 96/134/6 82/133/6 83/163/6
f 86/150/2 87/152/2 85/165/2
f 90/166/3 84/207/3 85/167/3
f 91/169/1 85/208/1 87/170/1
f 89/172/6 86/176/6 84/173/6
f 77/142/6 89/172/6 90/158/6
f 72/127/1 91/169/1 88/171/1
f 70/130/3 90/166/3 91/168/3
f 79/55/4 88/54/4 89/37/4
f 87/170/1 92/204/1 94/132/1
f 88/174/5 94/209/5 93/21/5
f 89/172/6 93/164/6 83/163/6
f 66/139/6 96/134/6 93/164/6
f 68/136/4 95/161/4 96/162/4
f 73/177/3 93/158/3 94/160/3
f 75/146/1 94/132/1 95/134/1
