# Blender 4.2.3 LTS
# www.blender.org
o Cube
v 1.000000 1.000000 2.000000
v 1.000000 1.000000 0.000000
v 1.000000 0.830528 2.000000
v 1.000000 0.830528 0.000000
v 0.000000 1.000000 2.000000
v 0.000000 1.000000 0.000000
v 0.000000 0.830528 2.000000
v 0.000000 0.830528 0.000000
v 0.905738 1.000000 0.000000
v 0.905738 0.830528 2.000000
v 0.905738 0.830528 0.000000
v 0.905738 1.000000 2.000000
v 0.102527 1.000000 0.000000
v 0.102527 0.830528 2.000000
v 0.102527 0.830528 0.000000
v 0.102527 1.000000 2.000000
v 1.000000 1.000000 1.902496
v 0.000000 0.830528 1.902496
v 1.000000 0.830528 1.902496
v 0.000000 1.000000 1.902496
v 0.905738 1.000000 1.902496
v 0.905738 0.830528 1.902496
v 0.102527 1.000000 1.902496
v 0.102527 0.830528 1.902496
v 0.102527 0.830528 1.905492
v 0.905738 0.830528 1.905492
v 0.905738 1.000000 1.905492
v 0.102527 1.000000 1.905492
vn -0.0000 -0.0000 1.0000
vn -0.0000 -1.0000 -0.0000
vn -1.0000 -0.0000 -0.0000
vn -0.0000 -0.0000 -1.0000
vn 1.0000 -0.0000 -0.0000
vn -0.0000 1.0000 -0.0000
vt 0.684937 0.580928
vt 0.587001 0.521679
vt 0.684937 0.521679
vt 0.003036 0.062286
vt 0.031210 0.003036
vt 0.031210 0.062286
vt 0.625000 0.000000
vt 0.500000 0.250000
vt 0.500000 0.000000
vt 0.375000 0.500000
vt 0.250000 0.750000
vt 0.250000 0.500000
vt 0.691010 0.003036
vt 0.788946 0.031210
vt 0.691010 0.031210
vt 0.625000 0.375000
vt 0.500000 0.500000
vt 0.500000 0.375000
vt 0.625000 0.312500
vt 0.500000 0.312500
vt 0.003036 0.580928
vt 0.031210 0.526455
vt 0.031210 0.580928
vt 0.684937 0.057509
vt 0.587001 0.003036
vt 0.684937 0.003036
vt 0.187500 0.500000
vt 0.125000 0.750000
vt 0.125000 0.500000
vt 0.625000 0.250000
vt 0.003036 0.526455
vt 0.587001 0.057509
vt 0.375000 0.312500
vt 0.375000 0.250000
vt 0.580928 0.526455
vt 0.580928 0.580928
vt 0.187500 0.750000
vt 0.375000 0.375000
vt 0.788946 0.580928
vt 0.691010 0.580928
vt 0.375000 0.000000
vt 0.580928 0.003036
vt 0.580928 0.062286
vt 0.795018 0.553620
vt 0.892955 0.003036
vt 0.892955 0.553620
vt 0.899027 0.553620
vt 0.996964 0.003036
vt 0.996964 0.553620
vt 0.587001 0.580928
vt 0.003036 0.003036
vt 0.375000 0.750000
vt 0.788946 0.003036
vt 0.625000 0.500000
vt 0.795018 0.003036
vt 0.899027 0.003036
s 0
f 5/1/1 14/2/1 16/3/1
f 14/4/2 18/5/2 24/6/2
f 7/7/3 20/8/3 18/9/3
f 2/10/4 11/11/4 9/12/4
f 1/13/5 19/14/5 17/15/5
f 12/16/6 17/17/6 21/18/6
f 16/19/6 21/18/6 23/20/6
f 3/21/2 22/22/2 19/23/2
f 12/24/1 3/25/1 1/26/1
f 13/27/4 8/28/4 6/29/4
f 5/30/6 23/20/6 20/8/6
f 10/31/2 24/6/2 22/22/2
f 16/3/1 10/32/1 12/24/1
f 20/8/6 13/33/6 6/34/6
f 19/23/2 11/35/2 4/36/2
f 27/12/4 25/37/4 28/27/4
f 21/18/6 2/10/6 9/38/6
f 17/15/5 4/39/5 2/40/5
f 18/9/3 6/34/3 8/41/3
f 24/6/2 8/42/2 15/43/2
f 11/44/3 27/45/3 9/46/3
f 13/47/5 25/48/5 15/49/5
f 5/1/1 7/50/1 14/2/1
f 14/4/2 7/51/2 18/5/2
f 7/7/3 5/30/3 20/8/3
f 2/10/4 4/52/4 11/11/4
f 1/13/5 3/53/5 19/14/5
f 12/16/6 1/54/6 17/17/6
f 16/19/6 12/16/6 21/18/6
f 3/21/2 10/31/2 22/22/2
f 12/24/1 10/32/1 3/25/1
f 13/27/4 15/37/4 8/28/4
f 5/30/6 16/19/6 23/20/6
f 10/31/2 14/4/2 24/6/2
f 16/3/1 14/2/1 10/32/1
f 20/8/6 23/20/6 13/33/6
f 19/23/2 22/22/2 11/35/2
f 27/12/4 26/11/4 25/37/4
f 21/18/6 17/17/6 2/10/6
f 17/15/5 19/14/5 4/39/5
f 18/9/3 20/8/3 6/34/3
f 24/6/2 18/5/2 8/42/2
f 11/44/3 26/55/3 27/45/3
f 13/47/5 28/56/5 25/48/5
