# Blender 4.2.3 LTS
# www.blender.org
o Cube
v 0.630225 0.630225 0.202885
v 0.931340 0.931340 0.000000
v 0.630225 0.369775 0.202885
v 0.931340 0.068660 0.000000
v 0.369775 0.630225 0.202885
v 0.068660 0.931340 0.000000
v 0.369775 0.369775 0.202885
v 0.068660 0.068660 0.000000
v 0.630225 0.369775 0.202885
v 0.369775 0.369775 0.202885
v 0.630225 0.630225 0.202885
v 0.369775 0.630225 0.202885
v 0.630225 0.369775 0.202885
v 0.369775 0.369775 0.202885
v 0.630225 0.630225 0.202885
v 0.369775 0.630225 0.202885
v 0.630225 0.369775 0.702557
v 0.369775 0.369775 0.702557
v 0.630225 0.630225 0.702557
v 0.369775 0.630225 0.702557
v 0.759376 0.240624 0.803614
v 0.240624 0.240624 0.803614
v 0.759376 0.759376 0.803614
v 0.240624 0.759376 0.803614
vn -0.0000 -0.0000 1.0000
vn -0.0000 -0.5588 0.8293
vn -0.5588 -0.0000 0.8293
vn -0.0000 -0.0000 -1.0000
vn 0.5588 -0.0000 0.8293
vn -0.0000 0.5588 0.8293
vn -0.0000 1.0000 -0.0000
vn -0.0000 -0.6162 -0.7876
vn 1.0000 -0.0000 -0.0000
vn -1.0000 -0.0000 -0.0000
vn -0.0000 -1.0000 -0.0000
vn -0.0000 0.6162 -0.7876
vn 0.6162 -0.0000 -0.7876
vn -0.6162 -0.0000 -0.7876
vt 0.809258 0.885668
vt 0.175967 0.175967
vt 0.004782 0.495218
vt 0.004782 0.004782
vt 0.175967 0.324033
vt 0.495218 0.495218
vt 0.495218 0.995218
vt 0.004782 0.504782
vt 0.495218 0.504782
vt 0.324033 0.175967
vt 0.495218 0.004782
vt 0.324033 0.324033
vt 0.504782 0.897798
vt 0.652849 0.613734
vt 0.652849 0.897798
vt 0.578204 0.226271
vt 0.504782 0.004782
vt 0.578204 0.078204
vt 0.809258 0.288847
vt 0.957325 0.004782
vt 0.957325 0.288847
vt 0.809258 0.582475
vt 0.957325 0.298411
vt 0.957325 0.582475
vt 0.809258 0.876104
vt 0.957325 0.592040
vt 0.957325 0.876104
vt 0.799694 0.604170
vt 0.504782 0.309258
vt 0.799694 0.309258
vt 0.726271 0.078204
vt 0.799694 0.299694
vt 0.726271 0.226271
vt 0.504782 0.299694
vt 0.799694 0.004782
vt 0.004782 0.995218
vt 0.504782 0.613734
vt 0.809258 0.004782
vt 0.809258 0.298411
vt 0.809258 0.592040
vt 0.504782 0.604170
s 0
f 3/1/1 11/1/1 9/1/1
f 3/2/2 8/3/2 4/4/2
f 7/5/3 6/6/3 8/3/3
f 2/7/4 8/8/4 6/9/4
f 1/10/5 4/4/5 2/11/5
f 5/12/6 2/11/6 6/6/6
f 12/1/1 14/1/1 16/1/1
f 1/1/1 12/1/1 11/1/1
f 7/1/1 9/1/1 10/1/1
f 5/1/1 10/1/1 12/1/1
f 16/13/7 19/14/7 15/15/7
f 10/1/1 13/1/1 14/1/1
f 11/1/1 16/1/1 15/1/1
f 9/1/1 15/1/1 13/1/1
f 17/16/8 22/17/8 18/18/8
f 15/19/9 17/20/9 13/21/9
f 14/22/10 20/23/10 16/24/10
f 13/25/11 18/26/11 14/27/11
f 24/28/1 21/29/1 23/30/1
f 20/31/12 23/32/12 19/33/12
f 19/33/13 21/34/13 17/16/13
f 18/18/14 24/35/14 20/31/14
f 3/1/1 1/1/1 11/1/1
f 3/2/2 7/5/2 8/3/2
f 7/5/3 5/12/3 6/6/3
f 2/7/4 4/36/4 8/8/4
f 1/10/5 3/2/5 4/4/5
f 5/12/6 1/10/6 2/11/6
f 12/1/1 10/1/1 14/1/1
f 1/1/1 5/1/1 12/1/1
f 7/1/1 3/1/1 9/1/1
f 5/1/1 7/1/1 10/1/1
f 16/13/7 20/37/7 19/14/7
f 10/1/1 9/1/1 13/1/1
f 11/1/1 12/1/1 16/1/1
f 9/1/1 11/1/1 15/1/1
f 17/16/8 21/34/8 22/17/8
f 15/19/9 19/38/9 17/20/9
f 14/22/10 18/39/10 20/23/10
f 13/25/11 17/40/11 18/26/11
f 24/28/1 22/41/1 21/29/1
f 20/31/12 24/35/12 23/32/12
f 19/33/13 23/32/13 21/34/13
f 18/18/14 22/17/14 24/35/14
