# Blender 4.2.3 LTS
# www.blender.org
o Cube
v 1.000000 0.923200 1.846399
v 1.000000 0.923200 0.037248
v 1.000000 0.076800 1.846399
v 1.000000 0.076800 0.037248
v 0.073669 1.000000 1.852662
v 0.073669 1.000000 0.040532
v 0.000000 0.069659 1.860682
v 0.000000 0.069659 0.043285
v 0.926331 1.000000 1.852662
v 0.926331 1.000000 0.040532
v 0.932519 0.000000 1.865039
v 0.932519 0.000000 0.039666
v 0.956492 0.956492 0.000000
v 0.000000 0.930341 0.043285
v 0.953833 0.953833 2.000000
v 0.000000 0.930341 1.860682
v 0.043508 0.956492 0.000000
v 0.067481 0.000000 0.039666
v 0.067481 0.000000 1.865039
v 0.046167 0.953833 2.000000
v 0.043508 0.043508 0.000000
v 0.046167 0.046167 2.000000
v 0.953833 0.046167 2.000000
v 0.956492 0.043508 0.000000
v 0.069066 0.930341 0.043285
v 0.069066 0.069659 0.043285
v 0.069066 0.069659 1.860682
v 0.069066 0.930341 1.860682
v 0.067481 0.058409 0.039666
v 0.067481 0.058409 1.865039
v 0.932519 0.058409 1.865039
v 0.932519 0.058409 0.039666
v 0.938759 0.923200 1.846399
v 0.938759 0.923200 0.037248
v 0.938759 0.076800 1.846399
v 0.938759 0.076800 0.037248
v 0.926331 0.932767 0.040532
v 0.073669 0.932767 0.040532
v 0.926331 0.932767 1.852662
v 0.073669 0.932767 1.852662
v 0.000000 1.000000 0.000000
v 0.000000 0.000000 0.000000
v 1.000000 1.000000 0.000000
v 1.000000 0.000000 0.000000
v 1.000000 0.000000 2.000000
v 0.000000 0.000000 2.000000
v 1.000000 1.000000 2.000000
v 0.000000 1.000000 2.000000
v 0.953833 0.046167 1.865206
v 0.046167 0.046167 1.865206
v 0.953833 0.953833 1.865206
v 0.046167 0.953833 1.865206
vn 1.0000 -0.0000 -0.0000
vn -0.0000 -0.0000 1.0000
vn -0.0000 -1.0000 -0.0000
vn -1.0000 -0.0000 -0.0000
vn -0.0000 1.0000 -0.0000
vn -0.0000 -0.0000 -1.0000
vt 0.670187 0.610604
vt 0.692178 0.906770
vt 0.670187 0.906770
vt 0.841991 0.003520
vt 0.861050 0.285776
vt 0.841991 0.285776
vt 0.692723 0.300022
vt 0.670187 0.003520
vt 0.692723 0.003520
vt 0.834951 0.584538
vt 0.814968 0.308363
vt 0.834951 0.308363
vt 0.750732 0.299163
vt 0.728794 0.003520
vt 0.750732 0.003520
vt 0.028580 0.304754
vt 0.329813 0.329813
vt 0.003520 0.329813
vt 0.028580 0.028579
vt 0.329813 0.003520
vt 0.323736 0.028580
vt 0.003520 0.003520
vt 0.323736 0.304754
vt 0.323201 0.360891
vt 0.329813 0.663147
vt 0.323201 0.639109
vt 0.027558 0.360891
vt 0.329813 0.336853
vt 0.027558 0.639109
vt 0.003520 0.663147
vt 0.003520 0.336853
vt 0.656085 0.026249
vt 0.663147 0.329813
vt 0.656085 0.307084
vt 0.359583 0.307084
vt 0.336853 0.329813
vt 0.359583 0.026249
vt 0.663147 0.003520
vt 0.336853 0.003520
vt 0.358872 0.358872
vt 0.663147 0.336853
vt 0.656675 0.358872
vt 0.358872 0.641128
vt 0.663147 0.663147
vt 0.336853 0.663147
vt 0.336853 0.336853
vt 0.656675 0.641128
vt 0.728794 0.608886
vt 0.751330 0.889720
vt 0.728794 0.889720
vt 0.780906 0.284355
vt 0.758370 0.003520
vt 0.780906 0.003520
vt 0.670187 0.307062
vt 0.692723 0.603564
vt 0.670187 0.603564
vt 0.787946 0.607914
vt 0.807004 0.905717
vt 0.787946 0.905717
vt 0.841991 0.292816
vt 0.861050 0.575073
vt 0.841991 0.575073
vt 0.834027 0.301323
vt 0.814968 0.003520
vt 0.834027 0.003520
vt 0.807928 0.298677
vt 0.787946 0.003520
vt 0.807928 0.003520
vt 0.814968 0.591578
vt 0.834951 0.867752
vt 0.814968 0.867752
vt 0.787946 0.305717
vt 0.807928 0.600874
vt 0.787946 0.600874
vt 0.728794 0.306203
vt 0.750732 0.601846
vt 0.728794 0.601846
vt 0.780308 0.569612
vt 0.758370 0.291395
vt 0.780308 0.291395
vt 0.780308 0.854870
vt 0.758370 0.576652
vt 0.780308 0.576652
vt 0.017717 0.684383
vt 0.329813 0.670187
vt 0.315617 0.684383
vt 0.329813 0.996480
vt 0.315617 0.982284
vt 0.017716 0.982284
vt 0.003520 0.670187
vt 0.003520 0.996480
vt 0.351917 0.981416
vt 0.336853 0.670187
vt 0.351917 0.685251
vt 0.663147 0.670187
vt 0.648083 0.685251
vt 0.648083 0.981416
vt 0.336853 0.996480
vt 0.663147 0.996480
vt 0.699763 0.003520
vt 0.721754 0.299686
vt 0.699763 0.299686
vt 0.699763 0.306726
vt 0.721754 0.602891
vt 0.699763 0.602891
vt 0.699763 0.609931
vt 0.721754 0.906096
vt 0.699763 0.906096
vt 0.692178 0.610604
vt 0.861050 0.003520
vt 0.670187 0.300022
vt 0.814968 0.584538
vt 0.728794 0.299163
vt 0.751330 0.608886
vt 0.758370 0.284355
vt 0.692723 0.307062
vt 0.807004 0.607914
vt 0.861050 0.292816
vt 0.814968 0.301323
vt 0.787946 0.298677
vt 0.834951 0.591578
vt 0.807928 0.305717
vt 0.750732 0.306203
vt 0.758370 0.569612
vt 0.758370 0.854870
vt 0.721754 0.003520
vt 0.721754 0.306726
vt 0.721754 0.609931
s 0
f 22/1/1 52/2/1 20/3/1
f 12/4/2 29/5/2 18/6/2
f 14/7/3 28/8/3 16/9/3
f 2/10/2 36/11/2 4/12/2
f 10/13/4 39/14/4 9/15/4
f 1/16/1 43/17/1 47/18/1
f 3/19/1 44/20/1 4/21/1
f 1/16/1 45/22/1 3/19/1
f 4/21/1 43/17/1 2/23/1
f 10/24/5 41/25/5 6/26/5
f 9/27/5 43/28/5 10/24/5
f 5/29/5 41/25/5 48/30/5
f 5/29/5 47/31/5 9/27/5
f 14/32/4 42/33/4 8/34/4
f 7/35/4 42/33/4 46/36/4
f 16/37/4 41/38/4 14/32/4
f 7/35/4 48/39/4 16/37/4
f 19/40/3 42/41/3 18/42/3
f 11/43/3 44/44/3 45/45/3
f 11/43/3 46/46/3 19/40/3
f 18/42/3 44/44/3 12/47/3
f 8/48/2 25/49/2 14/50/2
f 16/51/6 27/52/6 7/53/6
f 7/54/5 26/55/5 8/56/5
f 11/57/4 32/58/4 12/59/4
f 19/60/6 31/61/6 11/62/6
f 18/63/1 30/64/1 19/65/1
f 4/66/5 35/67/5 3/68/5
f 3/69/6 33/70/6 1/71/6
f 1/72/3 34/73/3 2/74/3
f 5/75/1 38/76/1 6/77/1
f 6/78/2 37/79/2 10/80/2
f 9/81/6 40/82/6 5/83/6
f 21/84/6 41/85/6 17/86/6
f 17/86/6 43/87/6 13/88/6
f 24/89/6 42/90/6 21/84/6
f 13/88/6 44/91/6 24/89/6
f 22/92/2 45/93/2 23/94/2
f 23/94/2 47/95/2 15/96/2
f 20/97/2 46/98/2 22/92/2
f 15/96/2 48/99/2 20/97/2
f 23/100/5 50/101/5 22/102/5
f 20/103/3 51/104/3 15/105/3
f 15/106/4 49/107/4 23/108/4
f 22/1/1 50/109/1 52/2/1
f 12/4/2 32/110/2 29/5/2
f 14/7/3 25/111/3 28/8/3
f 2/10/2 34/112/2 36/11/2
f 10/13/4 37/113/4 39/14/4
f 1/16/1 2/23/1 43/17/1
f 3/19/1 45/22/1 44/20/1
f 1/16/1 47/18/1 45/22/1
f 4/21/1 44/20/1 43/17/1
f 10/24/5 43/28/5 41/25/5
f 9/27/5 47/31/5 43/28/5
f 5/29/5 6/26/5 41/25/5
f 5/29/5 48/30/5 47/31/5
f 14/32/4 41/38/4 42/33/4
f 7/35/4 8/34/4 42/33/4
f 16/37/4 48/39/4 41/38/4
f 7/35/4 46/36/4 48/39/4
f 19/40/3 46/46/3 42/41/3
f 11/43/3 12/47/3 44/44/3
f 11/43/3 45/45/3 46/46/3
f 18/42/3 42/41/3 44/44/3
f 8/48/2 26/114/2 25/49/2
f 16/51/6 28/115/6 27/52/6
f 7/54/5 27/116/5 26/55/5
f 11/57/4 31/117/4 32/58/4
f 19/60/6 30/118/6 31/61/6
f 18/63/1 29/119/1 30/64/1
f 4/66/5 36/120/5 35/67/5
f 3/69/6 35/121/6 33/70/6
f 1/72/3 33/122/3 34/73/3
f 5/75/1 40/123/1 38/76/1
f 6/78/2 38/124/2 37/79/2
f 9/81/6 39/125/6 40/82/6
f 21/84/6 42/90/6 41/85/6
f 17/86/6 41/85/6 43/87/6
f 24/89/6 44/91/6 42/90/6
f 13/88/6 43/87/6 44/91/6
f 22/92/2 46/98/2 45/93/2
f 23/94/2 45/93/2 47/95/2
f 20/97/2 48/99/2 46/98/2
f 15/96/2 47/95/2 48/99/2
f 23/100/5 49/126/5 50/101/5
f 20/103/3 52/127/3 51/104/3
f 15/106/4 51/128/4 49/107/4
