# Blender 4.2.3 LTS
# www.blender.org
o Cube
v 0.392883 0.498620 0.607117
v 0.392883 0.498620 0.392883
v 0.326701 1.000000 0.673299
v 0.326701 1.000000 0.326701
v 0.607117 0.498620 0.607117
v 0.607117 0.498620 0.392883
v 0.673299 1.000000 0.673299
v 0.673299 1.000000 0.326701
v 0.392883 0.498620 0.392883
v 0.607117 0.498620 0.392883
v 0.392883 0.498620 0.607117
v 0.607117 0.498620 0.607117
v 0.392883 0.299376 0.392883
v 0.607117 0.299377 0.392883
v 0.392883 0.299376 0.607117
v 0.607117 0.299377 0.607117
v 0.607117 0.498620 0.607117
v 0.392883 0.498620 0.607117
v 0.607117 0.299377 0.607117
v 0.392883 0.299376 0.607117
v 0.607117 0.498620 0.607117
v 0.392883 0.498620 0.607117
v 0.607117 0.299377 0.607117
v 0.392883 0.299376 0.607117
v 0.526417 0.423567 0.977504
v 0.473583 0.423567 0.977504
v 0.526417 0.374430 0.977504
v 0.473583 0.374430 0.977504
v 0.467686 0.429052 0.034193
v 0.532314 0.429052 0.034193
v 0.467686 0.368945 0.034193
v 0.532314 0.368945 0.034193
v 0.041990 0.435812 0.539584
v 0.041990 0.435812 0.460416
v 0.041990 0.362184 0.539584
v 0.041990 0.362184 0.460416
v 0.607117 0.498620 0.607117
v 0.607117 0.498620 0.392883
v 0.607117 0.299377 0.607117
v 0.607117 0.299377 0.392883
v 0.958010 0.431726 0.535190
v 0.958010 0.431726 0.464810
v 0.958010 0.366271 0.535190
v 0.958010 0.366271 0.464810
v 0.460726 0.038156 0.460726
v 0.539274 0.038156 0.460726
v 0.460726 0.038156 0.539274
v 0.539274 0.038156 0.539274
vn -0.0000 -0.1309 0.9914
vn -0.0000 1.0000 -0.0000
vn 0.9914 -0.1309 -0.0000
vn -0.0000 -0.1309 -0.9914
vn -0.9914 -0.1309 -0.0000
vn -0.0000 -0.0000 1.0000
vn 0.9679 -0.2514 -0.0000
vn -0.0000 -0.9817 -0.1904
vn -0.1890 -0.0000 0.9820
vn 0.9771 -0.0000 0.2129
vn -0.0000 0.9801 0.1986
vn -0.9771 -0.0000 0.2129
vn -0.0000 -0.9801 0.1986
vn -0.0000 -0.0000 -1.0000
vn 0.9789 -0.0000 -0.2042
vn -0.0000 0.9817 -0.1904
vn -0.9789 -0.0000 -0.2042
vn -1.0000 -0.0000 -0.0000
vn -0.1762 -0.9844 -0.0000
vn -0.1890 -0.0000 -0.9820
vn -0.1762 0.9844 -0.0000
vn 0.2008 -0.0000 -0.9796
vn 1.0000 -0.0000 -0.0000
vn 0.1873 -0.9823 -0.0000
vn 0.2008 -0.0000 0.9796
vn 0.1873 0.9823 -0.0000
vn -0.0000 -1.0000 -0.0000
vn -0.0000 -0.2514 -0.9679
vn -0.0000 -0.2514 0.9679
vn -0.9679 -0.2514 -0.0000
vt 0.044001 0.570573
vt 0.195557 0.297699
vt 0.159760 0.570573
vt 0.415939 0.008275
vt 0.603221 0.195558
vt 0.415939 0.195557
vt 0.195557 0.008275
vt 0.044062 0.281150
vt 0.008275 0.008275
vt 0.363592 0.297699
vt 0.212107 0.570573
vt 0.247833 0.297699
vt 0.363654 0.008275
vt 0.212107 0.281150
vt 0.247894 0.008275
vt 0.415939 0.271100
vt 0.256344 0.793198
vt 0.177288 0.936764
vt 0.140584 0.793198
vt 0.531698 0.514453
vt 0.456272 0.708206
vt 0.415938 0.514453
vt 0.415938 0.914271
vt 0.492300 0.724756
vt 0.523275 0.914271
vt 0.680557 0.497913
vt 0.750813 0.297699
vt 0.787893 0.497913
vt 0.631887 0.215218
vt 0.658358 0.243762
vt 0.631887 0.243766
vt 0.415938 0.497903
vt 0.488183 0.297699
vt 0.531698 0.497903
vt 0.680557 0.714676
vt 0.744107 0.514463
vt 0.787893 0.714676
vt 0.548248 0.497903
vt 0.620311 0.297699
vt 0.664007 0.497903
vt 0.582957 0.215214
vt 0.615337 0.250141
vt 0.582957 0.250135
vt 0.752080 0.008275
vt 0.825098 0.202019
vt 0.792718 0.202019
vt 0.664007 0.514453
vt 0.588752 0.708206
vt 0.548248 0.514453
vt 0.911779 0.297699
vt 0.838760 0.491443
vt 0.804443 0.297699
vt 0.514596 0.254885
vt 0.474931 0.212113
vt 0.514596 0.212107
vt 0.256344 0.587122
vt 0.177133 0.776649
vt 0.140584 0.587122
vt 0.655584 0.724756
vt 0.584945 0.914271
vt 0.548248 0.724756
vt 0.272894 0.776649
vt 0.352220 0.587122
vt 0.388654 0.776649
vt 0.804443 0.910404
vt 0.878717 0.720708
vt 0.911780 0.910404
vt 0.531145 0.212107
vt 0.566407 0.250141
vt 0.531145 0.250136
vt 0.619770 0.197959
vt 0.696724 0.008275
vt 0.735530 0.197959
vt 0.804443 0.514463
vt 0.878717 0.704158
vt 0.843455 0.704158
vt 0.124035 0.587122
vt 0.047200 0.776806
vt 0.008275 0.587122
vt 0.415939 0.212108
vt 0.458381 0.254550
vt 0.415939 0.254550
vt 0.008275 0.936920
vt 0.087315 0.793356
vt 0.124034 0.936920
vt 0.991725 0.008275
vt 0.912563 0.151839
vt 0.875966 0.008275
vt 0.272894 0.936764
vt 0.352040 0.793198
vt 0.388654 0.936764
vt 0.008275 0.297699
vt 0.603221 0.008276
vt 0.159822 0.281150
vt 0.399389 0.570573
vt 0.399389 0.281150
vt 0.219731 0.936764
vt 0.491194 0.708206
vt 0.452635 0.724756
vt 0.724343 0.297699
vt 0.658358 0.215214
vt 0.459634 0.297699
vt 0.717636 0.514463
vt 0.591763 0.297699
vt 0.615337 0.215220
vt 0.859416 0.008275
vt 0.623673 0.708206
vt 0.871141 0.491443
vt 0.474931 0.254891
vt 0.219910 0.776649
vt 0.624610 0.914271
vt 0.309442 0.587122
vt 0.843455 0.720708
vt 0.566407 0.212112
vt 0.658695 0.008275
vt 0.911780 0.514463
vt 0.085229 0.776806
vt 0.458381 0.212107
vt 0.044872 0.793356
vt 0.955005 0.151839
vt 0.309598 0.793198
s 0
f 5/1/1 3/2/1 1/3/1
f 3/4/2 8/5/2 4/6/2
f 7/7/3 6/8/3 8/9/3
f 2/10/4 8/11/4 6/12/4
f 1/13/5 4/14/5 2/15/5
f 6/16/6 12/16/6 10/16/6
f 16/16/6 40/16/6 39/16/6
f 2/16/6 10/16/6 9/16/6
f 5/16/6 11/16/6 12/16/6
f 1/16/6 9/16/6 11/16/6
f 16/17/7 46/18/7 14/19/7
f 13/20/8 32/21/8 14/22/8
f 11/16/6 20/16/6 18/16/6
f 11/23/9 35/24/9 15/25/9
f 18/16/6 24/16/6 22/16/6
f 15/16/6 19/16/6 20/16/6
f 12/16/6 18/16/6 17/16/6
f 16/16/6 17/16/6 19/16/6
f 21/26/10 27/27/10 23/28/10
f 20/16/6 23/16/6 24/16/6
f 19/16/6 21/16/6 23/16/6
f 17/16/6 22/16/6 21/16/6
f 26/29/6 27/30/6 25/31/6
f 22/32/11 25/33/11 21/34/11
f 24/35/12 26/36/12 22/37/12
f 23/38/13 28/39/13 24/40/13
f 30/41/14 31/42/14 29/43/14
f 10/44/15 32/45/15 30/46/15
f 10/47/16 29/48/16 9/49/16
f 9/50/17 31/51/17 13/52/17
f 34/53/18 35/54/18 33/55/18
f 15/56/19 36/57/19 13/58/19
f 13/59/20 34/60/20 9/61/20
f 9/62/21 33/63/21 11/64/21
f 38/65/22 44/66/22 40/67/22
f 10/16/6 37/16/6 38/16/6
f 14/16/6 38/16/6 40/16/6
f 12/16/6 39/16/6 37/16/6
f 41/68/23 44/69/23 42/70/23
f 40/71/24 43/72/24 39/73/24
f 37/74/25 43/75/25 41/76/25
f 37/77/26 42/78/26 38/79/26
f 48/80/27 45/81/27 46/82/27
f 14/83/28 45/84/28 13/85/28
f 15/86/29 48/87/29 16/88/29
f 13/89/30 47/90/30 15/91/30
f 5/1/1 7/92/1 3/2/1
f 3/4/2 7/93/2 8/5/2
f 7/7/3 5/94/3 6/8/3
f 2/10/4 4/95/4 8/11/4
f 1/13/5 3/96/5 4/14/5
f 6/16/6 5/16/6 12/16/6
f 16/16/6 14/16/6 40/16/6
f 2/16/6 6/16/6 10/16/6
f 5/16/6 1/16/6 11/16/6
f 1/16/6 2/16/6 9/16/6
f 16/17/7 48/97/7 46/18/7
f 13/20/8 31/98/8 32/21/8
f 11/16/6 15/16/6 20/16/6
f 11/23/9 33/99/9 35/24/9
f 18/16/6 20/16/6 24/16/6
f 15/16/6 16/16/6 19/16/6
f 12/16/6 11/16/6 18/16/6
f 16/16/6 12/16/6 17/16/6
f 21/26/10 25/100/10 27/27/10
f 20/16/6 19/16/6 23/16/6
f 19/16/6 17/16/6 21/16/6
f 17/16/6 18/16/6 22/16/6
f 26/29/6 28/101/6 27/30/6
f 22/32/11 26/102/11 25/33/11
f 24/35/12 28/103/12 26/36/12
f 23/38/13 27/104/13 28/39/13
f 30/41/14 32/105/14 31/42/14
f 10/44/15 14/106/15 32/45/15
f 10/47/16 30/107/16 29/48/16
f 9/50/17 29/108/17 31/51/17
f 34/53/18 36/109/18 35/54/18
f 15/56/19 35/110/19 36/57/19
f 13/59/20 36/111/20 34/60/20
f 9/62/21 34/112/21 33/63/21
f 38/65/22 42/113/22 44/66/22
f 10/16/6 12/16/6 37/16/6
f 14/16/6 10/16/6 38/16/6
f 12/16/6 16/16/6 39/16/6
f 41/68/23 43/114/23 44/69/23
f 40/71/24 44/115/24 43/72/24
f 37/74/25 39/116/25 43/75/25
f 37/77/26 41/117/26 42/78/26
f 48/80/27 47/118/27 45/81/27
f 14/83/28 46/119/28 45/84/28
f 15/86/29 47/120/29 48/87/29
f 13/89/30 45/121/30 47/90/30
