# Blender 4.2.3 LTS
# www.blender.org
o Cube.006
v 0.862496 0.862496 0.134779
v 0.862496 0.862496 0.045805
v 0.862496 0.150699 0.134779
v 0.862496 0.150699 0.045805
v 0.150699 0.862496 0.134779
v 0.150699 0.862496 0.045805
v 0.150699 0.150699 0.134779
v 0.150699 0.150699 0.045805
v 0.640060 0.640060 0.668628
v 0.640060 0.640060 0.134779
v 0.640060 0.373135 0.668628
v 0.640060 0.373135 0.134779
v 0.373135 0.640060 0.668628
v 0.373135 0.640060 0.134779
v 0.373135 0.373135 0.668628
v 0.373135 0.373135 0.134779
v 0.773522 0.773522 0.668628
v 0.773522 0.773522 0.134779
v 0.773522 0.684547 0.668628
v 0.773522 0.684547 0.134779
v 0.684547 0.773522 0.668628
v 0.684547 0.773522 0.134779
v 0.684547 0.684547 0.668628
v 0.684547 0.684547 0.134779
v 0.328648 0.773522 0.668628
v 0.328648 0.773522 0.134779
v 0.328648 0.684547 0.668628
v 0.328648 0.684547 0.134779
v 0.239673 0.773522 0.668628
v 0.239673 0.773522 0.134779
v 0.239673 0.684547 0.668628
v 0.239673 0.684547 0.134779
v 0.773522 0.328648 0.668628
v 0.773522 0.328648 0.134779
v 0.773522 0.239673 0.668628
v 0.773522 0.239673 0.134779
v 0.684547 0.328648 0.668628
v 0.684547 0.328648 0.134779
v 0.684547 0.239673 0.668628
v 0.684547 0.239673 0.134779
v 0.328648 0.328648 0.668628
v 0.328648 0.328648 0.134779
v 0.328648 0.239673 0.668628
v 0.328648 0.239673 0.134779
v 0.239673 0.328648 0.668628
v 0.239673 0.328648 0.134779
v 0.239673 0.239673 0.668628
v 0.239673 0.239673 0.134779
v 0.862496 0.862496 0.757603
v 0.862496 0.862496 0.668628
v 0.862496 0.150699 0.757603
v 0.862496 0.150699 0.668628
v 0.150699 0.862496 0.757603
v 0.150699 0.862496 0.668628
v 0.150699 0.150699 0.757603
v 0.150699 0.150699 0.668628
vn -0.0000 -0.0000 1.0000
vn -0.0000 -1.0000 -0.0000
vn -1.0000 -0.0000 -0.0000
vn -0.0000 -0.0000 -1.0000
vn 1.0000 -0.0000 -0.0000
vn -0.0000 1.0000 -0.0000
vt 0.842260 0.148109
vt 0.698966 0.004816
vt 0.842260 0.004816
vt 0.698966 0.301034
vt 0.842260 0.157740
vt 0.842260 0.301034
vt 0.698966 0.453958
vt 0.842260 0.310665
vt 0.842260 0.453958
vt 0.842260 0.606883
vt 0.698966 0.463590
vt 0.842260 0.463590
vt 0.698966 0.759808
vt 0.842260 0.616514
vt 0.842260 0.759808
vt 0.698966 0.912732
vt 0.842260 0.769439
vt 0.842260 0.912732
vt 0.058551 0.927943
vt 0.004816 0.874208
vt 0.058551 0.874208
vt 0.004816 0.004816
vt 0.058551 0.864577
vt 0.004816 0.864577
vt 0.068182 0.004816
vt 0.121917 0.864577
vt 0.068182 0.864577
vt 0.121917 0.927943
vt 0.068182 0.874208
vt 0.121917 0.874208
vt 0.131548 0.004816
vt 0.185283 0.864577
vt 0.131548 0.864577
vt 0.194914 0.004816
vt 0.248649 0.864577
vt 0.194914 0.864577
vt 0.131548 0.892119
vt 0.149460 0.874208
vt 0.149460 0.892119
vt 0.258280 0.004816
vt 0.276192 0.864577
vt 0.258280 0.864577
vt 0.285823 0.004816
vt 0.303735 0.864577
vt 0.285823 0.864577
vt 0.177003 0.892119
vt 0.159091 0.874208
vt 0.177003 0.874208
vt 0.313366 0.004816
vt 0.331278 0.864577
vt 0.313366 0.864577
vt 0.340909 0.004816
vt 0.358821 0.864577
vt 0.340909 0.864577
vt 0.204545 0.892119
vt 0.186634 0.874208
vt 0.204545 0.874208
vt 0.368452 0.004816
vt 0.386364 0.864577
vt 0.368452 0.864577
vt 0.395995 0.004816
vt 0.413906 0.864577
vt 0.395995 0.864577
vt 0.214177 0.892119
vt 0.232088 0.874208
vt 0.232088 0.892119
vt 0.423538 0.004816
vt 0.441449 0.864577
vt 0.423538 0.864577
vt 0.451080 0.004816
vt 0.468992 0.864577
vt 0.451080 0.864577
vt 0.259631 0.892119
vt 0.241719 0.874208
vt 0.259631 0.874208
vt 0.478623 0.004816
vt 0.496535 0.864577
vt 0.478623 0.864577
vt 0.506166 0.004816
vt 0.524078 0.864577
vt 0.506166 0.864577
vt 0.269262 0.892119
vt 0.287174 0.874208
vt 0.287174 0.892119
vt 0.533709 0.004816
vt 0.551621 0.864577
vt 0.533709 0.864577
vt 0.561252 0.004816
vt 0.579163 0.864577
vt 0.561252 0.864577
vt 0.296805 0.892119
vt 0.314717 0.874208
vt 0.314717 0.892119
vt 0.588795 0.004816
vt 0.606706 0.864577
vt 0.588795 0.864577
vt 0.616338 0.004816
vt 0.634249 0.864577
vt 0.616338 0.864577
vt 0.342260 0.892119
vt 0.324348 0.874208
vt 0.342260 0.874208
vt 0.643880 0.004816
vt 0.661792 0.864577
vt 0.643880 0.864577
vt 0.671423 0.004816
vt 0.689335 0.864577
vt 0.671423 0.864577
vt 0.995184 0.148109
vt 0.851891 0.004816
vt 0.995184 0.004816
vt 0.851891 0.453958
vt 0.995184 0.310665
vt 0.995184 0.453958
vt 0.851891 0.606883
vt 0.995184 0.463590
vt 0.995184 0.606883
vt 0.995184 0.301034
vt 0.851891 0.157740
vt 0.995184 0.157740
vt 0.851891 0.759808
vt 0.995184 0.616514
vt 0.995184 0.759808
vt 0.851891 0.912732
vt 0.995184 0.769439
vt 0.995184 0.912732
vt 0.698966 0.148109
vt 0.698966 0.157740
vt 0.698966 0.310665
vt 0.698966 0.606883
vt 0.698966 0.616514
vt 0.698966 0.769439
vt 0.004816 0.927943
vt 0.058551 0.004816
vt 0.121917 0.004816
vt 0.068182 0.927943
vt 0.185283 0.004816
vt 0.248649 0.004816
vt 0.131548 0.874208
vt 0.276192 0.004816
vt 0.303735 0.004816
vt 0.159091 0.892119
vt 0.331278 0.004816
vt 0.358821 0.004816
vt 0.186634 0.892119
vt 0.386364 0.004816
vt 0.413906 0.004816
vt 0.214177 0.874208
vt 0.441449 0.004816
vt 0.468992 0.004816
vt 0.241719 0.892119
vt 0.496535 0.004816
vt 0.524078 0.004816
vt 0.269262 0.874208
vt 0.551621 0.004816
vt 0.579163 0.004816
vt 0.296805 0.874208
vt 0.606706 0.004816
vt 0.634249 0.004816
vt 0.324348 0.892119
vt 0.661792 0.004816
vt 0.689335 0.004816
vt 0.851891 0.148109
vt 0.851891 0.310665
vt 0.851891 0.463590
vt 0.851891 0.301034
vt 0.851891 0.616514
vt 0.851891 0.769439
s 0
f 5/1/1 3/2/1 1/3/1
f 3/4/2 8/5/2 4/6/2
f 7/7/3 6/8/3 8/9/3
f 2/10/4 8/11/4 6/12/4
f 1/13/5 4/14/5 2/15/5
f 5/16/6 2/17/6 6/18/6
f 13/19/1 11/20/1 9/21/1
f 11/22/2 16/23/2 12/24/2
f 15/25/3 14/26/3 16/27/3
f 10/28/4 16/29/4 14/30/4
f 9/31/5 12/32/5 10/33/5
f 13/34/6 10/35/6 14/36/6
f 21/37/1 19/38/1 17/39/1
f 19/40/2 24/41/2 20/42/2
f 23/43/3 22/44/3 24/45/3
f 18/46/4 24/47/4 22/48/4
f 17/49/5 20/50/5 18/51/5
f 21/52/6 18/53/6 22/54/6
f 29/55/1 27/56/1 25/57/1
f 27/58/2 32/59/2 28/60/2
f 31/61/3 30/62/3 32/63/3
f 26/64/4 32/65/4 30/66/4
f 25/67/5 28/68/5 26/69/5
f 29/70/6 26/71/6 30/72/6
f 37/73/1 35/74/1 33/75/1
f 35/76/2 40/77/2 36/78/2
f 39/79/3 38/80/3 40/81/3
f 34/82/4 40/83/4 38/84/4
f 33/85/5 36/86/5 34/87/5
f 37/88/6 34/89/6 38/90/6
f 45/91/1 43/92/1 41/93/1
f 43/94/2 48/95/2 44/96/2
f 47/97/3 46/98/3 48/99/3
f 42/100/4 48/101/4 46/102/4
f 41/103/5 44/104/5 42/105/5
f 45/106/6 42/107/6 46/108/6
f 53/109/1 51/110/1 49/111/1
f 51/112/2 56/113/2 52/114/2
f 55/115/3 54/116/3 56/117/3
f 50/118/4 56/119/4 54/120/4
f 49/121/5 52/122/5 50/123/5
f 53/124/6 50/125/6 54/126/6
f 5/1/1 7/127/1 3/2/1
f 3/4/2 7/128/2 8/5/2
f 7/7/3 5/129/3 6/8/3
f 2/10/4 4/130/4 8/11/4
f 1/13/5 3/131/5 4/14/5
f 5/16/6 1/132/6 2/17/6
f 13/19/1 15/133/1 11/20/1
f 11/22/2 15/134/2 16/23/2
f 15/25/3 13/135/3 14/26/3
f 10/28/4 12/136/4 16/29/4
f 9/31/5 11/137/5 12/32/5
f 13/34/6 9/138/6 10/35/6
f 21/37/1 23/139/1 19/38/1
f 19/40/2 23/140/2 24/41/2
f 23/43/3 21/141/3 22/44/3
f 18/46/4 20/142/4 24/47/4
f 17/49/5 19/143/5 20/50/5
f 21/52/6 17/144/6 18/53/6
f 29/55/1 31/145/1 27/56/1
f 27/58/2 31/146/2 32/59/2
f 31/61/3 29/147/3 30/62/3
f 26/64/4 28/148/4 32/65/4
f 25/67/5 27/149/5 28/68/5
f 29/70/6 25/150/6 26/71/6
f 37/73/1 39/151/1 35/74/1
f 35/76/2 39/152/2 40/77/2
f 39/79/3 37/153/3 38/80/3
f 34/82/4 36/154/4 40/83/4
f 33/85/5 35/155/5 36/86/5
f 37/88/6 33/156/6 34/89/6
f 45/91/1 47/157/1 43/92/1
f 43/94/2 47/158/2 48/95/2
f 47/97/3 45/159/3 46/98/3
f 42/100/4 44/160/4 48/101/4
f 41/103/5 43/161/5 44/104/5
f 45/106/6 41/162/6 42/107/6
f 53/109/1 55/163/1 51/110/1
f 51/112/2 55/164/2 56/113/2
f 55/115/3 53/165/3 54/116/3
f 50/118/4 52/166/4 56/119/4
f 49/121/5 51/167/5 52/122/5
f 53/124/6 49/168/6 50/125/6
