# Blender 4.2.3 LTS
# www.blender.org
o Cube.001
v 0.156679 0.134756 -0.005696
v 0.156679 0.134756 0.064160
v 0.156679 0.368448 -0.005696
v 0.156679 0.368448 0.064160
v 0.390371 0.134756 -0.005696
v 0.390371 0.134756 0.064160
v 0.390371 0.368448 -0.005696
v 0.390371 0.368448 0.064160
v 0.231310 0.209889 0.057872
v 0.231310 0.209889 0.083217
v 0.231310 0.298272 0.057872
v 0.231310 0.298272 0.083217
v 0.319693 0.209889 0.057872
v 0.319693 0.209889 0.083217
v 0.319693 0.298272 0.057872
v 0.319693 0.298272 0.083217
v 0.136880 0.209889 0.057872
v 0.136880 0.209889 0.070115
v 0.136880 0.298272 0.057872
v 0.136880 0.298272 0.070115
v 0.411015 0.209889 0.070115
v 0.411015 0.298272 0.070115
v 0.411015 0.298272 0.057872
v 0.411015 0.209889 0.057872
v 0.231310 0.119471 0.070115
v 0.319693 0.119471 0.070115
v 0.231310 0.119471 0.057872
v 0.319693 0.119471 0.057872
v 0.319693 0.389240 0.070115
v 0.319693 0.389240 0.057872
v 0.231310 0.389240 0.057872
v 0.231310 0.389240 0.070115
v 0.297761 0.710232 0.057872
v 0.297761 0.710232 0.090373
v 0.297761 0.798616 0.057872
v 0.297761 0.798616 0.090373
v 0.386145 0.710232 0.057872
v 0.386145 0.710232 0.090373
v 0.386145 0.798616 0.057872
v 0.386145 0.798616 0.090373
v 0.203332 0.710232 0.057872
v 0.203332 0.710232 0.070115
v 0.203332 0.798616 0.057872
v 0.203332 0.798616 0.070115
v 0.477467 0.710232 0.070115
v 0.477467 0.798616 0.070115
v 0.477467 0.798616 0.057872
v 0.477467 0.710232 0.057872
v 0.297761 0.619815 0.070115
v 0.386145 0.619815 0.070115
v 0.297761 0.619815 0.057872
v 0.386145 0.619815 0.057872
v 0.386145 0.889584 0.070115
v 0.386145 0.889584 0.057872
v 0.297761 0.889584 0.057872
v 0.297761 0.889584 0.070115
v 0.692564 0.260705 0.057872
v 0.692564 0.260705 0.083162
v 0.692564 0.349088 0.057872
v 0.692564 0.349088 0.083162
v 0.780947 0.260705 0.057872
v 0.780947 0.260705 0.083162
v 0.780947 0.349088 0.057872
v 0.780947 0.349088 0.083162
v 0.598134 0.260705 0.057872
v 0.598134 0.260705 0.070115
v 0.598134 0.349088 0.057872
v 0.598134 0.349088 0.070115
v 0.872269 0.260705 0.070115
v 0.872269 0.349088 0.070115
v 0.872269 0.349088 0.057872
v 0.872269 0.260705 0.057872
v 0.692564 0.170288 0.070115
v 0.780947 0.170288 0.070115
v 0.692564 0.170288 0.057872
v 0.780947 0.170288 0.057872
v 0.780947 0.440056 0.070115
v 0.780947 0.440056 0.057872
v 0.692564 0.440056 0.057872
v 0.692564 0.440056 0.070115
v 0.755107 0.745413 0.057872
v 0.755107 0.745413 0.087357
v 0.755107 0.833796 0.057872
v 0.755107 0.833796 0.087357
v 0.843490 0.745413 0.057872
v 0.843490 0.745413 0.087357
v 0.843490 0.833796 0.057872
v 0.843490 0.833796 0.087357
v 0.660677 0.745413 0.057872
v 0.660677 0.745413 0.070115
v 0.660677 0.833796 0.057872
v 0.660677 0.833796 0.070115
v 0.934812 0.745413 0.070115
v 0.934812 0.833796 0.070115
v 0.934812 0.833796 0.057872
v 0.934812 0.745413 0.057872
v 0.755107 0.654995 0.070115
v 0.843490 0.654995 0.070115
v 0.755107 0.654995 0.057872
v 0.843490 0.654995 0.057872
v 0.843490 0.924764 0.070115
v 0.843490 0.924764 0.057872
v 0.755107 0.924764 0.057872
v 0.755107 0.924764 0.070115
v 0.227337 0.635538 -0.004548
v 0.227337 0.635538 0.063011
v 0.227337 0.861545 -0.004548
v 0.227337 0.861545 0.063011
v 0.453344 0.635538 -0.004548
v 0.453344 0.635538 0.063011
v 0.453344 0.861545 -0.004548
v 0.453344 0.861545 0.063011
v 0.622860 0.186472 -0.004280
v 0.622860 0.186472 0.062744
v 0.622860 0.410691 -0.004280
v 0.622860 0.410691 0.062744
v 0.847079 0.186472 -0.004280
v 0.847079 0.186472 0.062744
v 0.847079 0.410691 -0.004280
v 0.847079 0.410691 0.062744
v 0.682240 0.666647 -0.006263
v 0.682240 0.666647 0.064727
v 0.682240 0.904133 -0.006263
v 0.682240 0.904133 0.064727
v 0.919726 0.666647 -0.006263
v 0.919726 0.666647 0.064727
v 0.919726 0.904133 -0.006263
v 0.919726 0.904133 0.064727
vn -1.0000 -0.0000 -0.0000
vn -0.0000 1.0000 -0.0000
vn 1.0000 -0.0000 -0.0000
vn -0.0000 -1.0000 -0.0000
vn -0.0000 -0.0000 -1.0000
vn -0.0000 -0.0000 1.0000
vn -0.1374 -0.0000 0.9905
vn 0.1420 -0.0000 0.9899
vn -0.0000 -0.1434 0.9897
vn -0.0000 0.1426 0.9898
vn -0.2098 -0.0000 0.9778
vn 0.2166 -0.0000 0.9763
vn -0.0000 -0.2186 0.9758
vn -0.0000 0.2174 0.9761
vn -0.1369 -0.0000 0.9906
vn 0.1414 -0.0000 0.9899
vn -0.0000 -0.1428 0.9897
vn -0.0000 0.1420 0.9899
vn -0.1796 -0.0000 0.9837
vn 0.1855 -0.0000 0.9826
vn -0.0000 -0.1873 0.9823
vn -0.0000 0.1862 0.9825
vt 0.316700 0.369708
vt 0.368889 0.317520
vt 0.368889 0.369708
vt 0.431454 0.369708
vt 0.483643 0.317520
vt 0.483643 0.369708
vt 0.316700 0.484462
vt 0.368889 0.432274
vt 0.368889 0.484462
vt 0.431454 0.484462
vt 0.483643 0.432274
vt 0.483643 0.484462
vt 0.598397 0.661782
vt 0.546208 0.713970
vt 0.546208 0.661782
vt 0.511597 0.083471
vt 0.459409 0.031283
vt 0.511597 0.031283
vt 0.194817 0.214926
vt 0.233995 0.215121
vt 0.214503 0.195435
vt 0.866623 0.432274
vt 0.879461 0.460787
vt 0.893200 0.432274
vt 0.120367 0.786792
vt 0.133204 0.815416
vt 0.146943 0.786792
vt 0.071131 0.377716
vt 0.070936 0.338538
vt 0.051445 0.358224
vt 0.193678 0.174401
vt 0.880718 0.625565
vt 0.867881 0.653906
vt 0.894457 0.653906
vt 0.871988 0.058986
vt 0.884826 0.031283
vt 0.871988 0.031283
vt 0.688917 0.224574
vt 0.701755 0.254173
vt 0.715493 0.224574
vt 0.790897 0.224574
vt 0.778059 0.254173
vt 0.804635 0.254173
vt 0.111426 0.337012
vt 0.090623 0.358029
vt 0.405784 0.897723
vt 0.418622 0.870019
vt 0.405784 0.870019
vt 0.222346 0.786792
vt 0.209508 0.815416
vt 0.236085 0.815416
vt 0.031283 0.378581
vt 0.234448 0.254954
vt 0.214308 0.234613
vt 0.481187 0.897723
vt 0.494025 0.870019
vt 0.481187 0.870019
vt 0.050775 0.318613
vt 0.254135 0.195181
vt 0.867881 0.716471
vt 0.880718 0.744812
vt 0.894457 0.716471
vt 0.556590 0.897723
vt 0.569428 0.870019
vt 0.556590 0.870019
vt 0.091371 0.397793
vt 0.174554 0.234988
vt 0.879461 0.523353
vt 0.866623 0.551867
vt 0.893200 0.551867
vt 0.194817 0.071808
vt 0.233995 0.072003
vt 0.214503 0.052316
vt 0.213663 0.724226
vt 0.242177 0.711388
vt 0.213663 0.690146
vt 0.031283 0.724226
vt 0.059907 0.711388
vt 0.031283 0.690146
vt 0.213852 0.377707
vt 0.213657 0.338529
vt 0.194166 0.358216
vt 0.193678 0.031283
vt 0.775716 0.453516
vt 0.804058 0.466354
vt 0.804058 0.432274
vt 0.631994 0.897723
vt 0.644831 0.870019
vt 0.631994 0.870019
vt 0.688917 0.065363
vt 0.718516 0.052525
vt 0.688917 0.031283
vt 0.688917 0.149171
vt 0.718516 0.162008
vt 0.718516 0.127928
vt 0.254135 0.337011
vt 0.233344 0.358021
vt 0.120367 0.905685
vt 0.133204 0.877982
vt 0.120367 0.877982
vt 0.122473 0.711388
vt 0.151098 0.724226
vt 0.151098 0.690146
vt 0.173992 0.378581
vt 0.234448 0.111836
vt 0.214308 0.091495
vt 0.195770 0.905685
vt 0.208607 0.877982
vt 0.195770 0.877982
vt 0.193483 0.318613
vt 0.254135 0.052063
vt 0.775716 0.562999
vt 0.804058 0.550161
vt 0.775716 0.528919
vt 0.031283 0.906660
vt 0.044120 0.878956
vt 0.031283 0.878956
vt 0.234080 0.397793
vt 0.174554 0.091870
vt 0.775716 0.338762
vt 0.804230 0.351600
vt 0.804230 0.317520
vt 0.052108 0.214926
vt 0.091286 0.215121
vt 0.071795 0.195435
vt 0.867201 0.224574
vt 0.880039 0.253087
vt 0.893719 0.224574
vt 0.775716 0.812531
vt 0.788554 0.841156
vt 0.802235 0.812531
vt 0.356549 0.091479
vt 0.356354 0.052301
vt 0.336862 0.071987
vt 0.050969 0.174401
vt 0.329538 0.870019
vt 0.316700 0.898360
vt 0.343219 0.898360
vt 0.775716 0.931425
vt 0.788554 0.903721
vt 0.775716 0.903721
vt 0.031283 0.786792
vt 0.044120 0.816390
vt 0.057801 0.786792
vt 0.793919 0.124766
vt 0.781081 0.154365
vt 0.807600 0.154365
vt 0.396843 0.050775
vt 0.376040 0.071792
vt 0.851120 0.931425
vt 0.863957 0.903721
vt 0.851120 0.903721
vt 0.877638 0.812531
vt 0.864800 0.841156
vt 0.891318 0.841156
vt 0.316700 0.092344
vt 0.091739 0.254954
vt 0.071600 0.234613
vt 0.955765 0.551057
vt 0.968603 0.523353
vt 0.955765 0.523353
vt 0.336192 0.032376
vt 0.111426 0.195181
vt 0.870165 0.124766
vt 0.883003 0.153107
vt 0.896683 0.124766
vt 0.955879 0.345223
vt 0.968717 0.317520
vt 0.955879 0.317520
vt 0.376789 0.111556
vt 0.031846 0.234988
vt 0.879633 0.317520
vt 0.866796 0.346033
vt 0.893314 0.346033
vt 0.052108 0.071808
vt 0.091286 0.072003
vt 0.071795 0.052316
vt 0.499081 0.807454
vt 0.527594 0.794616
vt 0.499081 0.776536
vt 0.316700 0.807454
vt 0.345325 0.794616
vt 0.316700 0.776536
vt 0.356556 0.234593
vt 0.356361 0.195414
vt 0.336869 0.215101
vt 0.050969 0.031283
vt 0.681239 0.794616
vt 0.709580 0.807454
vt 0.709580 0.776536
vt 0.926523 0.931425
vt 0.939360 0.903721
vt 0.926523 0.903721
vt 0.775716 0.656482
vt 0.805315 0.643645
vt 0.775716 0.625565
vt 0.775716 0.737128
vt 0.805315 0.749966
vt 0.805315 0.719048
vt 0.396843 0.193893
vt 0.376048 0.214906
vt 0.947391 0.058986
vt 0.960229 0.031283
vt 0.947391 0.031283
vt 0.407890 0.794616
vt 0.436515 0.807454
vt 0.436515 0.776536
vt 0.316700 0.235462
vt 0.091739 0.111836
vt 0.071600 0.091495
vt 0.953884 0.840235
vt 0.966722 0.812531
vt 0.953884 0.812531
vt 0.336192 0.175494
vt 0.111426 0.052063
vt 0.781081 0.062200
vt 0.809423 0.049363
vt 0.781081 0.031283
vt 0.955765 0.459977
vt 0.968603 0.432274
vt 0.955765 0.432274
vt 0.376789 0.254675
vt 0.031846 0.091870
vt 0.590160 0.794616
vt 0.618674 0.807454
vt 0.618674 0.776536
vt 0.031283 0.627581
vt 0.083471 0.575392
vt 0.083471 0.627581
vt 0.459409 0.198225
vt 0.511597 0.146037
vt 0.511597 0.198225
vt 0.146037 0.627581
vt 0.198225 0.575392
vt 0.198225 0.627581
vt 0.031283 0.512826
vt 0.083471 0.460638
vt 0.083471 0.512827
vt 0.713151 0.661782
vt 0.660962 0.713970
vt 0.660962 0.661782
vt 0.198225 0.512827
vt 0.146037 0.460638
vt 0.198225 0.460638
vt 0.546208 0.369708
vt 0.598397 0.317520
vt 0.598397 0.369708
vt 0.660962 0.369708
vt 0.713151 0.317520
vt 0.713151 0.369708
vt 0.316700 0.599216
vt 0.368889 0.547028
vt 0.368889 0.599216
vt 0.660962 0.484462
vt 0.713151 0.432274
vt 0.713151 0.484462
vt 0.368889 0.661782
vt 0.316700 0.713970
vt 0.316700 0.661782
vt 0.431454 0.599216
vt 0.483643 0.547028
vt 0.483643 0.599216
vt 0.546208 0.599216
vt 0.598397 0.547028
vt 0.598397 0.599216
vt 0.546208 0.484462
vt 0.598397 0.432274
vt 0.598397 0.484462
vt 0.574163 0.083471
vt 0.626351 0.031283
vt 0.626351 0.083471
vt 0.574163 0.198225
vt 0.626351 0.146037
vt 0.626351 0.198225
vt 0.483643 0.661782
vt 0.431454 0.713970
vt 0.431454 0.661782
vt 0.713151 0.599216
vt 0.660962 0.547028
vt 0.713151 0.547028
vt 0.316700 0.317520
vt 0.431454 0.317520
vt 0.316700 0.432274
vt 0.431454 0.432274
vt 0.598397 0.713970
vt 0.459409 0.083471
vt 0.866623 0.460787
vt 0.120367 0.815416
vt 0.173992 0.193893
vt 0.867881 0.625565
vt 0.884826 0.058986
vt 0.688917 0.254173
vt 0.778059 0.224574
vt 0.091739 0.317520
vt 0.418622 0.897723
vt 0.209508 0.786792
vt 0.050969 0.398072
vt 0.254135 0.235462
vt 0.494025 0.897723
vt 0.031283 0.338299
vt 0.234643 0.175494
vt 0.867881 0.744812
vt 0.569428 0.897723
vt 0.110863 0.378107
vt 0.194046 0.254675
vt 0.866623 0.523353
vt 0.242177 0.724226
vt 0.059907 0.724226
vt 0.173992 0.050775
vt 0.775716 0.466354
vt 0.644831 0.897723
vt 0.718516 0.065363
vt 0.688917 0.162008
vt 0.234448 0.317520
vt 0.133204 0.905685
vt 0.122473 0.724226
vt 0.193678 0.398072
vt 0.254135 0.092344
vt 0.208607 0.905685
vt 0.173992 0.338299
vt 0.234643 0.032376
vt 0.804058 0.562999
vt 0.044120 0.906660
vt 0.253572 0.378106
vt 0.194046 0.111556
vt 0.775716 0.351600
vt 0.867201 0.253087
vt 0.775716 0.841156
vt 0.031283 0.193893
vt 0.316700 0.870019
vt 0.788554 0.931425
vt 0.031283 0.816390
vt 0.781081 0.124766
vt 0.377157 0.031283
vt 0.863957 0.931425
vt 0.864800 0.812531
vt 0.336387 0.111836
vt 0.111426 0.235462
vt 0.968603 0.551057
vt 0.316700 0.052062
vt 0.091934 0.175494
vt 0.870165 0.153107
vt 0.968717 0.345223
vt 0.396281 0.091870
vt 0.051337 0.254675
vt 0.866796 0.317520
vt 0.527594 0.807454
vt 0.345325 0.807454
vt 0.031283 0.050775
vt 0.681239 0.807454
vt 0.939360 0.931425
vt 0.805315 0.656482
vt 0.775716 0.749966
vt 0.377157 0.174401
vt 0.960229 0.058986
vt 0.407890 0.807454
vt 0.336387 0.254954
vt 0.111426 0.092344
vt 0.966722 0.840235
vt 0.316700 0.195181
vt 0.091934 0.032376
vt 0.809423 0.062200
vt 0.968603 0.459977
vt 0.396281 0.234988
vt 0.051337 0.111556
vt 0.590160 0.807454
vt 0.031283 0.575392
vt 0.459409 0.146037
vt 0.146037 0.575392
vt 0.031283 0.460638
vt 0.713151 0.713970
vt 0.146037 0.512827
vt 0.546208 0.317520
vt 0.660962 0.317520
vt 0.316700 0.547028
vt 0.660962 0.432274
vt 0.368889 0.713970
vt 0.431454 0.547028
vt 0.546208 0.547028
vt 0.546208 0.432274
vt 0.574163 0.031283
vt 0.574163 0.146037
vt 0.483643 0.713970
vt 0.660962 0.599216
s 0
f 2/1/1 3/2/1 1/3/1
f 4/4/2 7/5/2 3/6/2
f 8/7/3 5/8/3 7/9/3
f 6/10/4 1/11/4 5/12/4
f 7/13/5 1/14/5 3/15/5
f 4/16/6 6/17/6 8/18/6
f 11/19/5 13/20/5 9/21/5
f 15/22/3 29/23/3 16/24/3
f 13/25/4 21/26/4 14/27/4
f 16/28/6 10/29/6 14/30/6
f 17/31/5 11/19/5 9/21/5
f 26/32/3 13/33/3 14/34/3
f 20/35/1 17/36/1 18/37/1
f 11/38/2 20/39/2 12/40/2
f 18/41/4 9/42/4 10/43/4
f 20/44/7 10/29/7 12/45/7
f 21/46/3 23/47/3 22/48/3
f 22/49/2 15/50/2 16/51/2
f 21/52/8 16/28/8 14/30/8
f 23/53/5 13/20/5 15/54/5
f 25/55/4 28/56/4 26/57/4
f 25/58/9 14/30/9 10/29/9
f 28/59/5 9/21/5 13/20/5
f 9/60/1 25/61/1 10/62/1
f 29/63/2 31/64/2 32/65/2
f 29/66/10 12/45/10 16/28/10
f 31/67/5 15/54/5 11/19/5
f 32/68/1 11/69/1 12/70/1
f 35/71/5 37/72/5 33/73/5
f 39/74/3 53/75/3 40/76/3
f 37/77/4 45/78/4 38/79/4
f 40/80/6 34/81/6 38/82/6
f 41/83/5 35/71/5 33/73/5
f 50/84/3 37/85/3 38/86/3
f 44/87/1 41/88/1 42/89/1
f 35/90/2 44/91/2 36/92/2
f 42/93/4 33/94/4 34/95/4
f 44/96/11 34/81/11 36/97/11
f 45/98/3 47/99/3 46/100/3
f 46/101/2 39/102/2 40/103/2
f 45/104/12 40/80/12 38/82/12
f 47/105/5 37/72/5 39/106/5
f 49/107/4 52/108/4 50/109/4
f 49/110/13 38/82/13 34/81/13
f 52/111/5 33/73/5 37/72/5
f 33/112/1 49/113/1 34/114/1
f 53/115/2 55/116/2 56/117/2
f 53/118/14 36/97/14 40/80/14
f 55/119/5 39/106/5 35/71/5
f 56/120/1 35/121/1 36/122/1
f 59/123/5 61/124/5 57/125/5
f 63/126/3 77/127/3 64/128/3
f 61/129/4 69/130/4 62/131/4
f 64/132/6 58/133/6 62/134/6
f 65/135/5 59/123/5 57/125/5
f 74/136/3 61/137/3 62/138/3
f 68/139/1 65/140/1 66/141/1
f 59/142/2 68/143/2 60/144/2
f 66/145/4 57/146/4 58/147/4
f 68/148/15 58/133/15 60/149/15
f 69/150/3 71/151/3 70/152/3
f 70/153/2 63/154/2 64/155/2
f 69/156/16 64/132/16 62/134/16
f 71/157/5 61/124/5 63/158/5
f 73/159/4 76/160/4 74/161/4
f 73/162/17 62/134/17 58/133/17
f 76/163/5 57/125/5 61/124/5
f 57/164/1 73/165/1 58/166/1
f 77/167/2 79/168/2 80/169/2
f 77/170/18 60/149/18 64/132/18
f 79/171/5 63/158/5 59/123/5
f 80/172/1 59/173/1 60/174/1
f 83/175/5 85/176/5 81/177/5
f 87/178/3 101/179/3 88/180/3
f 85/181/4 93/182/4 86/183/4
f 88/184/6 82/185/6 86/186/6
f 89/187/5 83/175/5 81/177/5
f 98/188/3 85/189/3 86/190/3
f 92/191/1 89/192/1 90/193/1
f 83/194/2 92/195/2 84/196/2
f 90/197/4 81/198/4 82/199/4
f 92/200/19 82/185/19 84/201/19
f 93/202/3 95/203/3 94/204/3
f 94/205/2 87/206/2 88/207/2
f 93/208/20 88/184/20 86/186/20
f 95/209/5 85/176/5 87/210/5
f 97/211/4 100/212/4 98/213/4
f 97/214/21 86/186/21 82/185/21
f 100/215/5 81/177/5 85/176/5
f 81/216/1 97/217/1 82/218/1
f 101/219/2 103/220/2 104/221/2
f 101/222/22 84/201/22 88/184/22
f 103/223/5 87/210/5 83/175/5
f 104/224/1 83/225/1 84/226/1
f 106/227/1 107/228/1 105/229/1
f 108/230/2 111/231/2 107/232/2
f 112/233/3 109/234/3 111/235/3
f 110/236/4 105/237/4 109/238/4
f 111/239/5 105/240/5 107/241/5
f 108/242/6 110/243/6 112/244/6
f 114/245/1 115/246/1 113/247/1
f 116/248/2 119/249/2 115/250/2
f 120/251/3 117/252/3 119/253/3
f 118/254/4 113/255/4 117/256/4
f 119/257/5 113/258/5 115/259/5
f 116/260/6 118/261/6 120/262/6
f 122/263/1 123/264/1 121/265/1
f 124/266/2 127/267/2 123/268/2
f 128/269/3 125/270/3 127/271/3
f 126/272/4 121/273/4 125/274/4
f 127/275/5 121/276/5 123/277/5
f 124/278/6 126/279/6 128/280/6
f 2/1/1 4/281/1 3/2/1
f 4/4/2 8/282/2 7/5/2
f 8/7/3 6/283/3 5/8/3
f 6/10/4 2/284/4 1/11/4
f 7/13/5 5/285/5 1/14/5
f 4/16/6 2/286/6 6/17/6
f 11/19/5 15/54/5 13/20/5
f 15/22/3 30/287/3 29/23/3
f 13/25/4 24/288/4 21/26/4
f 16/28/6 12/45/6 10/29/6
f 17/31/5 19/289/5 11/19/5
f 26/32/3 28/290/3 13/33/3
f 20/35/1 19/291/1 17/36/1
f 11/38/2 19/292/2 20/39/2
f 18/41/4 17/293/4 9/42/4
f 20/44/7 18/294/7 10/29/7
f 21/46/3 24/295/3 23/47/3
f 22/49/2 23/296/2 15/50/2
f 21/52/8 22/297/8 16/28/8
f 23/53/5 24/298/5 13/20/5
f 25/55/4 27/299/4 28/56/4
f 25/58/9 26/300/9 14/30/9
f 28/59/5 27/301/5 9/21/5
f 9/60/1 27/302/1 25/61/1
f 29/63/2 30/303/2 31/64/2
f 29/66/10 32/304/10 12/45/10
f 31/67/5 30/305/5 15/54/5
f 32/68/1 31/306/1 11/69/1
f 35/71/5 39/106/5 37/72/5
f 39/74/3 54/307/3 53/75/3
f 37/77/4 48/308/4 45/78/4
f 40/80/6 36/97/6 34/81/6
f 41/83/5 43/309/5 35/71/5
f 50/84/3 52/310/3 37/85/3
f 44/87/1 43/311/1 41/88/1
f 35/90/2 43/312/2 44/91/2
f 42/93/4 41/313/4 33/94/4
f 44/96/11 42/314/11 34/81/11
f 45/98/3 48/315/3 47/99/3
f 46/101/2 47/316/2 39/102/2
f 45/104/12 46/317/12 40/80/12
f 47/105/5 48/318/5 37/72/5
f 49/107/4 51/319/4 52/108/4
f 49/110/13 50/320/13 38/82/13
f 52/111/5 51/321/5 33/73/5
f 33/112/1 51/322/1 49/113/1
f 53/115/2 54/323/2 55/116/2
f 53/118/14 56/324/14 36/97/14
f 55/119/5 54/325/5 39/106/5
f 56/120/1 55/326/1 35/121/1
f 59/123/5 63/158/5 61/124/5
f 63/126/3 78/327/3 77/127/3
f 61/129/4 72/328/4 69/130/4
f 64/132/6 60/149/6 58/133/6
f 65/135/5 67/329/5 59/123/5
f 74/136/3 76/330/3 61/137/3
f 68/139/1 67/331/1 65/140/1
f 59/142/2 67/332/2 68/143/2
f 66/145/4 65/333/4 57/146/4
f 68/148/15 66/334/15 58/133/15
f 69/150/3 72/335/3 71/151/3
f 70/153/2 71/336/2 63/154/2
f 69/156/16 70/337/16 64/132/16
f 71/157/5 72/338/5 61/124/5
f 73/159/4 75/339/4 76/160/4
f 73/162/17 74/340/17 62/134/17
f 76/163/5 75/341/5 57/125/5
f 57/164/1 75/342/1 73/165/1
f 77/167/2 78/343/2 79/168/2
f 77/170/18 80/344/18 60/149/18
f 79/171/5 78/345/5 63/158/5
f 80/172/1 79/346/1 59/173/1
f 83/175/5 87/210/5 85/176/5
f 87/178/3 102/347/3 101/179/3
f 85/181/4 96/348/4 93/182/4
f 88/184/6 84/201/6 82/185/6
f 89/187/5 91/349/5 83/175/5
f 98/188/3 100/350/3 85/189/3
f 92/191/1 91/351/1 89/192/1
f 83/194/2 91/352/2 92/195/2
f 90/197/4 89/353/4 81/198/4
f 92/200/19 90/354/19 82/185/19
f 93/202/3 96/355/3 95/203/3
f 94/205/2 95/356/2 87/206/2
f 93/208/20 94/357/20 88/184/20
f 95/209/5 96/358/5 85/176/5
f 97/211/4 99/359/4 100/212/4
f 97/214/21 98/360/21 86/186/21
f 100/215/5 99/361/5 81/177/5
f 81/216/1 99/362/1 97/217/1
f 101/219/2 102/363/2 103/220/2
f 101/222/22 104/364/22 84/201/22
f 103/223/5 102/365/5 87/210/5
f 104/224/1 103/366/1 83/225/1
f 106/227/1 108/367/1 107/228/1
f 108/230/2 112/368/2 111/231/2
f 112/233/3 110/369/3 109/234/3
f 110/236/4 106/370/4 105/237/4
f 111/239/5 109/371/5 105/240/5
f 108/242/6 106/372/6 110/243/6
f 114/245/1 116/373/1 115/246/1
f 116/248/2 120/374/2 119/249/2
f 120/251/3 118/375/3 117/252/3
f 118/254/4 114/376/4 113/255/4
f 119/257/5 117/377/5 113/258/5
f 116/260/6 114/378/6 118/261/6
f 122/263/1 124/379/1 123/264/1
f 124/266/2 128/380/2 127/267/2
f 128/269/3 126/381/3 125/270/3
f 126/272/4 122/382/4 121/273/4
f 127/275/5 125/383/5 121/276/5
f 124/278/6 122/384/6 126/279/6
