# Blender 4.2.3 LTS
# www.blender.org
o Cube
v -0.033021 -1.016817 -0.004966
v -0.033021 -1.016817 0.005667
v -0.033021 -0.990888 -0.004966
v -0.033021 -0.990888 0.005667
v 0.033021 -1.016817 -0.004966
v 0.033021 -1.016817 0.005667
v 0.033021 -0.991361 -0.004966
v 0.033021 -0.991361 0.005667
v 0.000000 -0.950774 -0.004966
v 0.000000 -0.950774 0.005667
v 0.000000 -0.974661 -0.004966
v 0.000000 -0.974661 0.005667
v 0.010000 0.011597 0.010000
v 0.010000 0.011597 -0.010000
v 0.010000 -0.988403 0.010000
v 0.010000 -0.988403 -0.010000
v -0.010000 0.011597 0.010000
v -0.010000 0.011597 -0.010000
v -0.010000 -0.988403 0.010000
v -0.010000 -0.988403 -0.010000
v -0.089097 -0.090187 0.000000
v 0.089097 -0.090187 0.000000
v 0.000000 -0.090187 0.000000
v -0.089097 -0.090187 0.000000
v 0.089097 -0.090187 0.000000
v 0.000000 -0.090187 0.000000
v -0.030574 -0.032468 -0.010596
v -0.030574 -0.032468 0.011160
v -0.002815 0.042301 -0.010596
v -0.002815 0.042301 0.011160
v 0.030574 -0.032468 -0.010596
v 0.030574 -0.032468 0.011160
v 0.005356 0.042301 -0.010596
v 0.005356 0.042301 0.011160
vn -1.0000 -0.0000 -0.0000
vn 0.7757 0.6311 -0.0000
vn 1.0000 -0.0000 -0.0000
vn 0.7872 -0.6167 -0.0000
vn -0.0000 -0.0000 -1.0000
vn -0.0000 -0.0000 1.0000
vn -0.7872 -0.6167 -0.0000
vn -0.7721 0.6356 -0.0000
vn -0.0000 -1.0000 -0.0000
vn -0.0000 1.0000 -0.0000
vn -0.9375 0.3480 -0.0000
vn 0.9476 0.3196 -0.0000
vt 0.918322 0.263788
vt 0.911144 0.281173
vt 0.911144 0.263788
vt 0.914449 0.518536
vt 0.921628 0.488890
vt 0.921628 0.518536
vt 0.914449 0.488890
vt 0.921628 0.471803
vt 0.559684 0.918874
vt 0.566863 0.892981
vt 0.566863 0.918874
vt 0.721523 0.488990
vt 0.743818 0.500265
vt 0.743818 0.516393
vt 0.721523 0.682235
vt 0.743818 0.693191
vt 0.743818 0.709318
vt 0.766113 0.681916
vt 0.766113 0.664728
vt 0.766113 0.489309
vt 0.766113 0.471803
vt 0.397845 0.919378
vt 0.405024 0.893737
vt 0.405024 0.919378
vt 0.918322 0.281173
vt 0.911144 0.310692
vt 0.074168 0.749335
vt 0.087671 0.074168
vt 0.087671 0.749335
vt 0.087671 0.897670
vt 0.074168 0.911174
vt 0.074168 0.897670
vt 0.559684 0.744645
vt 0.573188 0.074168
vt 0.573188 0.744645
vt 0.236007 0.749335
vt 0.249510 0.074168
vt 0.249510 0.749335
vt 0.397845 0.745401
vt 0.411349 0.074168
vt 0.411349 0.745401
vt 0.236007 0.897671
vt 0.249510 0.911174
vt 0.236007 0.911174
vt 0.721523 0.909990
vt 0.736212 0.857654
vt 0.736212 0.909990
vt 0.914449 0.666872
vt 0.919966 0.681560
vt 0.914449 0.681560
vt 0.899236 0.909677
vt 0.884547 0.857654
vt 0.899236 0.857654
vt 0.911144 0.074168
vt 0.925832 0.115453
vt 0.911144 0.115453
vt 0.744066 0.124650
vt 0.721523 0.074168
vt 0.762808 0.074168
vt 0.740265 0.323467
vt 0.762808 0.272985
vt 0.745782 0.323467
vt 0.914449 0.471803
vt 0.559684 0.892981
vt 0.721523 0.471803
vt 0.721523 0.664728
vt 0.397845 0.893737
vt 0.918322 0.310692
vt 0.074168 0.074168
vt 0.087671 0.911174
vt 0.559684 0.074168
vt 0.236007 0.074168
vt 0.397846 0.074168
vt 0.249510 0.897671
vt 0.721523 0.857654
vt 0.919966 0.666872
vt 0.884547 0.909677
vt 0.925832 0.074168
vt 0.738549 0.124650
vt 0.721523 0.272985
s 0
f 2/1/1 3/2/1 1/3/1
f 10/4/2 7/5/2 9/6/2
f 8/7/3 5/8/3 7/5/3
f 12/9/4 1/10/4 11/11/4
f 7/12/5 11/13/5 9/14/5
f 4/15/6 12/16/6 10/17/6
f 8/18/6 12/16/6 6/19/6
f 3/20/5 11/13/5 1/21/5
f 6/22/7 11/23/7 5/24/7
f 4/25/8 9/26/8 3/2/8
f 17/27/6 15/28/6 13/29/6
f 15/30/9 20/31/9 16/32/9
f 19/33/1 18/34/1 20/35/1
f 14/36/5 20/37/5 18/38/5
f 13/39/3 16/40/3 14/41/3
f 17/42/10 14/43/10 18/44/10
f 28/45/11 29/46/11 27/47/11
f 30/48/10 33/49/10 29/50/10
f 33/51/12 32/52/12 31/53/12
f 31/54/9 28/55/9 27/56/9
f 29/57/5 31/58/5 27/59/5
f 30/60/6 32/61/6 34/62/6
f 2/1/1 4/25/1 3/2/1
f 10/4/2 8/7/2 7/5/2
f 8/7/3 6/63/3 5/8/3
f 12/9/4 2/64/4 1/10/4
f 7/12/5 5/65/5 11/13/5
f 4/15/6 2/66/6 12/16/6
f 8/18/6 10/17/6 12/16/6
f 3/20/5 9/14/5 11/13/5
f 6/22/7 12/67/7 11/23/7
f 4/25/8 10/68/8 9/26/8
f 17/27/6 19/69/6 15/28/6
f 15/30/9 19/70/9 20/31/9
f 19/33/1 17/71/1 18/34/1
f 14/36/5 16/72/5 20/37/5
f 13/39/3 15/73/3 16/40/3
f 17/42/10 13/74/10 14/43/10
f 28/45/11 30/75/11 29/46/11
f 30/48/10 34/76/10 33/49/10
f 33/51/12 34/77/12 32/52/12
f 31/54/9 32/78/9 28/55/9
f 29/57/5 33/79/5 31/58/5
f 30/60/6 28/80/6 32/61/6
l 26 23
l 21 24
l 25 22
